%TF.GenerationSoftware,KiCad,Pcbnew,10.0.4*%
%TF.CreationDate,2026-08-24T20:28:22-07:00*%
%TF.ProjectId,reflow946,7265666c-6f77-4393-9436-2e6b69636164,rev?*%
%TF.SameCoordinates,Original*%
%TF.FileFunction,Soldermask,Bot*%
%TF.FilePolarity,Negative*%
%FSLAX46Y46*%
G04 Gerber Fmt 4.6, Leading zero omitted, Abs format (unit mm)*
G04 Created by KiCad (PCBNEW 10.0.4) date 2026-08-24 20:28:22*
%MOMM*%
%LPD*%
G01*
G04 APERTURE LIST*
G04 Aperture macros list*
%AMRoundRect*
0 Rectangle with rounded corners*
0 $1 Rounding radius*
0 $2 $3 $4 $5 $6 $7 $8 $9 X,Y pos of 4 corners*
0 Add a 4 corners polygon primitive as box body*
4,1,4,$2,$3,$4,$5,$6,$7,$8,$9,$2,$3,0*
0 Add four circle primitives for the rounded corners*
1,1,$1+$1,$2,$3*
1,1,$1+$1,$4,$5*
1,1,$1+$1,$6,$7*
1,1,$1+$1,$8,$9*
0 Add four rect primitives between the rounded corners*
20,1,$1+$1,$2,$3,$4,$5,0*
20,1,$1+$1,$4,$5,$6,$7,0*
20,1,$1+$1,$6,$7,$8,$9,0*
20,1,$1+$1,$8,$9,$2,$3,0*%
%AMHorizOval*
0 Thick line with rounded ends*
0 $1 width*
0 $2 $3 position (X,Y) of the first rounded end (center of the circle)*
0 $4 $5 position (X,Y) of the second rounded end (center of the circle)*
0 Add line between two ends*
20,1,$1,$2,$3,$4,$5,0*
0 Add two circle primitives to create the rounded ends*
1,1,$1,$2,$3*
1,1,$1,$4,$5*%
G04 Aperture macros list end*
%ADD10HorizOval,1.600000X0.000000X0.000000X0.000000X0.000000X0*%
%ADD11C,1.600000*%
%ADD12HorizOval,2.400000X0.000000X0.000000X0.000000X0.000000X0*%
%ADD13C,2.400000*%
%ADD14C,2.700000*%
%ADD15RoundRect,0.250001X-1.099999X1.099999X-1.099999X-1.099999X1.099999X-1.099999X1.099999X1.099999X0*%
%ADD16C,2.000000*%
%ADD17O,1.600000X1.600000*%
%ADD18R,2.400000X1.600000*%
%ADD19O,2.400000X1.600000*%
%ADD20O,3.500000X3.500000*%
%ADD21R,1.905000X2.000000*%
%ADD22O,1.905000X2.000000*%
%ADD23R,1.700000X1.700000*%
%ADD24O,1.700000X1.700000*%
%ADD25O,6.000000X4.500000*%
%ADD26C,4.200000*%
%ADD27R,2.000000X2.000000*%
%ADD28C,1.100000*%
%ADD29RoundRect,0.249999X0.850001X-0.850001X0.850001X0.850001X-0.850001X0.850001X-0.850001X-0.850001X0*%
%ADD30C,2.200000*%
%ADD31C,1.700000*%
%ADD32RoundRect,0.250001X1.099999X-1.099999X1.099999X1.099999X-1.099999X1.099999X-1.099999X-1.099999X0*%
G04 APERTURE END LIST*
D10*
%TO.C,R3*%
X181294668Y-106392942D03*
D11*
X183500000Y-118900000D03*
%TD*%
D12*
%TO.C,R5*%
X185257613Y-104139542D03*
D13*
X190470000Y-118460458D03*
%TD*%
D14*
%TO.C,J2*%
X195700000Y-102570000D03*
D15*
X195700000Y-94650000D03*
%TD*%
D14*
%TO.C,J3*%
X195710000Y-89570000D03*
D15*
X195710000Y-81651680D03*
%TD*%
D16*
%TO.C,CCBB1*%
X196560000Y-118500000D03*
X196560000Y-108500000D03*
%TD*%
D11*
%TO.C,R4*%
X176480000Y-99700000D03*
D17*
X189180000Y-99700000D03*
%TD*%
D18*
%TO.C,U1*%
X171100000Y-113900000D03*
D19*
X171100000Y-116440000D03*
X171100000Y-118980000D03*
X178720000Y-118980000D03*
X178720000Y-116440000D03*
X178720000Y-113900000D03*
%TD*%
D20*
%TO.C,Q1*%
X180660000Y-77395000D03*
D21*
X183200000Y-94055000D03*
D22*
X180660000Y-94055000D03*
X178120000Y-94055000D03*
%TD*%
D23*
%TO.C,J5*%
X108675000Y-74075000D03*
D24*
X108675000Y-71535000D03*
X111215000Y-74075000D03*
X111215000Y-71535000D03*
X113755000Y-74075000D03*
X113755000Y-71535000D03*
%TD*%
D25*
%TO.C,REF\u002A\u002A*%
X103700000Y-126400000D03*
%TD*%
D26*
%TO.C,REF\u002A\u002A*%
X165000000Y-95500000D03*
%TD*%
D16*
%TO.C,J4*%
X102750000Y-116180000D03*
X102750000Y-118680000D03*
%TD*%
D27*
%TO.C,C1*%
X122000000Y-78267677D03*
D16*
X122000000Y-73267677D03*
%TD*%
D28*
%TO.C,J8*%
X151871250Y-104470000D03*
X151871250Y-101930000D03*
D29*
X149331250Y-104470000D03*
D30*
X149331250Y-101930000D03*
%TD*%
D23*
%TO.C,J9*%
X155670000Y-89660000D03*
D31*
X158210000Y-89660000D03*
X160750000Y-89660000D03*
X163290000Y-89660000D03*
X165830000Y-89660000D03*
X168370000Y-89660000D03*
X170910000Y-89660000D03*
X173450000Y-89660000D03*
%TD*%
D26*
%TO.C,REF\u002A\u002A*%
X120000000Y-123500000D03*
%TD*%
D23*
%TO.C,J7*%
X108980000Y-127870000D03*
D31*
X111520000Y-127870000D03*
X114060000Y-127870000D03*
X116600000Y-127870000D03*
X119140000Y-127870000D03*
X121680000Y-127870000D03*
%TD*%
D26*
%TO.C,REF\u002A\u002A*%
X194600000Y-73300000D03*
%TD*%
D32*
%TO.C,J1*%
X104100000Y-84000000D03*
D14*
X104090050Y-80040040D03*
%TD*%
D25*
%TO.C,REF\u002A\u002A*%
X194600000Y-126400000D03*
%TD*%
D26*
%TO.C,REF\u002A\u002A*%
X165000000Y-123500000D03*
%TD*%
%TO.C,REF\u002A\u002A*%
X103600000Y-73300000D03*
%TD*%
D16*
%TO.C,DS1*%
X148975000Y-88725130D03*
X146435000Y-88725130D03*
X143895000Y-88725130D03*
X141355000Y-88725130D03*
X138815000Y-88725130D03*
X136275000Y-88725130D03*
X136275000Y-76025130D03*
X138815000Y-76025130D03*
X141355000Y-76025130D03*
X143895000Y-76025130D03*
X146435000Y-76025130D03*
X148975000Y-76025130D03*
%TD*%
%TO.C,SW3*%
X127500000Y-116500000D03*
X122500000Y-116500000D03*
X127500000Y-111500000D03*
X122500000Y-111500000D03*
%TD*%
%TO.C,SW2*%
X143500000Y-116500000D03*
X138500000Y-116500000D03*
X143500000Y-111500000D03*
X138500000Y-111500000D03*
%TD*%
%TO.C,SW1*%
X159500000Y-116500000D03*
X154500000Y-116500000D03*
X159500000Y-111500000D03*
X154500000Y-111500000D03*
%TD*%
M02*
