%TF.GenerationSoftware,KiCad,Pcbnew,10.0.4*%
%TF.CreationDate,2026-08-24T14:50:38-07:00*%
%TF.ProjectId,reflow946,7265666c-6f77-4393-9436-2e6b69636164,rev?*%
%TF.SameCoordinates,Original*%
%TF.FileFunction,Legend,Bot*%
%TF.FilePolarity,Positive*%
%FSLAX46Y46*%
G04 Gerber Fmt 4.6, Leading zero omitted, Abs format (unit mm)*
G04 Created by KiCad (PCBNEW 10.0.4) date 2026-08-24 14:50:38*
%MOMM*%
%LPD*%
G01*
G04 APERTURE LIST*
%ADD10C,0.150000*%
%ADD11C,0.250000*%
%ADD12C,1.000000*%
%ADD13C,0.500000*%
G04 APERTURE END LIST*
D10*
X143596428Y-72387425D02*
X143596428Y-71587425D01*
X143596428Y-71587425D02*
X143405952Y-71587425D01*
X143405952Y-71587425D02*
X143291666Y-71625520D01*
X143291666Y-71625520D02*
X143215476Y-71701710D01*
X143215476Y-71701710D02*
X143177381Y-71777901D01*
X143177381Y-71777901D02*
X143139285Y-71930282D01*
X143139285Y-71930282D02*
X143139285Y-72044568D01*
X143139285Y-72044568D02*
X143177381Y-72196949D01*
X143177381Y-72196949D02*
X143215476Y-72273139D01*
X143215476Y-72273139D02*
X143291666Y-72349330D01*
X143291666Y-72349330D02*
X143405952Y-72387425D01*
X143405952Y-72387425D02*
X143596428Y-72387425D01*
X142834524Y-72349330D02*
X142720238Y-72387425D01*
X142720238Y-72387425D02*
X142529762Y-72387425D01*
X142529762Y-72387425D02*
X142453571Y-72349330D01*
X142453571Y-72349330D02*
X142415476Y-72311234D01*
X142415476Y-72311234D02*
X142377381Y-72235044D01*
X142377381Y-72235044D02*
X142377381Y-72158853D01*
X142377381Y-72158853D02*
X142415476Y-72082663D01*
X142415476Y-72082663D02*
X142453571Y-72044568D01*
X142453571Y-72044568D02*
X142529762Y-72006472D01*
X142529762Y-72006472D02*
X142682143Y-71968377D01*
X142682143Y-71968377D02*
X142758333Y-71930282D01*
X142758333Y-71930282D02*
X142796428Y-71892187D01*
X142796428Y-71892187D02*
X142834524Y-71815996D01*
X142834524Y-71815996D02*
X142834524Y-71739806D01*
X142834524Y-71739806D02*
X142796428Y-71663615D01*
X142796428Y-71663615D02*
X142758333Y-71625520D01*
X142758333Y-71625520D02*
X142682143Y-71587425D01*
X142682143Y-71587425D02*
X142491666Y-71587425D01*
X142491666Y-71587425D02*
X142377381Y-71625520D01*
X141615476Y-72387425D02*
X142072619Y-72387425D01*
X141844047Y-72387425D02*
X141844047Y-71587425D01*
X141844047Y-71587425D02*
X141920238Y-71701710D01*
X141920238Y-71701710D02*
X141996428Y-71777901D01*
X141996428Y-71777901D02*
X142072619Y-71815996D01*
X126066667Y-107324200D02*
X125952381Y-107362295D01*
X125952381Y-107362295D02*
X125761905Y-107362295D01*
X125761905Y-107362295D02*
X125685714Y-107324200D01*
X125685714Y-107324200D02*
X125647619Y-107286104D01*
X125647619Y-107286104D02*
X125609524Y-107209914D01*
X125609524Y-107209914D02*
X125609524Y-107133723D01*
X125609524Y-107133723D02*
X125647619Y-107057533D01*
X125647619Y-107057533D02*
X125685714Y-107019438D01*
X125685714Y-107019438D02*
X125761905Y-106981342D01*
X125761905Y-106981342D02*
X125914286Y-106943247D01*
X125914286Y-106943247D02*
X125990476Y-106905152D01*
X125990476Y-106905152D02*
X126028571Y-106867057D01*
X126028571Y-106867057D02*
X126066667Y-106790866D01*
X126066667Y-106790866D02*
X126066667Y-106714676D01*
X126066667Y-106714676D02*
X126028571Y-106638485D01*
X126028571Y-106638485D02*
X125990476Y-106600390D01*
X125990476Y-106600390D02*
X125914286Y-106562295D01*
X125914286Y-106562295D02*
X125723809Y-106562295D01*
X125723809Y-106562295D02*
X125609524Y-106600390D01*
X125342857Y-106562295D02*
X125152381Y-107362295D01*
X125152381Y-107362295D02*
X125000000Y-106790866D01*
X125000000Y-106790866D02*
X124847619Y-107362295D01*
X124847619Y-107362295D02*
X124657143Y-106562295D01*
X124428571Y-106562295D02*
X123933333Y-106562295D01*
X123933333Y-106562295D02*
X124199999Y-106867057D01*
X124199999Y-106867057D02*
X124085714Y-106867057D01*
X124085714Y-106867057D02*
X124009523Y-106905152D01*
X124009523Y-106905152D02*
X123971428Y-106943247D01*
X123971428Y-106943247D02*
X123933333Y-107019438D01*
X123933333Y-107019438D02*
X123933333Y-107209914D01*
X123933333Y-107209914D02*
X123971428Y-107286104D01*
X123971428Y-107286104D02*
X124009523Y-107324200D01*
X124009523Y-107324200D02*
X124085714Y-107362295D01*
X124085714Y-107362295D02*
X124314285Y-107362295D01*
X124314285Y-107362295D02*
X124390476Y-107324200D01*
X124390476Y-107324200D02*
X124428571Y-107286104D01*
X142066667Y-107324200D02*
X141952381Y-107362295D01*
X141952381Y-107362295D02*
X141761905Y-107362295D01*
X141761905Y-107362295D02*
X141685714Y-107324200D01*
X141685714Y-107324200D02*
X141647619Y-107286104D01*
X141647619Y-107286104D02*
X141609524Y-107209914D01*
X141609524Y-107209914D02*
X141609524Y-107133723D01*
X141609524Y-107133723D02*
X141647619Y-107057533D01*
X141647619Y-107057533D02*
X141685714Y-107019438D01*
X141685714Y-107019438D02*
X141761905Y-106981342D01*
X141761905Y-106981342D02*
X141914286Y-106943247D01*
X141914286Y-106943247D02*
X141990476Y-106905152D01*
X141990476Y-106905152D02*
X142028571Y-106867057D01*
X142028571Y-106867057D02*
X142066667Y-106790866D01*
X142066667Y-106790866D02*
X142066667Y-106714676D01*
X142066667Y-106714676D02*
X142028571Y-106638485D01*
X142028571Y-106638485D02*
X141990476Y-106600390D01*
X141990476Y-106600390D02*
X141914286Y-106562295D01*
X141914286Y-106562295D02*
X141723809Y-106562295D01*
X141723809Y-106562295D02*
X141609524Y-106600390D01*
X141342857Y-106562295D02*
X141152381Y-107362295D01*
X141152381Y-107362295D02*
X141000000Y-106790866D01*
X141000000Y-106790866D02*
X140847619Y-107362295D01*
X140847619Y-107362295D02*
X140657143Y-106562295D01*
X140390476Y-106638485D02*
X140352380Y-106600390D01*
X140352380Y-106600390D02*
X140276190Y-106562295D01*
X140276190Y-106562295D02*
X140085714Y-106562295D01*
X140085714Y-106562295D02*
X140009523Y-106600390D01*
X140009523Y-106600390D02*
X139971428Y-106638485D01*
X139971428Y-106638485D02*
X139933333Y-106714676D01*
X139933333Y-106714676D02*
X139933333Y-106790866D01*
X139933333Y-106790866D02*
X139971428Y-106905152D01*
X139971428Y-106905152D02*
X140428571Y-107362295D01*
X140428571Y-107362295D02*
X139933333Y-107362295D01*
X158066667Y-107324200D02*
X157952381Y-107362295D01*
X157952381Y-107362295D02*
X157761905Y-107362295D01*
X157761905Y-107362295D02*
X157685714Y-107324200D01*
X157685714Y-107324200D02*
X157647619Y-107286104D01*
X157647619Y-107286104D02*
X157609524Y-107209914D01*
X157609524Y-107209914D02*
X157609524Y-107133723D01*
X157609524Y-107133723D02*
X157647619Y-107057533D01*
X157647619Y-107057533D02*
X157685714Y-107019438D01*
X157685714Y-107019438D02*
X157761905Y-106981342D01*
X157761905Y-106981342D02*
X157914286Y-106943247D01*
X157914286Y-106943247D02*
X157990476Y-106905152D01*
X157990476Y-106905152D02*
X158028571Y-106867057D01*
X158028571Y-106867057D02*
X158066667Y-106790866D01*
X158066667Y-106790866D02*
X158066667Y-106714676D01*
X158066667Y-106714676D02*
X158028571Y-106638485D01*
X158028571Y-106638485D02*
X157990476Y-106600390D01*
X157990476Y-106600390D02*
X157914286Y-106562295D01*
X157914286Y-106562295D02*
X157723809Y-106562295D01*
X157723809Y-106562295D02*
X157609524Y-106600390D01*
X157342857Y-106562295D02*
X157152381Y-107362295D01*
X157152381Y-107362295D02*
X157000000Y-106790866D01*
X157000000Y-106790866D02*
X156847619Y-107362295D01*
X156847619Y-107362295D02*
X156657143Y-106562295D01*
X155933333Y-107362295D02*
X156390476Y-107362295D01*
X156161904Y-107362295D02*
X156161904Y-106562295D01*
X156161904Y-106562295D02*
X156238095Y-106676580D01*
X156238095Y-106676580D02*
X156314285Y-106752771D01*
X156314285Y-106752771D02*
X156390476Y-106790866D01*
%TO.C,DS1*%
D11*
X127575000Y-74375130D02*
X127575000Y-90375130D01*
X127575000Y-90375130D02*
X157675000Y-90375130D01*
D12*
X128525000Y-78435130D02*
X129415000Y-81615130D01*
X129445000Y-83355130D02*
X130335000Y-86535130D01*
X133795000Y-77615130D02*
X129225000Y-77615130D01*
X134815000Y-78245130D02*
X135705000Y-81425130D01*
X134945000Y-82315130D02*
X130365000Y-82315130D01*
X135735000Y-83165130D02*
X136625000Y-86345130D01*
X135825000Y-87135130D02*
X131255000Y-87135130D01*
X138625000Y-78505130D02*
X139515000Y-81675130D01*
X139545000Y-83425130D02*
X140435000Y-86595130D01*
X143895000Y-77675130D02*
X139325000Y-77675130D01*
X144915000Y-78315130D02*
X145805000Y-81485130D01*
X145035000Y-82375130D02*
X140465000Y-82375130D01*
X145835000Y-83235130D02*
X146725000Y-86405130D01*
X145925000Y-87205130D02*
X141355000Y-87205130D01*
X148595000Y-78435130D02*
X149485000Y-81615130D01*
X149515000Y-83355130D02*
X150405000Y-86535130D01*
X153865000Y-77615130D02*
X149295000Y-77615130D01*
X154875000Y-78245130D02*
X155765000Y-81425130D01*
X155005000Y-82315130D02*
X150435000Y-82315130D01*
X155805000Y-83165130D02*
X156685000Y-86345130D01*
X155895000Y-87135130D02*
X151325000Y-87135130D01*
D11*
X157675000Y-74375130D02*
X127575000Y-74375130D01*
X157675000Y-74375130D02*
X157675000Y-90375130D01*
D13*
X128935000Y-86695130D02*
G75*
G02*
X128375000Y-86695130I-280000J0D01*
G01*
X128375000Y-86695130D02*
G75*
G02*
X128935000Y-86695130I280000J0D01*
G01*
X138965000Y-86695130D02*
G75*
G02*
X138405000Y-86695130I-280000J0D01*
G01*
X138405000Y-86695130D02*
G75*
G02*
X138965000Y-86695130I280000J0D01*
G01*
X148935000Y-86625130D02*
G75*
G02*
X148375000Y-86625130I-280000J0D01*
G01*
X148375000Y-86625130D02*
G75*
G02*
X148935000Y-86625130I280000J0D01*
G01*
%TO.C,SW3*%
D11*
X121250000Y-110250000D02*
X121250000Y-117750000D01*
X121250000Y-117750000D02*
X128750000Y-117750000D01*
X124040000Y-109100000D02*
X124040000Y-108080000D01*
X124070000Y-118900000D02*
X125990000Y-118900000D01*
X124070000Y-119250000D02*
X125990000Y-119250000D01*
X124070000Y-119930000D02*
X124070000Y-118900000D01*
X125960000Y-108080000D02*
X125960000Y-109100000D01*
X125960000Y-108750000D02*
X124040000Y-108750000D01*
X125960000Y-109100000D02*
X124040000Y-109100000D01*
X125990000Y-118900000D02*
X125990000Y-119930000D01*
X128750000Y-110250000D02*
X121250000Y-110250000D01*
X128750000Y-117750000D02*
X128750000Y-110250000D01*
X130600000Y-116160000D02*
X130600000Y-111840000D01*
X130599422Y-116161497D02*
G75*
G02*
X130600000Y-111840000I-5599422J2161497D01*
G01*
%TO.C,SW2*%
X137250000Y-110250000D02*
X137250000Y-117750000D01*
X137250000Y-117750000D02*
X144750000Y-117750000D01*
X140040000Y-109100000D02*
X140040000Y-108080000D01*
X140070000Y-118900000D02*
X141990000Y-118900000D01*
X140070000Y-119250000D02*
X141990000Y-119250000D01*
X140070000Y-119930000D02*
X140070000Y-118900000D01*
X141960000Y-108080000D02*
X141960000Y-109100000D01*
X141960000Y-108750000D02*
X140040000Y-108750000D01*
X141960000Y-109100000D02*
X140040000Y-109100000D01*
X141990000Y-118900000D02*
X141990000Y-119930000D01*
X144750000Y-110250000D02*
X137250000Y-110250000D01*
X144750000Y-117750000D02*
X144750000Y-110250000D01*
X146600000Y-116160000D02*
X146600000Y-111840000D01*
X146599422Y-116161497D02*
G75*
G02*
X146600000Y-111840000I-5599422J2161497D01*
G01*
%TO.C,SW1*%
X153250000Y-110250000D02*
X153250000Y-117750000D01*
X153250000Y-117750000D02*
X160750000Y-117750000D01*
X156040000Y-109100000D02*
X156040000Y-108080000D01*
X156070000Y-118900000D02*
X157990000Y-118900000D01*
X156070000Y-119250000D02*
X157990000Y-119250000D01*
X156070000Y-119930000D02*
X156070000Y-118900000D01*
X157960000Y-108080000D02*
X157960000Y-109100000D01*
X157960000Y-108750000D02*
X156040000Y-108750000D01*
X157960000Y-109100000D02*
X156040000Y-109100000D01*
X157990000Y-118900000D02*
X157990000Y-119930000D01*
X160750000Y-110250000D02*
X153250000Y-110250000D01*
X160750000Y-117750000D02*
X160750000Y-110250000D01*
X162600000Y-116160000D02*
X162600000Y-111840000D01*
X162599422Y-116161497D02*
G75*
G02*
X162600000Y-111840000I-5599422J2161497D01*
G01*
%TD*%
M02*
