M48
; DRILL file KiCad 10.0.4 date 2026-08-24T14:51:24
; FORMAT={-:-/ absolute / metric / decimal}
; #@! TF.CreationDate,2026-08-24T14:51:24-07:00
; #@! TF.GenerationSoftware,Kicad,Pcbnew,10.0.4
; #@! TF.FileFunction,MixedPlating,1,2
FMAT,2
METRIC
; #@! TA.AperFunction,Plated,PTH,ViaDrill
T1C0.400
; #@! TA.AperFunction,Plated,PTH,ComponentDrill
T2C0.800
; #@! TA.AperFunction,Plated,PTH,ComponentDrill
T3C1.000
; #@! TA.AperFunction,Plated,PTH,ComponentDrill
T4C1.100
; #@! TA.AperFunction,Plated,PTH,ComponentDrill
T5C1.200
; #@! TA.AperFunction,Plated,PTH,ComponentDrill
T6C1.700
; #@! TA.AperFunction,NonPlated,NPTH,ComponentDrill
T7C1.100
; #@! TA.AperFunction,NonPlated,NPTH,ComponentDrill
T8C3.500
; #@! TA.AperFunction,NonPlated,NPTH,ComponentDrill
T9C4.200
; #@! TA.AperFunction,NonPlated,NPTH,ComponentDrill
T10C4.500
%
G90
G05
T1
X106.0Y-112.8
X106.7Y-77.0
X106.7Y-86.9
X107.7Y-89.5
X107.7Y-106.7
X109.0Y-106.7
X111.6Y-87.6
X112.7Y-86.3
X113.2Y-98.8
X113.2Y-100.8
X113.2Y-102.8
X114.225Y-110.338
X114.5Y-112.8
X115.2Y-98.8
X115.2Y-100.8
X115.2Y-102.8
X115.4Y-110.0
X116.3Y-96.5
X116.5Y-110.0
X116.7Y-92.8
X116.9Y-117.9
X117.2Y-98.8
X117.2Y-100.8
X117.2Y-102.8
X117.2Y-86.2
X118.837Y-112.363
X119.3Y-93.6
X119.4Y-118.18
X120.445Y-105.5
X120.6Y-88.0
X120.863Y-113.337
X121.715Y-104.3
X121.79Y-94.4
X123.267Y-88.932
X123.6Y-119.5
X124.2Y-79.5
X124.2Y-81.0
X131.54Y-99.2
X132.72Y-110.59
X132.72Y-116.51
X132.75Y-99.27
X133.782Y-102.432
X135.94Y-102.43
X136.0Y-78.6
X137.45Y-98.32
X138.9Y-71.0
X139.6Y-78.6
X141.4Y-94.3
X143.9Y-71.0
X143.9Y-94.3
X144.2Y-78.6
X146.4Y-71.0
X146.5Y-94.3
X149.0Y-94.3
X149.7Y-78.6
X150.5Y-85.7
X153.29Y-95.44
X154.05Y-96.3
X155.2Y-97.06
X157.09Y-96.24
X168.0Y-99.15
X168.36Y-83.875
T2
X171.1Y-113.9
X171.1Y-116.44
X171.1Y-118.98
X178.15Y-99.7
X178.72Y-113.9
X178.72Y-116.44
X178.72Y-118.98
X181.295Y-106.393
X183.5Y-118.9
X190.85Y-99.7
T3
X108.675Y-71.535
X108.675Y-74.075
X109.01Y-127.68
X111.215Y-71.535
X111.215Y-74.075
X111.55Y-127.68
X113.755Y-71.535
X113.755Y-74.075
X114.09Y-127.68
X116.63Y-127.68
X119.17Y-127.68
X121.71Y-127.68
X122.0Y-73.268
X122.0Y-78.268
X136.275Y-76.025
X136.275Y-88.725
X138.815Y-76.025
X138.815Y-88.725
X141.355Y-76.025
X141.355Y-88.725
X143.895Y-76.025
X143.895Y-88.725
X146.435Y-76.025
X146.435Y-88.725
X148.975Y-76.025
X148.975Y-88.725
X155.67Y-89.66
X158.21Y-89.66
X160.75Y-89.66
X163.29Y-89.66
X165.83Y-89.66
X168.37Y-89.66
X170.91Y-89.66
X173.45Y-89.66
X197.8Y-108.5
X197.8Y-118.5
T4
X102.75Y-116.18
X102.75Y-118.68
X149.331Y-101.93
X149.331Y-104.47
X178.12Y-94.055
X180.66Y-94.055
X183.2Y-94.055
T5
X122.5Y-111.5
X122.5Y-116.5
X127.5Y-111.5
X127.5Y-116.5
X138.5Y-111.5
X138.5Y-116.5
X143.5Y-111.5
X143.5Y-116.5
X154.5Y-111.5
X154.5Y-116.5
X159.5Y-111.5
X159.5Y-116.5
X185.694Y-104.14
X190.906Y-118.46
T6
X104.09Y-80.04
X104.1Y-84.0
X199.9Y-81.652
X199.9Y-89.57
X199.9Y-94.65
X199.9Y-102.57
T7
X151.871Y-101.93
X151.871Y-104.47
T8
X180.66Y-77.395
T9
X103.6Y-73.3
X120.0Y-123.5
X165.0Y-95.5
X165.0Y-123.5
X194.6Y-73.3
T10
X102.95Y-126.4G85X104.45Y-126.4
G05
X193.85Y-126.4G85X195.35Y-126.4
G05
M30
