%TF.GenerationSoftware,KiCad,Pcbnew,10.0.4*%
%TF.CreationDate,2026-08-24T14:50:38-07:00*%
%TF.ProjectId,reflow946,7265666c-6f77-4393-9436-2e6b69636164,rev?*%
%TF.SameCoordinates,Original*%
%TF.FileFunction,Copper,L2,Bot*%
%TF.FilePolarity,Positive*%
%FSLAX46Y46*%
G04 Gerber Fmt 4.6, Leading zero omitted, Abs format (unit mm)*
G04 Created by KiCad (PCBNEW 10.0.4) date 2026-08-24 14:50:38*
%MOMM*%
%LPD*%
G01*
G04 APERTURE LIST*
G04 Aperture macros list*
%AMRoundRect*
0 Rectangle with rounded corners*
0 $1 Rounding radius*
0 $2 $3 $4 $5 $6 $7 $8 $9 X,Y pos of 4 corners*
0 Add a 4 corners polygon primitive as box body*
4,1,4,$2,$3,$4,$5,$6,$7,$8,$9,$2,$3,0*
0 Add four circle primitives for the rounded corners*
1,1,$1+$1,$2,$3*
1,1,$1+$1,$4,$5*
1,1,$1+$1,$6,$7*
1,1,$1+$1,$8,$9*
0 Add four rect primitives between the rounded corners*
20,1,$1+$1,$2,$3,$4,$5,0*
20,1,$1+$1,$4,$5,$6,$7,0*
20,1,$1+$1,$6,$7,$8,$9,0*
20,1,$1+$1,$8,$9,$2,$3,0*%
%AMHorizOval*
0 Thick line with rounded ends*
0 $1 width*
0 $2 $3 position (X,Y) of the first rounded end (center of the circle)*
0 $4 $5 position (X,Y) of the second rounded end (center of the circle)*
0 Add line between two ends*
20,1,$1,$2,$3,$4,$5,0*
0 Add two circle primitives to create the rounded ends*
1,1,$1,$2,$3*
1,1,$1,$4,$5*%
G04 Aperture macros list end*
%TA.AperFunction,ComponentPad*%
%ADD10R,1.700000X1.700000*%
%TD*%
%TA.AperFunction,ComponentPad*%
%ADD11O,1.700000X1.700000*%
%TD*%
%TA.AperFunction,ComponentPad*%
%ADD12C,2.000000*%
%TD*%
%TA.AperFunction,ComponentPad*%
%ADD13R,2.000000X2.000000*%
%TD*%
%TA.AperFunction,ComponentPad*%
%ADD14RoundRect,0.250001X-1.099999X1.099999X-1.099999X-1.099999X1.099999X-1.099999X1.099999X1.099999X0*%
%TD*%
%TA.AperFunction,ComponentPad*%
%ADD15C,2.700000*%
%TD*%
%TA.AperFunction,ComponentPad*%
%ADD16RoundRect,0.249999X0.850001X-0.850001X0.850001X0.850001X-0.850001X0.850001X-0.850001X-0.850001X0*%
%TD*%
%TA.AperFunction,ComponentPad*%
%ADD17C,2.200000*%
%TD*%
%TA.AperFunction,ComponentPad*%
%ADD18C,2.400000*%
%TD*%
%TA.AperFunction,ComponentPad*%
%ADD19HorizOval,2.400000X0.000000X0.000000X0.000000X0.000000X0*%
%TD*%
%TA.AperFunction,ComponentPad*%
%ADD20C,1.700000*%
%TD*%
%TA.AperFunction,ComponentPad*%
%ADD21R,2.400000X1.600000*%
%TD*%
%TA.AperFunction,ComponentPad*%
%ADD22O,2.400000X1.600000*%
%TD*%
%TA.AperFunction,ComponentPad*%
%ADD23C,1.600000*%
%TD*%
%TA.AperFunction,ComponentPad*%
%ADD24O,1.600000X1.600000*%
%TD*%
%TA.AperFunction,ComponentPad*%
%ADD25RoundRect,0.250001X1.099999X-1.099999X1.099999X1.099999X-1.099999X1.099999X-1.099999X-1.099999X0*%
%TD*%
%TA.AperFunction,ComponentPad*%
%ADD26HorizOval,1.600000X0.000000X0.000000X0.000000X0.000000X0*%
%TD*%
%TA.AperFunction,ComponentPad*%
%ADD27R,1.905000X2.000000*%
%TD*%
%TA.AperFunction,ComponentPad*%
%ADD28O,1.905000X2.000000*%
%TD*%
%TA.AperFunction,ViaPad*%
%ADD29C,0.800000*%
%TD*%
%TA.AperFunction,Conductor*%
%ADD30C,0.250000*%
%TD*%
%TA.AperFunction,Conductor*%
%ADD31C,1.000000*%
%TD*%
%TA.AperFunction,Conductor*%
%ADD32C,0.800000*%
%TD*%
%TA.AperFunction,Conductor*%
%ADD33C,0.254000*%
%TD*%
%TA.AperFunction,Conductor*%
%ADD34C,0.400000*%
%TD*%
%TA.AperFunction,Conductor*%
%ADD35C,0.300000*%
%TD*%
%TA.AperFunction,Conductor*%
%ADD36C,3.000000*%
%TD*%
%TA.AperFunction,Conductor*%
%ADD37C,2.000000*%
%TD*%
G04 APERTURE END LIST*
D10*
%TO.P,J5,1,Pin_1_1*%
%TO.N,/ENABLE*%
X108675000Y-74075000D03*
D11*
%TO.P,J5,2,Pin_2_2*%
%TO.N,+3.3V*%
X108675000Y-71535000D03*
%TO.P,J5,3,Pin_3_3*%
%TO.N,/TX*%
X111215000Y-74075000D03*
%TO.P,J5,4,Pin_4_4*%
%TO.N,GND*%
X111215000Y-71535000D03*
%TO.P,J5,5,Pin_5_5*%
%TO.N,/RX*%
X113755000Y-74075000D03*
%TO.P,J5,6,Pin_6_6*%
%TO.N,/IO0*%
X113755000Y-71535000D03*
%TD*%
D12*
%TO.P,J4,1,Pin_1_1*%
%TO.N,Net-(J4-Pin_1)*%
X102750000Y-116180000D03*
%TO.P,J4,2,Pin_2_2*%
%TO.N,Net-(J4-Pin_2)*%
X102750000Y-118680000D03*
%TD*%
D13*
%TO.P,C1,1*%
%TO.N,Net-(D1-+)*%
X122000000Y-78267677D03*
D12*
%TO.P,C1,2*%
%TO.N,GND*%
X122000000Y-73267677D03*
%TD*%
D14*
%TO.P,J2,1,Pin_1_1*%
%TO.N,Net-(J2-Pin_1)*%
X199900000Y-94650000D03*
D15*
%TO.P,J2,2,Pin_2_2*%
%TO.N,Net-(J2-Pin_2)*%
X199900000Y-102570000D03*
%TD*%
D14*
%TO.P,J3,1,Pin_1_1*%
%TO.N,Net-(J3-Pin_1)*%
X199900000Y-81651680D03*
D15*
%TO.P,J3,2,Pin_2_2*%
%TO.N,Net-(J2-Pin_1)*%
X199900000Y-89570000D03*
%TD*%
D16*
%TO.P,J8,1,Pin_1_1*%
%TO.N,Net-(J8-Pin_1)*%
X149331250Y-104470000D03*
D17*
%TO.P,J8,2,Pin_2_2*%
%TO.N,Net-(J8-Pin_2)*%
X149331250Y-101930000D03*
%TD*%
D18*
%TO.P,R5,1*%
%TO.N,Net-(CCBB1-Pad1)*%
X190906194Y-118460458D03*
D19*
%TO.P,R5,2*%
%TO.N,Net-(J3-Pin_1)*%
X185693807Y-104139542D03*
%TD*%
D10*
%TO.P,J9,1,Pin_1_1*%
%TO.N,/dp*%
X155670000Y-89660000D03*
D20*
%TO.P,J9,2,Pin_2_2*%
%TO.N,/f*%
X158210000Y-89660000D03*
%TO.P,J9,3,Pin_3_3*%
%TO.N,/d*%
X160750000Y-89660000D03*
%TO.P,J9,4,Pin_4_4*%
%TO.N,/g*%
X163290000Y-89660000D03*
%TO.P,J9,5,Pin_5_5*%
%TO.N,/c*%
X165830000Y-89660000D03*
%TO.P,J9,6,Pin_6_6*%
%TO.N,/d2*%
X168370000Y-89660000D03*
%TO.P,J9,7,Pin_7_7*%
%TO.N,+3.3V*%
X170910000Y-89660000D03*
%TO.P,J9,8,Pin_8_8*%
%TO.N,GND*%
X173450000Y-89660000D03*
%TD*%
D21*
%TO.P,U1,1*%
%TO.N,Net-(R1-Pad2)*%
X171100000Y-113900000D03*
D22*
%TO.P,U1,2*%
%TO.N,GND*%
X171100000Y-116440000D03*
%TO.P,U1,3,NC_3*%
%TO.N,unconnected-(U1-NC-Pad3)*%
X171100000Y-118980000D03*
%TO.P,U1,4*%
%TO.N,Net-(R3-Pad1)*%
X178720000Y-118980000D03*
%TO.P,U1,5,NC_5*%
%TO.N,unconnected-(U1-NC-Pad5)*%
X178720000Y-116440000D03*
%TO.P,U1,6*%
%TO.N,Net-(Q1-G)*%
X178720000Y-113900000D03*
%TD*%
D23*
%TO.P,R4,1*%
%TO.N,Net-(Q1-G)*%
X178150000Y-99700000D03*
D24*
%TO.P,R4,2*%
%TO.N,Net-(J2-Pin_2)*%
X190850000Y-99700000D03*
%TD*%
D10*
%TO.P,J7,1,Pin_1_1*%
%TO.N,+3.3V*%
X109010000Y-127680000D03*
D20*
%TO.P,J7,2,Pin_2_2*%
%TO.N,GND*%
X111550000Y-127680000D03*
%TO.P,J7,3,Pin_3_3*%
%TO.N,/CLK*%
X114090000Y-127680000D03*
%TO.P,J7,4,Pin_4_4*%
%TO.N,/MISO*%
X116630000Y-127680000D03*
%TO.P,J7,5,Pin_5_5*%
%TO.N,/CS_EXT*%
X119170000Y-127680000D03*
%TO.P,J7,6,Pin_6_6*%
%TO.N,/TC_ADC*%
X121710000Y-127680000D03*
%TD*%
D25*
%TO.P,J1,1,Pin_1_1*%
%TO.N,Net-(J1-Pin_1)*%
X104100000Y-84000000D03*
D15*
%TO.P,J1,2,Pin_2_2*%
%TO.N,Net-(J1-Pin_2)*%
X104090050Y-80040040D03*
%TD*%
D23*
%TO.P,R3,1*%
%TO.N,Net-(R3-Pad1)*%
X183500000Y-118900000D03*
D26*
%TO.P,R3,2*%
%TO.N,Net-(J3-Pin_1)*%
X181294668Y-106392942D03*
%TD*%
D27*
%TO.P,Q1,1,A1_1*%
%TO.N,Net-(J2-Pin_2)*%
X183200000Y-94055000D03*
D28*
%TO.P,Q1,2,A2_2*%
%TO.N,Net-(J3-Pin_1)*%
X180660000Y-94055000D03*
%TO.P,Q1,3,G_3*%
%TO.N,Net-(Q1-G)*%
X178120000Y-94055000D03*
%TD*%
D12*
%TO.P,CCBB1,1*%
%TO.N,Net-(CCBB1-Pad1)*%
X197800000Y-118500000D03*
%TO.P,CCBB1,2*%
%TO.N,Net-(J2-Pin_2)*%
X197800000Y-108500000D03*
%TD*%
%TO.P,DS1,1,e_1*%
%TO.N,Net-(DS1-e)*%
X148975000Y-88725130D03*
%TO.P,DS1,2,d_2*%
%TO.N,Net-(DS1-d)*%
X146435000Y-88725130D03*
%TO.P,DS1,3,dp_3*%
%TO.N,Net-(DS1-dp)*%
X143895000Y-88725130D03*
%TO.P,DS1,4,c_4*%
%TO.N,Net-(DS1-c)*%
X141355000Y-88725130D03*
%TO.P,DS1,5,g_5*%
%TO.N,Net-(DS1-g)*%
X138815000Y-88725130D03*
%TO.P,DS1,6*%
%TO.N,unconnected-(DS1-Pad6)*%
X136275000Y-88725130D03*
%TO.P,DS1,7,b_7*%
%TO.N,Net-(DS1-b)*%
X136275000Y-76025130D03*
%TO.P,DS1,8,DIG3_8*%
%TO.N,Net-(DS1-DIG3)*%
X138815000Y-76025130D03*
%TO.P,DS1,9,DIG2_9*%
%TO.N,Net-(DS1-DIG2)*%
X141355000Y-76025130D03*
%TO.P,DS1,10,f_10*%
%TO.N,Net-(DS1-f)*%
X143895000Y-76025130D03*
%TO.P,DS1,11,a_11*%
%TO.N,Net-(DS1-a)*%
X146435000Y-76025130D03*
%TO.P,DS1,12,DIG1_12*%
%TO.N,Net-(DS1-DIG1)*%
X148975000Y-76025130D03*
%TD*%
%TO.P,SW3,1,1_1*%
%TO.N,/button3*%
X127500000Y-116500000D03*
X122500000Y-116500000D03*
%TO.P,SW3,2,2_2*%
%TO.N,GND*%
X127500000Y-111500000D03*
X122500000Y-111500000D03*
%TD*%
%TO.P,SW2,1,1_1*%
%TO.N,/button2*%
X143500000Y-116500000D03*
X138500000Y-116500000D03*
%TO.P,SW2,2,2_2*%
%TO.N,GND*%
X143500000Y-111500000D03*
X138500000Y-111500000D03*
%TD*%
%TO.P,SW1,1,1_1*%
%TO.N,/button1*%
X159500000Y-116500000D03*
X154500000Y-116500000D03*
%TO.P,SW1,2,2_2*%
%TO.N,GND*%
X159500000Y-111500000D03*
X154500000Y-111500000D03*
%TD*%
D29*
%TO.N,/ENABLE*%
X106700000Y-77000000D03*
X106700000Y-86900000D03*
%TO.N,+3.3V*%
X124200000Y-79500000D03*
X168360000Y-83875000D03*
X144200000Y-78600000D03*
X109000000Y-106700000D03*
X123600000Y-119500000D03*
X139600000Y-78600000D03*
X124200000Y-81000000D03*
X149700000Y-78600000D03*
X136000000Y-78600000D03*
%TO.N,GND*%
X117200000Y-100800000D03*
X106000000Y-112800000D03*
X113200000Y-100800000D03*
X107700000Y-106700000D03*
X117200000Y-102800000D03*
X115200000Y-100800000D03*
X117200000Y-98800000D03*
X114500000Y-112800000D03*
X168000000Y-99150000D03*
X115200000Y-98800000D03*
X113200000Y-98800000D03*
X115200000Y-102800000D03*
X107700000Y-89500000D03*
X113200000Y-102800000D03*
%TO.N,/IO0*%
X123267500Y-88932500D03*
X117200002Y-86200000D03*
%TO.N,/TC_ADC*%
X119400000Y-118180000D03*
X114225000Y-110337832D03*
%TO.N,/button2*%
X115400000Y-110000000D03*
%TO.N,/button1*%
X116500000Y-110000000D03*
%TO.N,/button3*%
X118837347Y-112362653D03*
%TO.N,/d1*%
X120445000Y-105500000D03*
X150500000Y-85700000D03*
%TO.N,/e*%
X121715000Y-104300000D03*
X149000000Y-94300000D03*
%TO.N,/CLK*%
X135940000Y-102430000D03*
X133782347Y-102432347D03*
%TO.N,/g*%
X157090331Y-96240331D03*
X137450000Y-98320000D03*
X131540000Y-99200000D03*
%TO.N,/CS*%
X116300000Y-96500000D03*
X116900000Y-117900000D03*
%TO.N,/CS_EXT*%
X132720000Y-116510000D03*
X132720000Y-110590000D03*
X132750000Y-99270000D03*
%TO.N,/d*%
X121790000Y-94400000D03*
X146500000Y-94300000D03*
X153290000Y-95440000D03*
%TO.N,/a*%
X120600000Y-88000000D03*
X146400000Y-71000000D03*
%TO.N,/dp*%
X119300000Y-93600000D03*
X154050000Y-96300000D03*
X143900000Y-94300000D03*
%TO.N,/c*%
X116700000Y-92800000D03*
X155200000Y-97060000D03*
X141400000Y-94300000D03*
%TO.N,/b*%
X111600000Y-87600000D03*
X138900000Y-71000000D03*
%TO.N,/f*%
X112700000Y-86300000D03*
X143900000Y-71000000D03*
%TO.N,Net-(R1-Pad2)*%
X120862653Y-113337347D03*
%TD*%
%TO.N,/ENABLE*%
D30*
X106700000Y-86900000D02*
X106700000Y-77000000D01*
%TO.N,+3.3V*%
D31*
X124200000Y-81000000D02*
X124200000Y-79500000D01*
X116700000Y-119500000D02*
X116700000Y-119990000D01*
X107465000Y-71535000D02*
X108675000Y-71535000D01*
D32*
X151630000Y-78600000D02*
X149700000Y-78600000D01*
X157880000Y-81470000D02*
X154500000Y-81470000D01*
X149700000Y-78600000D02*
X144200000Y-78600000D01*
D31*
X116700000Y-119990000D02*
X109010000Y-127680000D01*
X109000000Y-81000000D02*
X124200000Y-81000000D01*
X109000000Y-85900000D02*
X109000000Y-77500000D01*
D32*
X165540000Y-82330000D02*
X160960000Y-82330000D01*
X158740000Y-82330000D02*
X157880000Y-81470000D01*
D31*
X109000000Y-77500000D02*
X106600000Y-75100000D01*
D32*
X154500000Y-81470000D02*
X151630000Y-78600000D01*
D31*
X106600000Y-72400000D02*
X107465000Y-71535000D01*
X123600000Y-119500000D02*
X116700000Y-119500000D01*
D32*
X139600000Y-78600000D02*
X144200000Y-78600000D01*
D31*
X109000000Y-111800000D02*
X109000000Y-106700000D01*
D32*
X136000000Y-78600000D02*
X139600000Y-78600000D01*
X167085000Y-83875000D02*
X165540000Y-82330000D01*
D31*
X116700000Y-119500000D02*
X109000000Y-111800000D01*
D32*
X165540000Y-82330000D02*
X158740000Y-82330000D01*
D31*
X106600000Y-75100000D02*
X106600000Y-72400000D01*
X109000000Y-106700000D02*
X109000000Y-85900000D01*
D32*
X168360000Y-83875000D02*
X167085000Y-83875000D01*
%TO.N,GND*%
D31*
X168000000Y-99090000D02*
X169370000Y-97720000D01*
X168000000Y-99150000D02*
X168000000Y-99090000D01*
X169360000Y-93750000D02*
X169360000Y-97790000D01*
X173450000Y-89660000D02*
X169360000Y-93750000D01*
X169360000Y-97790000D02*
X168000000Y-99150000D01*
%TO.N,/IO0*%
D30*
X118874695Y-89000000D02*
X123200000Y-89000000D01*
X117200002Y-86200000D02*
X117200002Y-87325307D01*
X117200002Y-87325307D02*
X118874695Y-89000000D01*
X123200000Y-89000000D02*
X123267500Y-88932500D01*
%TO.N,/TC_ADC*%
X114225000Y-110965000D02*
X119400000Y-116140000D01*
X114225000Y-110337832D02*
X114225000Y-110965000D01*
X119400000Y-116140000D02*
X119400000Y-118180000D01*
%TO.N,/button2*%
X120400000Y-114700000D02*
X136700000Y-114700000D01*
X119600000Y-111800000D02*
X119600000Y-113900000D01*
X119600000Y-113900000D02*
X120400000Y-114700000D01*
X138500000Y-116500000D02*
X143500000Y-116500000D01*
X118800000Y-111000000D02*
X119600000Y-111800000D01*
X116400000Y-111000000D02*
X118800000Y-111000000D01*
X136700000Y-114700000D02*
X138500000Y-116500000D01*
X115400000Y-110000000D02*
X116400000Y-111000000D01*
%TO.N,/button1*%
X116900000Y-110400000D02*
X119050000Y-110400000D01*
X154500000Y-116500000D02*
X159500000Y-116500000D01*
X120100000Y-111450000D02*
X120100000Y-113600000D01*
X120600000Y-114100000D02*
X152100000Y-114100000D01*
X116500000Y-110000000D02*
X116900000Y-110400000D01*
X152100000Y-114100000D02*
X154500000Y-116500000D01*
X119050000Y-110400000D02*
X120100000Y-111450000D01*
X120100000Y-113600000D02*
X120600000Y-114100000D01*
%TO.N,/button3*%
X121236902Y-116500000D02*
X122500000Y-116500000D01*
X118837347Y-114100445D02*
X121236902Y-116500000D01*
X122500000Y-116500000D02*
X127500000Y-116500000D01*
X118837347Y-112362653D02*
X118837347Y-114100445D01*
%TO.N,/d1*%
X120445000Y-105500000D02*
X120445000Y-98255000D01*
X145300000Y-96700000D02*
X150500000Y-91500000D01*
X150500000Y-91500000D02*
X150500000Y-85700000D01*
X122000000Y-96700000D02*
X145300000Y-96700000D01*
X120445000Y-98255000D02*
X122000000Y-96700000D01*
%TO.N,/e*%
D33*
X145800000Y-97500000D02*
X149000000Y-94300000D01*
X121715000Y-104300000D02*
X121715000Y-98085000D01*
X121715000Y-98085000D02*
X122300000Y-97500000D01*
X122300000Y-97500000D02*
X145800000Y-97500000D01*
%TO.N,/CLK*%
D30*
X133784694Y-102430000D02*
X133782347Y-102432347D01*
X135940000Y-102430000D02*
X133784694Y-102430000D01*
%TO.N,/g*%
D34*
X132420000Y-98320000D02*
X137450000Y-98320000D01*
X131540000Y-99200000D02*
X132420000Y-98320000D01*
D35*
X137480000Y-98350000D02*
X137450000Y-98320000D01*
X163290000Y-90070000D02*
X157119669Y-96240331D01*
X157119669Y-96240331D02*
X157090331Y-96240331D01*
X163290000Y-89660000D02*
X163290000Y-90070000D01*
%TO.N,/CS*%
D30*
X112300000Y-96500000D02*
X110100000Y-98700000D01*
X116300000Y-96500000D02*
X112300000Y-96500000D01*
X110100000Y-111100000D02*
X116900000Y-117900000D01*
X110100000Y-98700000D02*
X110100000Y-111100000D01*
%TO.N,/CS_EXT*%
X132720000Y-117480000D02*
X124310000Y-125890000D01*
X132720000Y-99300000D02*
X132720000Y-110590000D01*
X120960000Y-125890000D02*
X119170000Y-127680000D01*
X132750000Y-99270000D02*
X132720000Y-99300000D01*
X124310000Y-125890000D02*
X120960000Y-125890000D01*
X132720000Y-116510000D02*
X132720000Y-117480000D01*
%TO.N,/d*%
D33*
X123290000Y-95900000D02*
X144900000Y-95900000D01*
D35*
X160750000Y-89660000D02*
X154970000Y-95440000D01*
D33*
X121790000Y-94400000D02*
X123290000Y-95900000D01*
D35*
X154970000Y-95440000D02*
X153290000Y-95440000D01*
D33*
X144900000Y-95900000D02*
X146500000Y-94300000D01*
%TO.N,/a*%
D30*
X143600000Y-73800000D02*
X146400000Y-71000000D01*
X124500000Y-85400000D02*
X136100000Y-73800000D01*
X136100000Y-73800000D02*
X143600000Y-73800000D01*
X120600000Y-88000000D02*
X123200000Y-85400000D01*
X123200000Y-85400000D02*
X124500000Y-85400000D01*
%TO.N,/dp*%
D33*
X143100000Y-95100000D02*
X123700000Y-95100000D01*
X123700000Y-95100000D02*
X122200000Y-93600000D01*
X143900000Y-94300000D02*
X143100000Y-95100000D01*
X122200000Y-93600000D02*
X119300000Y-93600000D01*
%TO.N,/c*%
D35*
X155200000Y-97060000D02*
X158430000Y-97060000D01*
D33*
X141400000Y-94300000D02*
X124050000Y-94300000D01*
D35*
X158430000Y-97060000D02*
X165830000Y-89660000D01*
D33*
X124050000Y-94300000D02*
X122550000Y-92800000D01*
X122550000Y-92800000D02*
X116700000Y-92800000D01*
%TO.N,/b*%
D30*
X113700000Y-83800000D02*
X123800000Y-83800000D01*
X136600000Y-71000000D02*
X138900000Y-71000000D01*
X111600000Y-85900000D02*
X113700000Y-83800000D01*
X111600000Y-87600000D02*
X111600000Y-85900000D01*
X123800000Y-83800000D02*
X136600000Y-71000000D01*
%TO.N,/f*%
X124200000Y-84600000D02*
X135900000Y-72900000D01*
X142000000Y-72900000D02*
X143900000Y-71000000D01*
X135900000Y-72900000D02*
X142000000Y-72900000D01*
X112700000Y-86300000D02*
X112700000Y-86000000D01*
X114100000Y-84600000D02*
X124200000Y-84600000D01*
X112700000Y-86000000D02*
X114100000Y-84600000D01*
%TO.N,Net-(R1-Pad2)*%
X121025306Y-113500000D02*
X170700000Y-113500000D01*
X170700000Y-113500000D02*
X171100000Y-113900000D01*
X120862653Y-113337347D02*
X121025306Y-113500000D01*
%TO.N,Net-(J2-Pin_1)*%
D36*
X199900000Y-94650000D02*
X199900000Y-89570000D01*
%TO.N,Net-(J2-Pin_2)*%
X199900000Y-102570000D02*
X193720000Y-102570000D01*
X193720000Y-102570000D02*
X185205000Y-94055000D01*
D37*
X185205000Y-94055000D02*
X183200000Y-94055000D01*
%TO.N,Net-(J3-Pin_1)*%
X180660000Y-94055000D02*
X180660000Y-89740000D01*
D36*
X188748320Y-81651680D02*
X199900000Y-81651680D01*
D37*
X180660000Y-96260000D02*
X180660000Y-94055000D01*
D36*
X180660000Y-89740000D02*
X188748320Y-81651680D01*
D37*
X185693807Y-101293807D02*
X180660000Y-96260000D01*
X185693807Y-104139542D02*
X185693807Y-101293807D01*
%TD*%
%TA.AperFunction,Conductor*%
%TO.N,GND*%
G36*
X108064968Y-70518907D02*
G01*
X108100932Y-70568407D01*
X108100932Y-70629593D01*
X108064968Y-70679093D01*
X108061778Y-70681316D01*
X108005345Y-70719022D01*
X107918863Y-70805504D01*
X107864346Y-70833281D01*
X107848860Y-70834500D01*
X107396003Y-70834500D01*
X107260672Y-70861420D01*
X107260670Y-70861420D01*
X107133191Y-70914223D01*
X107018460Y-70990883D01*
X106055883Y-71953460D01*
X106015823Y-72013416D01*
X105979223Y-72068191D01*
X105926420Y-72195670D01*
X105926420Y-72195672D01*
X105912330Y-72266506D01*
X105882433Y-72319890D01*
X105826868Y-72345506D01*
X105766858Y-72333569D01*
X105725326Y-72288639D01*
X105723768Y-72285078D01*
X105712624Y-72258174D01*
X105710449Y-72254407D01*
X105558562Y-71991330D01*
X105529501Y-71953457D01*
X105370996Y-71746889D01*
X105370994Y-71746887D01*
X105370991Y-71746883D01*
X105153117Y-71529009D01*
X105153112Y-71529005D01*
X105153110Y-71529003D01*
X104908673Y-71341440D01*
X104881064Y-71325500D01*
X104641830Y-71187378D01*
X104641825Y-71187375D01*
X104357163Y-71069464D01*
X104153881Y-71014995D01*
X104059544Y-70989718D01*
X104059541Y-70989717D01*
X104059539Y-70989717D01*
X103754060Y-70949500D01*
X103445940Y-70949500D01*
X103445939Y-70949500D01*
X103140463Y-70989717D01*
X103140458Y-70989717D01*
X102842836Y-71069464D01*
X102558174Y-71187375D01*
X102291326Y-71341440D01*
X102046889Y-71529003D01*
X101829003Y-71746889D01*
X101641440Y-71991326D01*
X101487375Y-72258174D01*
X101369464Y-72542836D01*
X101289717Y-72840458D01*
X101289717Y-72840463D01*
X101249500Y-73145939D01*
X101249500Y-73454060D01*
X101289717Y-73759536D01*
X101289717Y-73759541D01*
X101369464Y-74057163D01*
X101487375Y-74341825D01*
X101641440Y-74608673D01*
X101829003Y-74853110D01*
X101829005Y-74853112D01*
X101829009Y-74853117D01*
X102046883Y-75070991D01*
X102046887Y-75070994D01*
X102046889Y-75070996D01*
X102291326Y-75258559D01*
X102291330Y-75258562D01*
X102558170Y-75412622D01*
X102558171Y-75412622D01*
X102558174Y-75412624D01*
X102842836Y-75530535D01*
X103140456Y-75610282D01*
X103445940Y-75650500D01*
X103445941Y-75650500D01*
X103754059Y-75650500D01*
X103754060Y-75650500D01*
X104059544Y-75610282D01*
X104357164Y-75530535D01*
X104641830Y-75412622D01*
X104908670Y-75258562D01*
X105153117Y-75070991D01*
X105370991Y-74853117D01*
X105558562Y-74608670D01*
X105712622Y-74341830D01*
X105712624Y-74341825D01*
X105714242Y-74339023D01*
X105715528Y-74339765D01*
X105754387Y-74299861D01*
X105814687Y-74289488D01*
X105869568Y-74316539D01*
X105898067Y-74370681D01*
X105899500Y-74387466D01*
X105899500Y-75168996D01*
X105926420Y-75304327D01*
X105926420Y-75304329D01*
X105979223Y-75431808D01*
X105979224Y-75431810D01*
X105979225Y-75431811D01*
X106055886Y-75546543D01*
X106439988Y-75930645D01*
X106739839Y-76230496D01*
X106767616Y-76285013D01*
X106758045Y-76345445D01*
X106714780Y-76388710D01*
X106669835Y-76399500D01*
X106620943Y-76399500D01*
X106468216Y-76440423D01*
X106331284Y-76519480D01*
X106219480Y-76631284D01*
X106140423Y-76768216D01*
X106099500Y-76920943D01*
X106099500Y-77079057D01*
X106140423Y-77231784D01*
X106219480Y-77368716D01*
X106331284Y-77480520D01*
X106331286Y-77480521D01*
X106331288Y-77480523D01*
X106335767Y-77483960D01*
X106370423Y-77534384D01*
X106374500Y-77562502D01*
X106374500Y-86337497D01*
X106355593Y-86395688D01*
X106335772Y-86416036D01*
X106331287Y-86419477D01*
X106331284Y-86419480D01*
X106219480Y-86531284D01*
X106140423Y-86668216D01*
X106099500Y-86820943D01*
X106099500Y-86979057D01*
X106140423Y-87131784D01*
X106219480Y-87268716D01*
X106331284Y-87380520D01*
X106468216Y-87459577D01*
X106620943Y-87500500D01*
X106620945Y-87500500D01*
X106779055Y-87500500D01*
X106779057Y-87500500D01*
X106931784Y-87459577D01*
X107068716Y-87380520D01*
X107180520Y-87268716D01*
X107259577Y-87131784D01*
X107300500Y-86979057D01*
X107300500Y-86820943D01*
X107259577Y-86668216D01*
X107180520Y-86531284D01*
X107068716Y-86419480D01*
X107068713Y-86419478D01*
X107068712Y-86419477D01*
X107064228Y-86416036D01*
X107029575Y-86365609D01*
X107025500Y-86337497D01*
X107025500Y-77562502D01*
X107044407Y-77504311D01*
X107064233Y-77483960D01*
X107068711Y-77480523D01*
X107068711Y-77480522D01*
X107068716Y-77480520D01*
X107180520Y-77368716D01*
X107259577Y-77231784D01*
X107300500Y-77079057D01*
X107300500Y-77030165D01*
X107319407Y-76971974D01*
X107368907Y-76936010D01*
X107430093Y-76936010D01*
X107469504Y-76960161D01*
X108270504Y-77761161D01*
X108298281Y-77815678D01*
X108299500Y-77831165D01*
X108299500Y-111868996D01*
X108312595Y-111934827D01*
X108321604Y-111980119D01*
X108326420Y-112004327D01*
X108326420Y-112004329D01*
X108379223Y-112131808D01*
X108379224Y-112131810D01*
X108379225Y-112131811D01*
X108455886Y-112246543D01*
X112223704Y-116014360D01*
X115884339Y-119674995D01*
X115912116Y-119729512D01*
X115902545Y-119789944D01*
X115884339Y-119815003D01*
X109098839Y-126600504D01*
X109044322Y-126628281D01*
X109028835Y-126629500D01*
X108140252Y-126629500D01*
X108140251Y-126629500D01*
X108140241Y-126629501D01*
X108081772Y-126641132D01*
X108081766Y-126641134D01*
X108015451Y-126685445D01*
X108015445Y-126685451D01*
X107971134Y-126751766D01*
X107971132Y-126751772D01*
X107959501Y-126810241D01*
X107959500Y-126810253D01*
X107959500Y-128549746D01*
X107959501Y-128549758D01*
X107971132Y-128608227D01*
X107971134Y-128608233D01*
X108015445Y-128674548D01*
X108015448Y-128674552D01*
X108081769Y-128718867D01*
X108126231Y-128727711D01*
X108140241Y-128730498D01*
X108140246Y-128730498D01*
X108140252Y-128730500D01*
X108140253Y-128730500D01*
X109879747Y-128730500D01*
X109879748Y-128730500D01*
X109938231Y-128718867D01*
X110004552Y-128674552D01*
X110048867Y-128608231D01*
X110060500Y-128549748D01*
X110060500Y-127661164D01*
X110079407Y-127602973D01*
X110089490Y-127591166D01*
X110367539Y-127313117D01*
X110422054Y-127285342D01*
X110482486Y-127294913D01*
X110525751Y-127338178D01*
X110535322Y-127398610D01*
X110534639Y-127402436D01*
X110500000Y-127576579D01*
X110500000Y-127783418D01*
X110540349Y-127986272D01*
X110619501Y-128177360D01*
X110619508Y-128177374D01*
X110734405Y-128349329D01*
X110736826Y-128351750D01*
X111132210Y-127956366D01*
X111149901Y-127987007D01*
X111242993Y-128080099D01*
X111273632Y-128097788D01*
X110878249Y-128493173D01*
X110880670Y-128495594D01*
X111052625Y-128610491D01*
X111052639Y-128610498D01*
X111243727Y-128689650D01*
X111446581Y-128729999D01*
X111446586Y-128730000D01*
X111653414Y-128730000D01*
X111653418Y-128729999D01*
X111856272Y-128689650D01*
X112047360Y-128610498D01*
X112047366Y-128610495D01*
X112219333Y-128495591D01*
X112221750Y-128493173D01*
X111826366Y-128097789D01*
X111857007Y-128080099D01*
X111950099Y-127987007D01*
X111967789Y-127956366D01*
X112363173Y-128351750D01*
X112365591Y-128349333D01*
X112480495Y-128177366D01*
X112480498Y-128177360D01*
X112559650Y-127986272D01*
X112599999Y-127783418D01*
X112600000Y-127783413D01*
X112600000Y-127576585D01*
X112599999Y-127576582D01*
X112599989Y-127576532D01*
X113039500Y-127576532D01*
X113039500Y-127783467D01*
X113079869Y-127986418D01*
X113159058Y-128177597D01*
X113159059Y-128177598D01*
X113274023Y-128349655D01*
X113420345Y-128495977D01*
X113592402Y-128610941D01*
X113783580Y-128690130D01*
X113986535Y-128730500D01*
X113986536Y-128730500D01*
X114193464Y-128730500D01*
X114193465Y-128730500D01*
X114396420Y-128690130D01*
X114587598Y-128610941D01*
X114759655Y-128495977D01*
X114905977Y-128349655D01*
X115020941Y-128177598D01*
X115100130Y-127986420D01*
X115140500Y-127783465D01*
X115140500Y-127576535D01*
X115140499Y-127576532D01*
X115579500Y-127576532D01*
X115579500Y-127783467D01*
X115619869Y-127986418D01*
X115699058Y-128177597D01*
X115699059Y-128177598D01*
X115814023Y-128349655D01*
X115960345Y-128495977D01*
X116132402Y-128610941D01*
X116323580Y-128690130D01*
X116526535Y-128730500D01*
X116526536Y-128730500D01*
X116733464Y-128730500D01*
X116733465Y-128730500D01*
X116936420Y-128690130D01*
X117127598Y-128610941D01*
X117299655Y-128495977D01*
X117445977Y-128349655D01*
X117560941Y-128177598D01*
X117640130Y-127986420D01*
X117680500Y-127783465D01*
X117680500Y-127576535D01*
X117640130Y-127373580D01*
X117560941Y-127182402D01*
X117445977Y-127010345D01*
X117299655Y-126864023D01*
X117219182Y-126810253D01*
X117127597Y-126749058D01*
X116936418Y-126669869D01*
X116733467Y-126629500D01*
X116733465Y-126629500D01*
X116526535Y-126629500D01*
X116526532Y-126629500D01*
X116323581Y-126669869D01*
X116132402Y-126749058D01*
X115960348Y-126864020D01*
X115814020Y-127010348D01*
X115699058Y-127182402D01*
X115619869Y-127373581D01*
X115579500Y-127576532D01*
X115140499Y-127576532D01*
X115100130Y-127373580D01*
X115020941Y-127182402D01*
X114905977Y-127010345D01*
X114759655Y-126864023D01*
X114679182Y-126810253D01*
X114587597Y-126749058D01*
X114396418Y-126669869D01*
X114193467Y-126629500D01*
X114193465Y-126629500D01*
X113986535Y-126629500D01*
X113986532Y-126629500D01*
X113783581Y-126669869D01*
X113592402Y-126749058D01*
X113420348Y-126864020D01*
X113274020Y-127010348D01*
X113159058Y-127182402D01*
X113079869Y-127373581D01*
X113039500Y-127576532D01*
X112599989Y-127576532D01*
X112559650Y-127373727D01*
X112480498Y-127182639D01*
X112480491Y-127182625D01*
X112365594Y-127010670D01*
X112363173Y-127008249D01*
X111967788Y-127403632D01*
X111950099Y-127372993D01*
X111857007Y-127279901D01*
X111826366Y-127262210D01*
X112221750Y-126866826D01*
X112219329Y-126864405D01*
X112047374Y-126749508D01*
X112047360Y-126749501D01*
X111856272Y-126670349D01*
X111653418Y-126630000D01*
X111446579Y-126630000D01*
X111272436Y-126664639D01*
X111211675Y-126657447D01*
X111166746Y-126615914D01*
X111154809Y-126555904D01*
X111180425Y-126500339D01*
X111183094Y-126497562D01*
X114334718Y-123345939D01*
X117649500Y-123345939D01*
X117649500Y-123654060D01*
X117689717Y-123959536D01*
X117689717Y-123959541D01*
X117769464Y-124257163D01*
X117887375Y-124541825D01*
X118041440Y-124808673D01*
X118229003Y-125053110D01*
X118229005Y-125053112D01*
X118229009Y-125053117D01*
X118446883Y-125270991D01*
X118446887Y-125270994D01*
X118446889Y-125270996D01*
X118691326Y-125458559D01*
X118691330Y-125458562D01*
X118958170Y-125612622D01*
X118958171Y-125612622D01*
X118958174Y-125612624D01*
X119185245Y-125706680D01*
X119242836Y-125730535D01*
X119540456Y-125810282D01*
X119845940Y-125850500D01*
X119845941Y-125850500D01*
X120154059Y-125850500D01*
X120154060Y-125850500D01*
X120308410Y-125830179D01*
X120368569Y-125841329D01*
X120410687Y-125885711D01*
X120418673Y-125946373D01*
X120391335Y-125998336D01*
X119695291Y-126694380D01*
X119640774Y-126722157D01*
X119587402Y-126715840D01*
X119476420Y-126669870D01*
X119273467Y-126629500D01*
X119273465Y-126629500D01*
X119066535Y-126629500D01*
X119066532Y-126629500D01*
X118863581Y-126669869D01*
X118672402Y-126749058D01*
X118500348Y-126864020D01*
X118354020Y-127010348D01*
X118239058Y-127182402D01*
X118159869Y-127373581D01*
X118119500Y-127576532D01*
X118119500Y-127783467D01*
X118159869Y-127986418D01*
X118239058Y-128177597D01*
X118239059Y-128177598D01*
X118354023Y-128349655D01*
X118500345Y-128495977D01*
X118672402Y-128610941D01*
X118863580Y-128690130D01*
X119066535Y-128730500D01*
X119066536Y-128730500D01*
X119273464Y-128730500D01*
X119273465Y-128730500D01*
X119476420Y-128690130D01*
X119667598Y-128610941D01*
X119839655Y-128495977D01*
X119985977Y-128349655D01*
X120100941Y-128177598D01*
X120180130Y-127986420D01*
X120220500Y-127783465D01*
X120220500Y-127576535D01*
X120220499Y-127576532D01*
X120659500Y-127576532D01*
X120659500Y-127783467D01*
X120699869Y-127986418D01*
X120779058Y-128177597D01*
X120779059Y-128177598D01*
X120894023Y-128349655D01*
X121040345Y-128495977D01*
X121212402Y-128610941D01*
X121403580Y-128690130D01*
X121606535Y-128730500D01*
X121606536Y-128730500D01*
X121813464Y-128730500D01*
X121813465Y-128730500D01*
X122016420Y-128690130D01*
X122207598Y-128610941D01*
X122379655Y-128495977D01*
X122525977Y-128349655D01*
X122640941Y-128177598D01*
X122720130Y-127986420D01*
X122760500Y-127783465D01*
X122760500Y-127576535D01*
X122720130Y-127373580D01*
X122640941Y-127182402D01*
X122525977Y-127010345D01*
X122379655Y-126864023D01*
X122299182Y-126810253D01*
X122207597Y-126749058D01*
X122016418Y-126669869D01*
X121813467Y-126629500D01*
X121813465Y-126629500D01*
X121606535Y-126629500D01*
X121606532Y-126629500D01*
X121403581Y-126669869D01*
X121212402Y-126749058D01*
X121040348Y-126864020D01*
X120894020Y-127010348D01*
X120779058Y-127182402D01*
X120699869Y-127373581D01*
X120659500Y-127576532D01*
X120220499Y-127576532D01*
X120180130Y-127373580D01*
X120134157Y-127262594D01*
X120129357Y-127201601D01*
X120155619Y-127154707D01*
X121065832Y-126244496D01*
X121120348Y-126216719D01*
X121135835Y-126215500D01*
X124352851Y-126215500D01*
X124352853Y-126215500D01*
X124435639Y-126193318D01*
X124435641Y-126193316D01*
X124435643Y-126193316D01*
X124509857Y-126150468D01*
X124509857Y-126150467D01*
X124509862Y-126150465D01*
X127314388Y-123345939D01*
X162649500Y-123345939D01*
X162649500Y-123654060D01*
X162689717Y-123959536D01*
X162689717Y-123959541D01*
X162769464Y-124257163D01*
X162887375Y-124541825D01*
X163041440Y-124808673D01*
X163229003Y-125053110D01*
X163229005Y-125053112D01*
X163229009Y-125053117D01*
X163446883Y-125270991D01*
X163446887Y-125270994D01*
X163446889Y-125270996D01*
X163691326Y-125458559D01*
X163691330Y-125458562D01*
X163958170Y-125612622D01*
X163958171Y-125612622D01*
X163958174Y-125612624D01*
X164185245Y-125706680D01*
X164242836Y-125730535D01*
X164540456Y-125810282D01*
X164845940Y-125850500D01*
X164845941Y-125850500D01*
X165154059Y-125850500D01*
X165154060Y-125850500D01*
X165459544Y-125810282D01*
X165757164Y-125730535D01*
X166041830Y-125612622D01*
X166308670Y-125458562D01*
X166553117Y-125270991D01*
X166770991Y-125053117D01*
X166958562Y-124808670D01*
X167112622Y-124541830D01*
X167230535Y-124257164D01*
X167310282Y-123959544D01*
X167350500Y-123654060D01*
X167350500Y-123345940D01*
X167310282Y-123040456D01*
X167230535Y-122742836D01*
X167112622Y-122458170D01*
X166958562Y-122191330D01*
X166770991Y-121946883D01*
X166553117Y-121729009D01*
X166553112Y-121729005D01*
X166553110Y-121729003D01*
X166308673Y-121541440D01*
X166041825Y-121387375D01*
X165757163Y-121269464D01*
X165553881Y-121214995D01*
X165459544Y-121189718D01*
X165459541Y-121189717D01*
X165459539Y-121189717D01*
X165154060Y-121149500D01*
X164845940Y-121149500D01*
X164845939Y-121149500D01*
X164540463Y-121189717D01*
X164540458Y-121189717D01*
X164242836Y-121269464D01*
X163958174Y-121387375D01*
X163691326Y-121541440D01*
X163446889Y-121729003D01*
X163229003Y-121946889D01*
X163041440Y-122191326D01*
X162887375Y-122458174D01*
X162769464Y-122742836D01*
X162689717Y-123040458D01*
X162689717Y-123040463D01*
X162649500Y-123345939D01*
X127314388Y-123345939D01*
X132980465Y-117679862D01*
X132987189Y-117668216D01*
X133023316Y-117605643D01*
X133023316Y-117605641D01*
X133023318Y-117605639D01*
X133045500Y-117522853D01*
X133045500Y-117437147D01*
X133045500Y-117072502D01*
X133064407Y-117014311D01*
X133084233Y-116993960D01*
X133088711Y-116990523D01*
X133088711Y-116990522D01*
X133088716Y-116990520D01*
X133200520Y-116878716D01*
X133279577Y-116741784D01*
X133320500Y-116589057D01*
X133320500Y-116430943D01*
X133279577Y-116278216D01*
X133200520Y-116141284D01*
X133088716Y-116029480D01*
X132951784Y-115950423D01*
X132799057Y-115909500D01*
X132640943Y-115909500D01*
X132488216Y-115950423D01*
X132351284Y-116029480D01*
X132239480Y-116141284D01*
X132160423Y-116278216D01*
X132119500Y-116430943D01*
X132119500Y-116589057D01*
X132160423Y-116741784D01*
X132239480Y-116878716D01*
X132351284Y-116990520D01*
X132351286Y-116990521D01*
X132351288Y-116990523D01*
X132355767Y-116993960D01*
X132390423Y-117044384D01*
X132394500Y-117072502D01*
X132394500Y-117304165D01*
X132375593Y-117362356D01*
X132365504Y-117374169D01*
X124204169Y-125535504D01*
X124149652Y-125563281D01*
X124134165Y-125564500D01*
X121462253Y-125564500D01*
X121404062Y-125545593D01*
X121368098Y-125496093D01*
X121368098Y-125434907D01*
X121401986Y-125386958D01*
X121471500Y-125333618D01*
X121553117Y-125270991D01*
X121770991Y-125053117D01*
X121958562Y-124808670D01*
X122112622Y-124541830D01*
X122230535Y-124257164D01*
X122310282Y-123959544D01*
X122350500Y-123654060D01*
X122350500Y-123345940D01*
X122310282Y-123040456D01*
X122230535Y-122742836D01*
X122112622Y-122458170D01*
X121958562Y-122191330D01*
X121770991Y-121946883D01*
X121553117Y-121729009D01*
X121553112Y-121729005D01*
X121553110Y-121729003D01*
X121308673Y-121541440D01*
X121041825Y-121387375D01*
X120757163Y-121269464D01*
X120553881Y-121214995D01*
X120459544Y-121189718D01*
X120459541Y-121189717D01*
X120459539Y-121189717D01*
X120154060Y-121149500D01*
X119845940Y-121149500D01*
X119845939Y-121149500D01*
X119540463Y-121189717D01*
X119540458Y-121189717D01*
X119242836Y-121269464D01*
X118958174Y-121387375D01*
X118691326Y-121541440D01*
X118446889Y-121729003D01*
X118229003Y-121946889D01*
X118041440Y-122191326D01*
X117887375Y-122458174D01*
X117769464Y-122742836D01*
X117689717Y-123040458D01*
X117689717Y-123040463D01*
X117649500Y-123345939D01*
X114334718Y-123345939D01*
X117244114Y-120436543D01*
X117274819Y-120390587D01*
X117320775Y-120321811D01*
X117347766Y-120256646D01*
X117350350Y-120251931D01*
X117368899Y-120234461D01*
X117385445Y-120215089D01*
X117391191Y-120213468D01*
X117394892Y-120209983D01*
X117410722Y-120207960D01*
X117437173Y-120200500D01*
X123668992Y-120200500D01*
X123668993Y-120200500D01*
X123804328Y-120173580D01*
X123931811Y-120120775D01*
X124046542Y-120044114D01*
X124144114Y-119946542D01*
X124220775Y-119831811D01*
X124273580Y-119704328D01*
X124300500Y-119568993D01*
X124300500Y-119431007D01*
X124273580Y-119295672D01*
X124220775Y-119168189D01*
X124220774Y-119168187D01*
X124220771Y-119168182D01*
X124144114Y-119053458D01*
X124046541Y-118955885D01*
X123931817Y-118879228D01*
X123931806Y-118879222D01*
X123804328Y-118826420D01*
X123668995Y-118799500D01*
X123668993Y-118799500D01*
X119868743Y-118799500D01*
X119810552Y-118780593D01*
X119774588Y-118731093D01*
X119774588Y-118669907D01*
X119798737Y-118630498D01*
X119880520Y-118548716D01*
X119959577Y-118411784D01*
X120000500Y-118259057D01*
X120000500Y-118100943D01*
X119959577Y-117948216D01*
X119880520Y-117811284D01*
X119768716Y-117699480D01*
X119768713Y-117699478D01*
X119768712Y-117699477D01*
X119764228Y-117696036D01*
X119729575Y-117645609D01*
X119725500Y-117617497D01*
X119725500Y-116097148D01*
X119725500Y-116097147D01*
X119703318Y-116014362D01*
X119703318Y-116014361D01*
X119703318Y-116014360D01*
X119660468Y-115940142D01*
X119660466Y-115940140D01*
X119660465Y-115940138D01*
X114636198Y-110915871D01*
X114608423Y-110861357D01*
X114617994Y-110800925D01*
X114636198Y-110775869D01*
X114705520Y-110706548D01*
X114784577Y-110569616D01*
X114811160Y-110470404D01*
X114844483Y-110419092D01*
X114901604Y-110397165D01*
X114960705Y-110413000D01*
X114976784Y-110426020D01*
X115031284Y-110480520D01*
X115168216Y-110559577D01*
X115320943Y-110600500D01*
X115320945Y-110600500D01*
X115479056Y-110600500D01*
X115479057Y-110600500D01*
X115479057Y-110600499D01*
X115484652Y-110599763D01*
X115544814Y-110610909D01*
X115567584Y-110627911D01*
X115855548Y-110915874D01*
X116139533Y-111199859D01*
X116139535Y-111199862D01*
X116200138Y-111260465D01*
X116234257Y-111280163D01*
X116268375Y-111299862D01*
X116274360Y-111303317D01*
X116274362Y-111303318D01*
X116357145Y-111325500D01*
X116357147Y-111325501D01*
X116357148Y-111325501D01*
X116448916Y-111325501D01*
X116448932Y-111325500D01*
X118624165Y-111325500D01*
X118682356Y-111344407D01*
X118694169Y-111354496D01*
X118932822Y-111593149D01*
X118960599Y-111647666D01*
X118951028Y-111708098D01*
X118907763Y-111751363D01*
X118862818Y-111762153D01*
X118758290Y-111762153D01*
X118605563Y-111803076D01*
X118468631Y-111882133D01*
X118356827Y-111993937D01*
X118277770Y-112130869D01*
X118236847Y-112283596D01*
X118236847Y-112441710D01*
X118277770Y-112594437D01*
X118356827Y-112731369D01*
X118468631Y-112843173D01*
X118468633Y-112843174D01*
X118468635Y-112843176D01*
X118473114Y-112846613D01*
X118507770Y-112897037D01*
X118511847Y-112925155D01*
X118511847Y-114057592D01*
X118511847Y-114143298D01*
X118531409Y-114216308D01*
X118534030Y-114226088D01*
X118576878Y-114300302D01*
X118576880Y-114300304D01*
X118576882Y-114300307D01*
X121037040Y-116760465D01*
X121037042Y-116760466D01*
X121037044Y-116760468D01*
X121111259Y-116803316D01*
X121111257Y-116803316D01*
X121111261Y-116803317D01*
X121111263Y-116803318D01*
X121194049Y-116825500D01*
X121271553Y-116825500D01*
X121329744Y-116844407D01*
X121365708Y-116893907D01*
X121387453Y-116960832D01*
X121446880Y-117077466D01*
X121473240Y-117129199D01*
X121584310Y-117282073D01*
X121717927Y-117415690D01*
X121870801Y-117526760D01*
X122039168Y-117612547D01*
X122218882Y-117670940D01*
X122218883Y-117670940D01*
X122218886Y-117670941D01*
X122405516Y-117700500D01*
X122405519Y-117700500D01*
X122594484Y-117700500D01*
X122781113Y-117670941D01*
X122781114Y-117670940D01*
X122781118Y-117670940D01*
X122960832Y-117612547D01*
X123129199Y-117526760D01*
X123282073Y-117415690D01*
X123415690Y-117282073D01*
X123526760Y-117129199D01*
X123612547Y-116960832D01*
X123634292Y-116893906D01*
X123670256Y-116844407D01*
X123728447Y-116825500D01*
X126271553Y-116825500D01*
X126329744Y-116844407D01*
X126365708Y-116893907D01*
X126387453Y-116960832D01*
X126446880Y-117077466D01*
X126473240Y-117129199D01*
X126584310Y-117282073D01*
X126717927Y-117415690D01*
X126870801Y-117526760D01*
X127039168Y-117612547D01*
X127218882Y-117670940D01*
X127218883Y-117670940D01*
X127218886Y-117670941D01*
X127405516Y-117700500D01*
X127405519Y-117700500D01*
X127594484Y-117700500D01*
X127781113Y-117670941D01*
X127781114Y-117670940D01*
X127781118Y-117670940D01*
X127960832Y-117612547D01*
X128129199Y-117526760D01*
X128282073Y-117415690D01*
X128415690Y-117282073D01*
X128526760Y-117129199D01*
X128612547Y-116960832D01*
X128670940Y-116781118D01*
X128678769Y-116731688D01*
X128700500Y-116594484D01*
X128700500Y-116405515D01*
X128670941Y-116218886D01*
X128650376Y-116155593D01*
X128612547Y-116039168D01*
X128526760Y-115870801D01*
X128415690Y-115717927D01*
X128282073Y-115584310D01*
X128129199Y-115473240D01*
X128129198Y-115473239D01*
X128129196Y-115473238D01*
X127960832Y-115387453D01*
X127781113Y-115329058D01*
X127594484Y-115299500D01*
X127594481Y-115299500D01*
X127405519Y-115299500D01*
X127405516Y-115299500D01*
X127218886Y-115329058D01*
X127039167Y-115387453D01*
X126870803Y-115473238D01*
X126717928Y-115584309D01*
X126584309Y-115717928D01*
X126473238Y-115870803D01*
X126387453Y-116039167D01*
X126380330Y-116061090D01*
X126368615Y-116097147D01*
X126365708Y-116106093D01*
X126329744Y-116155593D01*
X126271553Y-116174500D01*
X123728447Y-116174500D01*
X123670256Y-116155593D01*
X123634292Y-116106093D01*
X123631386Y-116097148D01*
X123612547Y-116039168D01*
X123526760Y-115870801D01*
X123415690Y-115717927D01*
X123282073Y-115584310D01*
X123129199Y-115473240D01*
X123129198Y-115473239D01*
X123129196Y-115473238D01*
X122960832Y-115387453D01*
X122781113Y-115329058D01*
X122594484Y-115299500D01*
X122594481Y-115299500D01*
X122405519Y-115299500D01*
X122405516Y-115299500D01*
X122218886Y-115329058D01*
X122039167Y-115387453D01*
X121870803Y-115473238D01*
X121717928Y-115584309D01*
X121584309Y-115717928D01*
X121473238Y-115870803D01*
X121398327Y-116017825D01*
X121355062Y-116061090D01*
X121294630Y-116070661D01*
X121240113Y-116042884D01*
X120391733Y-115194504D01*
X120363956Y-115139987D01*
X120373527Y-115079555D01*
X120416792Y-115036290D01*
X120461737Y-115025500D01*
X136524165Y-115025500D01*
X136582356Y-115044407D01*
X136594169Y-115054496D01*
X137401193Y-115861520D01*
X137428970Y-115916037D01*
X137419399Y-115976468D01*
X137387454Y-116039164D01*
X137329058Y-116218886D01*
X137299500Y-116405515D01*
X137299500Y-116594484D01*
X137329058Y-116781113D01*
X137387453Y-116960832D01*
X137446880Y-117077466D01*
X137473240Y-117129199D01*
X137584310Y-117282073D01*
X137717927Y-117415690D01*
X137870801Y-117526760D01*
X138039168Y-117612547D01*
X138218882Y-117670940D01*
X138218883Y-117670940D01*
X138218886Y-117670941D01*
X138405516Y-117700500D01*
X138405519Y-117700500D01*
X138594484Y-117700500D01*
X138781113Y-117670941D01*
X138781114Y-117670940D01*
X138781118Y-117670940D01*
X138960832Y-117612547D01*
X139129199Y-117526760D01*
X139282073Y-117415690D01*
X139415690Y-117282073D01*
X139526760Y-117129199D01*
X139612547Y-116960832D01*
X139634292Y-116893906D01*
X139670256Y-116844407D01*
X139728447Y-116825500D01*
X142271553Y-116825500D01*
X142329744Y-116844407D01*
X142365708Y-116893907D01*
X142387453Y-116960832D01*
X142446880Y-117077466D01*
X142473240Y-117129199D01*
X142584310Y-117282073D01*
X142717927Y-117415690D01*
X142870801Y-117526760D01*
X143039168Y-117612547D01*
X143218882Y-117670940D01*
X143218883Y-117670940D01*
X143218886Y-117670941D01*
X143405516Y-117700500D01*
X143405519Y-117700500D01*
X143594484Y-117700500D01*
X143781113Y-117670941D01*
X143781114Y-117670940D01*
X143781118Y-117670940D01*
X143960832Y-117612547D01*
X144129199Y-117526760D01*
X144282073Y-117415690D01*
X144415690Y-117282073D01*
X144526760Y-117129199D01*
X144612547Y-116960832D01*
X144670940Y-116781118D01*
X144678769Y-116731688D01*
X144700500Y-116594484D01*
X144700500Y-116405515D01*
X144670941Y-116218886D01*
X144650376Y-116155593D01*
X144612547Y-116039168D01*
X144526760Y-115870801D01*
X144415690Y-115717927D01*
X144282073Y-115584310D01*
X144129199Y-115473240D01*
X144129198Y-115473239D01*
X144129196Y-115473238D01*
X143960832Y-115387453D01*
X143781113Y-115329058D01*
X143594484Y-115299500D01*
X143594481Y-115299500D01*
X143405519Y-115299500D01*
X143405516Y-115299500D01*
X143218886Y-115329058D01*
X143039167Y-115387453D01*
X142870803Y-115473238D01*
X142717928Y-115584309D01*
X142584309Y-115717928D01*
X142473238Y-115870803D01*
X142387453Y-116039167D01*
X142380330Y-116061090D01*
X142368615Y-116097147D01*
X142365708Y-116106093D01*
X142329744Y-116155593D01*
X142271553Y-116174500D01*
X139728447Y-116174500D01*
X139670256Y-116155593D01*
X139634292Y-116106093D01*
X139631386Y-116097148D01*
X139612547Y-116039168D01*
X139526760Y-115870801D01*
X139415690Y-115717927D01*
X139282073Y-115584310D01*
X139129199Y-115473240D01*
X139129198Y-115473239D01*
X139129196Y-115473238D01*
X138960832Y-115387453D01*
X138781113Y-115329058D01*
X138594484Y-115299500D01*
X138594481Y-115299500D01*
X138405519Y-115299500D01*
X138405516Y-115299500D01*
X138218886Y-115329058D01*
X138039164Y-115387454D01*
X137976468Y-115419399D01*
X137916036Y-115428970D01*
X137861520Y-115401193D01*
X137463645Y-115003318D01*
X137054828Y-114594501D01*
X137027053Y-114539987D01*
X137036624Y-114479555D01*
X137079889Y-114436290D01*
X137124834Y-114425500D01*
X151924165Y-114425500D01*
X151982356Y-114444407D01*
X151994169Y-114454496D01*
X153401193Y-115861519D01*
X153428970Y-115916036D01*
X153419399Y-115976467D01*
X153387454Y-116039164D01*
X153329058Y-116218886D01*
X153299500Y-116405515D01*
X153299500Y-116594484D01*
X153329058Y-116781113D01*
X153387453Y-116960832D01*
X153446880Y-117077466D01*
X153473240Y-117129199D01*
X153584310Y-117282073D01*
X153717927Y-117415690D01*
X153870801Y-117526760D01*
X154039168Y-117612547D01*
X154218882Y-117670940D01*
X154218883Y-117670940D01*
X154218886Y-117670941D01*
X154405516Y-117700500D01*
X154405519Y-117700500D01*
X154594484Y-117700500D01*
X154781113Y-117670941D01*
X154781114Y-117670940D01*
X154781118Y-117670940D01*
X154960832Y-117612547D01*
X155129199Y-117526760D01*
X155282073Y-117415690D01*
X155415690Y-117282073D01*
X155526760Y-117129199D01*
X155612547Y-116960832D01*
X155634292Y-116893906D01*
X155670256Y-116844407D01*
X155728447Y-116825500D01*
X158271553Y-116825500D01*
X158329744Y-116844407D01*
X158365708Y-116893907D01*
X158387453Y-116960832D01*
X158446880Y-117077466D01*
X158473240Y-117129199D01*
X158584310Y-117282073D01*
X158717927Y-117415690D01*
X158870801Y-117526760D01*
X159039168Y-117612547D01*
X159218882Y-117670940D01*
X159218883Y-117670940D01*
X159218886Y-117670941D01*
X159405516Y-117700500D01*
X159405519Y-117700500D01*
X159594484Y-117700500D01*
X159781113Y-117670941D01*
X159781114Y-117670940D01*
X159781118Y-117670940D01*
X159960832Y-117612547D01*
X160129199Y-117526760D01*
X160282073Y-117415690D01*
X160415690Y-117282073D01*
X160526760Y-117129199D01*
X160612547Y-116960832D01*
X160670940Y-116781118D01*
X160678769Y-116731688D01*
X160700500Y-116594484D01*
X160700500Y-116515044D01*
X160700500Y-116405519D01*
X160690123Y-116339999D01*
X160670941Y-116218886D01*
X160650376Y-116155593D01*
X160612547Y-116039168D01*
X160526760Y-115870801D01*
X160415690Y-115717927D01*
X160282073Y-115584310D01*
X160129199Y-115473240D01*
X160129198Y-115473239D01*
X160129196Y-115473238D01*
X159960832Y-115387453D01*
X159781113Y-115329058D01*
X159594484Y-115299500D01*
X159594481Y-115299500D01*
X159405519Y-115299500D01*
X159405516Y-115299500D01*
X159218886Y-115329058D01*
X159039167Y-115387453D01*
X158870803Y-115473238D01*
X158717928Y-115584309D01*
X158584309Y-115717928D01*
X158473238Y-115870803D01*
X158387453Y-116039167D01*
X158380330Y-116061090D01*
X158368615Y-116097147D01*
X158365708Y-116106093D01*
X158329744Y-116155593D01*
X158271553Y-116174500D01*
X155728447Y-116174500D01*
X155670256Y-116155593D01*
X155634292Y-116106093D01*
X155631386Y-116097148D01*
X155612547Y-116039168D01*
X155526760Y-115870801D01*
X155415690Y-115717927D01*
X155282073Y-115584310D01*
X155129199Y-115473240D01*
X155129198Y-115473239D01*
X155129196Y-115473238D01*
X154960832Y-115387453D01*
X154781113Y-115329058D01*
X154594484Y-115299500D01*
X154594481Y-115299500D01*
X154405519Y-115299500D01*
X154405516Y-115299500D01*
X154218886Y-115329058D01*
X154039164Y-115387454D01*
X153976467Y-115419399D01*
X153916035Y-115428970D01*
X153861519Y-115401193D01*
X153180072Y-114719746D01*
X152454829Y-113994502D01*
X152427053Y-113939987D01*
X152436624Y-113879555D01*
X152479889Y-113836290D01*
X152524834Y-113825500D01*
X169600500Y-113825500D01*
X169658691Y-113844407D01*
X169694655Y-113893907D01*
X169699500Y-113924500D01*
X169699500Y-114719746D01*
X169699501Y-114719758D01*
X169711132Y-114778227D01*
X169711133Y-114778231D01*
X169755448Y-114844552D01*
X169821769Y-114888867D01*
X169866231Y-114897711D01*
X169880241Y-114900498D01*
X169880246Y-114900498D01*
X169880252Y-114900500D01*
X169880253Y-114900500D01*
X172319747Y-114900500D01*
X172319748Y-114900500D01*
X172378231Y-114888867D01*
X172378230Y-114888867D01*
X172381685Y-114888180D01*
X172442446Y-114895370D01*
X172487376Y-114936902D01*
X172500000Y-114985277D01*
X172500000Y-115810293D01*
X172481093Y-115868484D01*
X172431593Y-115904448D01*
X172370407Y-115904448D01*
X172320907Y-115868484D01*
X172318685Y-115865295D01*
X172276751Y-115802537D01*
X172137466Y-115663252D01*
X172137462Y-115663249D01*
X171973685Y-115553814D01*
X171973673Y-115553808D01*
X171791689Y-115478429D01*
X171598493Y-115440000D01*
X171200001Y-115440000D01*
X171200000Y-115440001D01*
X171200000Y-116052684D01*
X171152661Y-116040000D01*
X171047339Y-116040000D01*
X171000000Y-116052684D01*
X171000000Y-115440001D01*
X170999999Y-115440000D01*
X170601506Y-115440000D01*
X170408311Y-115478429D01*
X170408309Y-115478429D01*
X170226326Y-115553808D01*
X170226314Y-115553814D01*
X170062537Y-115663249D01*
X170062533Y-115663252D01*
X169923252Y-115802533D01*
X169923249Y-115802537D01*
X169813814Y-115966314D01*
X169813808Y-115966326D01*
X169738429Y-116148309D01*
X169738429Y-116148311D01*
X169700299Y-116340000D01*
X170712684Y-116340000D01*
X170700000Y-116387339D01*
X170700000Y-116492661D01*
X170712684Y-116540000D01*
X169700300Y-116540000D01*
X169738429Y-116731688D01*
X169738429Y-116731690D01*
X169813808Y-116913673D01*
X169813814Y-116913685D01*
X169923249Y-117077462D01*
X169923252Y-117077466D01*
X170062533Y-117216747D01*
X170062537Y-117216750D01*
X170226314Y-117326185D01*
X170226326Y-117326191D01*
X170408310Y-117401570D01*
X170601506Y-117439999D01*
X170601510Y-117440000D01*
X170999999Y-117440000D01*
X171000000Y-117439999D01*
X171000000Y-116827315D01*
X171047339Y-116840000D01*
X171152661Y-116840000D01*
X171200000Y-116827315D01*
X171200000Y-117439999D01*
X171200001Y-117440000D01*
X171598490Y-117440000D01*
X171598493Y-117439999D01*
X171791688Y-117401570D01*
X171791690Y-117401570D01*
X171973673Y-117326191D01*
X171973685Y-117326185D01*
X172137462Y-117216750D01*
X172137466Y-117216747D01*
X172276747Y-117077466D01*
X172276750Y-117077462D01*
X172318685Y-117014704D01*
X172366735Y-116976825D01*
X172427873Y-116974423D01*
X172478747Y-117008416D01*
X172499924Y-117065820D01*
X172500000Y-117069706D01*
X172500000Y-118349394D01*
X172481093Y-118407585D01*
X172431593Y-118443549D01*
X172370407Y-118443549D01*
X172320907Y-118407585D01*
X172318685Y-118404396D01*
X172315001Y-118398882D01*
X172277139Y-118342218D01*
X172137782Y-118202861D01*
X172028288Y-118129699D01*
X171973913Y-118093367D01*
X171791835Y-118017949D01*
X171598543Y-117979500D01*
X171598541Y-117979500D01*
X170601459Y-117979500D01*
X170601456Y-117979500D01*
X170408165Y-118017949D01*
X170408163Y-118017949D01*
X170226086Y-118093367D01*
X170062218Y-118202861D01*
X170062214Y-118202864D01*
X169922864Y-118342214D01*
X169922861Y-118342218D01*
X169813367Y-118506086D01*
X169737949Y-118688163D01*
X169737949Y-118688165D01*
X169699500Y-118881456D01*
X169699500Y-119078543D01*
X169737949Y-119271834D01*
X169737949Y-119271836D01*
X169813367Y-119453913D01*
X169849699Y-119508288D01*
X169922861Y-119617782D01*
X170062218Y-119757139D01*
X170226086Y-119866632D01*
X170408165Y-119942051D01*
X170601459Y-119980500D01*
X170601460Y-119980500D01*
X171598540Y-119980500D01*
X171598541Y-119980500D01*
X171791835Y-119942051D01*
X171973914Y-119866632D01*
X172137782Y-119757139D01*
X172277139Y-119617782D01*
X172318686Y-119555602D01*
X172366734Y-119517724D01*
X172427872Y-119515322D01*
X172478746Y-119549315D01*
X172499924Y-119606718D01*
X172500000Y-119610605D01*
X172500000Y-129401000D01*
X172481093Y-129459191D01*
X172431593Y-129495155D01*
X172401000Y-129500000D01*
X100599000Y-129500000D01*
X100540809Y-129481093D01*
X100504845Y-129431593D01*
X100500000Y-129401000D01*
X100500000Y-127509335D01*
X100518907Y-127451144D01*
X100568407Y-127415180D01*
X100629593Y-127415180D01*
X100679093Y-127451144D01*
X100688196Y-127466381D01*
X100758047Y-127611430D01*
X100758051Y-127611437D01*
X100758055Y-127611445D01*
X100907477Y-127849248D01*
X101082584Y-128068825D01*
X101281175Y-128267416D01*
X101500752Y-128442523D01*
X101738555Y-128591945D01*
X101738566Y-128591950D01*
X101738569Y-128591952D01*
X101910082Y-128674548D01*
X101991592Y-128713801D01*
X102256682Y-128806560D01*
X102530491Y-128869055D01*
X102809575Y-128900500D01*
X102809576Y-128900500D01*
X104590424Y-128900500D01*
X104590425Y-128900500D01*
X104869509Y-128869055D01*
X105143318Y-128806560D01*
X105408408Y-128713801D01*
X105661445Y-128591945D01*
X105899248Y-128442523D01*
X106118825Y-128267416D01*
X106317416Y-128068825D01*
X106492523Y-127849248D01*
X106641945Y-127611445D01*
X106763801Y-127358408D01*
X106856560Y-127093318D01*
X106919055Y-126819509D01*
X106950500Y-126540425D01*
X106950500Y-126259575D01*
X106919055Y-125980491D01*
X106856560Y-125706682D01*
X106763801Y-125441592D01*
X106691118Y-125290664D01*
X106641952Y-125188569D01*
X106641950Y-125188566D01*
X106641945Y-125188555D01*
X106492523Y-124950752D01*
X106317416Y-124731175D01*
X106118825Y-124532584D01*
X105899248Y-124357477D01*
X105661445Y-124208055D01*
X105661437Y-124208051D01*
X105661430Y-124208047D01*
X105408409Y-124086199D01*
X105408406Y-124086198D01*
X105143319Y-123993440D01*
X104869507Y-123930944D01*
X104590426Y-123899500D01*
X104590425Y-123899500D01*
X102809575Y-123899500D01*
X102809573Y-123899500D01*
X102530492Y-123930944D01*
X102256680Y-123993440D01*
X101991593Y-124086198D01*
X101991590Y-124086199D01*
X101738569Y-124208047D01*
X101738557Y-124208054D01*
X101500751Y-124357477D01*
X101281176Y-124532583D01*
X101082583Y-124731176D01*
X100907477Y-124950751D01*
X100758054Y-125188557D01*
X100758047Y-125188569D01*
X100688196Y-125333618D01*
X100645913Y-125377843D01*
X100585711Y-125388768D01*
X100530585Y-125362221D01*
X100501591Y-125308341D01*
X100500000Y-125290664D01*
X100500000Y-116085515D01*
X101549500Y-116085515D01*
X101549500Y-116274484D01*
X101579058Y-116461113D01*
X101637453Y-116640832D01*
X101708929Y-116781113D01*
X101723240Y-116809199D01*
X101834310Y-116962073D01*
X101967927Y-117095690D01*
X102120801Y-117206760D01*
X102289168Y-117292547D01*
X102422425Y-117335845D01*
X102471925Y-117371809D01*
X102490832Y-117430000D01*
X102471925Y-117488191D01*
X102422425Y-117524154D01*
X102400484Y-117531284D01*
X102289167Y-117567453D01*
X102120803Y-117653238D01*
X101967928Y-117764309D01*
X101834309Y-117897928D01*
X101723238Y-118050803D01*
X101637453Y-118219167D01*
X101579058Y-118398886D01*
X101549500Y-118585515D01*
X101549500Y-118774484D01*
X101579058Y-118961113D01*
X101637453Y-119140832D01*
X101716347Y-119295672D01*
X101723240Y-119309199D01*
X101834310Y-119462073D01*
X101967927Y-119595690D01*
X102120801Y-119706760D01*
X102289168Y-119792547D01*
X102468882Y-119850940D01*
X102468883Y-119850940D01*
X102468886Y-119850941D01*
X102655516Y-119880500D01*
X102655519Y-119880500D01*
X102844484Y-119880500D01*
X103031113Y-119850941D01*
X103031114Y-119850940D01*
X103031118Y-119850940D01*
X103210832Y-119792547D01*
X103379199Y-119706760D01*
X103532073Y-119595690D01*
X103665690Y-119462073D01*
X103776760Y-119309199D01*
X103862547Y-119140832D01*
X103920940Y-118961118D01*
X103933910Y-118879228D01*
X103950500Y-118774484D01*
X103950500Y-118585515D01*
X103920941Y-118398886D01*
X103920940Y-118398882D01*
X103862547Y-118219168D01*
X103776760Y-118050801D01*
X103665690Y-117897927D01*
X103532073Y-117764310D01*
X103379199Y-117653240D01*
X103379198Y-117653239D01*
X103379196Y-117653238D01*
X103210832Y-117567453D01*
X103077572Y-117524154D01*
X103028074Y-117488191D01*
X103009167Y-117430000D01*
X103028074Y-117371809D01*
X103077572Y-117335845D01*
X103210832Y-117292547D01*
X103379199Y-117206760D01*
X103532073Y-117095690D01*
X103665690Y-116962073D01*
X103776760Y-116809199D01*
X103862547Y-116640832D01*
X103920940Y-116461118D01*
X103929747Y-116405515D01*
X103950500Y-116274484D01*
X103950500Y-116085515D01*
X103920941Y-115898886D01*
X103920940Y-115898882D01*
X103862547Y-115719168D01*
X103776760Y-115550801D01*
X103665690Y-115397927D01*
X103532073Y-115264310D01*
X103379199Y-115153240D01*
X103379198Y-115153239D01*
X103379196Y-115153238D01*
X103210832Y-115067453D01*
X103031113Y-115009058D01*
X102844484Y-114979500D01*
X102844481Y-114979500D01*
X102655519Y-114979500D01*
X102655516Y-114979500D01*
X102468886Y-115009058D01*
X102289167Y-115067453D01*
X102120803Y-115153238D01*
X101967928Y-115264309D01*
X101834309Y-115397928D01*
X101723238Y-115550803D01*
X101637453Y-115719167D01*
X101579058Y-115898886D01*
X101549500Y-116085515D01*
X100500000Y-116085515D01*
X100500000Y-110099490D01*
X100518907Y-110041299D01*
X100568407Y-110005335D01*
X100599000Y-110000490D01*
X106000186Y-110000490D01*
X106000187Y-110000490D01*
X106000480Y-110000197D01*
X106000480Y-89624793D01*
X106000187Y-89624500D01*
X106000186Y-89624500D01*
X100599000Y-89624500D01*
X100540809Y-89605593D01*
X100504845Y-89556093D01*
X100500000Y-89525500D01*
X100500000Y-82845726D01*
X102549500Y-82845726D01*
X102549500Y-85154265D01*
X102552353Y-85184694D01*
X102597208Y-85312885D01*
X102677845Y-85422144D01*
X102677847Y-85422146D01*
X102677850Y-85422150D01*
X102677853Y-85422152D01*
X102677855Y-85422154D01*
X102787114Y-85502791D01*
X102787116Y-85502791D01*
X102787118Y-85502793D01*
X102915302Y-85547646D01*
X102945735Y-85550500D01*
X105254264Y-85550499D01*
X105254265Y-85550499D01*
X105260350Y-85549928D01*
X105284698Y-85547646D01*
X105412882Y-85502793D01*
X105522150Y-85422150D01*
X105602793Y-85312882D01*
X105647646Y-85184698D01*
X105650500Y-85154265D01*
X105650499Y-82845736D01*
X105647646Y-82815302D01*
X105602793Y-82687118D01*
X105602791Y-82687116D01*
X105602791Y-82687114D01*
X105522154Y-82577855D01*
X105522152Y-82577853D01*
X105522150Y-82577850D01*
X105522146Y-82577847D01*
X105522144Y-82577845D01*
X105412885Y-82497208D01*
X105398697Y-82492243D01*
X105284698Y-82452354D01*
X105284696Y-82452353D01*
X105284694Y-82452353D01*
X105254272Y-82449500D01*
X102945734Y-82449500D01*
X102915305Y-82452353D01*
X102787114Y-82497208D01*
X102677855Y-82577845D01*
X102677845Y-82577855D01*
X102597208Y-82687114D01*
X102552353Y-82815305D01*
X102549500Y-82845726D01*
X100500000Y-82845726D01*
X100500000Y-79918009D01*
X102539550Y-79918009D01*
X102539550Y-80162070D01*
X102577727Y-80403111D01*
X102653146Y-80635225D01*
X102763942Y-80852677D01*
X102776164Y-80869499D01*
X102907395Y-81050123D01*
X103079967Y-81222695D01*
X103223419Y-81326918D01*
X103277412Y-81366147D01*
X103386138Y-81421545D01*
X103494865Y-81476944D01*
X103726974Y-81552361D01*
X103726975Y-81552361D01*
X103726978Y-81552362D01*
X103968020Y-81590540D01*
X103968023Y-81590540D01*
X104212080Y-81590540D01*
X104453121Y-81552362D01*
X104453122Y-81552361D01*
X104453126Y-81552361D01*
X104685235Y-81476944D01*
X104902689Y-81366146D01*
X105100133Y-81222695D01*
X105272705Y-81050123D01*
X105416156Y-80852679D01*
X105526954Y-80635225D01*
X105602371Y-80403116D01*
X105602372Y-80403111D01*
X105640550Y-80162070D01*
X105640550Y-79918009D01*
X105602372Y-79676968D01*
X105602371Y-79676964D01*
X105526954Y-79444855D01*
X105446739Y-79287423D01*
X105416157Y-79227402D01*
X105289779Y-79053458D01*
X105272705Y-79029957D01*
X105100133Y-78857385D01*
X105010673Y-78792388D01*
X104902687Y-78713932D01*
X104685235Y-78603136D01*
X104453121Y-78527717D01*
X104212080Y-78489540D01*
X104212077Y-78489540D01*
X103968023Y-78489540D01*
X103968020Y-78489540D01*
X103726978Y-78527717D01*
X103494864Y-78603136D01*
X103277412Y-78713932D01*
X103079968Y-78857384D01*
X102907394Y-79029958D01*
X102763942Y-79227402D01*
X102653146Y-79444854D01*
X102577727Y-79676968D01*
X102539550Y-79918009D01*
X100500000Y-79918009D01*
X100500000Y-70599000D01*
X100518907Y-70540809D01*
X100568407Y-70504845D01*
X100599000Y-70500000D01*
X108006777Y-70500000D01*
X108064968Y-70518907D01*
G37*
%TD.AperFunction*%
%TA.AperFunction,Conductor*%
G36*
X110605867Y-70518907D02*
G01*
X110641831Y-70568407D01*
X110641831Y-70629593D01*
X110605867Y-70679093D01*
X110602677Y-70681315D01*
X110545670Y-70719405D01*
X110399405Y-70865670D01*
X110284508Y-71037625D01*
X110284501Y-71037639D01*
X110205349Y-71228727D01*
X110165000Y-71431581D01*
X110165000Y-71434999D01*
X110165001Y-71435000D01*
X110724157Y-71435000D01*
X110715000Y-71469174D01*
X110715000Y-71600826D01*
X110724157Y-71635000D01*
X110165001Y-71635000D01*
X110165000Y-71635001D01*
X110165000Y-71638418D01*
X110205349Y-71841272D01*
X110284501Y-72032360D01*
X110284508Y-72032374D01*
X110399405Y-72204329D01*
X110545670Y-72350594D01*
X110717625Y-72465491D01*
X110717639Y-72465498D01*
X110908727Y-72544650D01*
X111111581Y-72584999D01*
X111111586Y-72585000D01*
X111114999Y-72585000D01*
X111115000Y-72584999D01*
X111115000Y-72025842D01*
X111149174Y-72035000D01*
X111280826Y-72035000D01*
X111315000Y-72025842D01*
X111315000Y-72584999D01*
X111315001Y-72585000D01*
X111318414Y-72585000D01*
X111318418Y-72584999D01*
X111521272Y-72544650D01*
X111712360Y-72465498D01*
X111712374Y-72465491D01*
X111884329Y-72350594D01*
X112030594Y-72204329D01*
X112145491Y-72032374D01*
X112145498Y-72032360D01*
X112224650Y-71841272D01*
X112264999Y-71638418D01*
X112265000Y-71638413D01*
X112265000Y-71635001D01*
X112264999Y-71635000D01*
X111705843Y-71635000D01*
X111715000Y-71600826D01*
X111715000Y-71469174D01*
X111705843Y-71435000D01*
X112264999Y-71435000D01*
X112265000Y-71434999D01*
X112265000Y-71431586D01*
X112264999Y-71431581D01*
X112224650Y-71228727D01*
X112145498Y-71037639D01*
X112145491Y-71037625D01*
X112030594Y-70865670D01*
X111884329Y-70719405D01*
X111827323Y-70681315D01*
X111789443Y-70633266D01*
X111787041Y-70572127D01*
X111821034Y-70521254D01*
X111878437Y-70500076D01*
X111882324Y-70500000D01*
X113086777Y-70500000D01*
X113144968Y-70518907D01*
X113180932Y-70568407D01*
X113180932Y-70629593D01*
X113144968Y-70679093D01*
X113141778Y-70681316D01*
X113085348Y-70719020D01*
X112939020Y-70865348D01*
X112824058Y-71037402D01*
X112744869Y-71228581D01*
X112704500Y-71431532D01*
X112704500Y-71638467D01*
X112744869Y-71841418D01*
X112824058Y-72032597D01*
X112938805Y-72204329D01*
X112939023Y-72204655D01*
X113085345Y-72350977D01*
X113257402Y-72465941D01*
X113448580Y-72545130D01*
X113651535Y-72585500D01*
X113651536Y-72585500D01*
X113858464Y-72585500D01*
X113858465Y-72585500D01*
X114061420Y-72545130D01*
X114252598Y-72465941D01*
X114424655Y-72350977D01*
X114570977Y-72204655D01*
X114685941Y-72032598D01*
X114765130Y-71841420D01*
X114805500Y-71638465D01*
X114805500Y-71431535D01*
X114765130Y-71228580D01*
X114685941Y-71037402D01*
X114570977Y-70865345D01*
X114424655Y-70719023D01*
X114368221Y-70681315D01*
X114330342Y-70633266D01*
X114327940Y-70572128D01*
X114361932Y-70521254D01*
X114419336Y-70500076D01*
X114423223Y-70500000D01*
X136456410Y-70500000D01*
X136514601Y-70518907D01*
X136550565Y-70568407D01*
X136550565Y-70629593D01*
X136514601Y-70679093D01*
X136482035Y-70694625D01*
X136477409Y-70695865D01*
X136474357Y-70696683D01*
X136400138Y-70739534D01*
X136339534Y-70800137D01*
X136339535Y-70800138D01*
X123694169Y-83445504D01*
X123639652Y-83473281D01*
X123624165Y-83474500D01*
X113657147Y-83474500D01*
X113574362Y-83496682D01*
X113500138Y-83539535D01*
X111339531Y-85700142D01*
X111296684Y-85774355D01*
X111296682Y-85774359D01*
X111296682Y-85774361D01*
X111295424Y-85779057D01*
X111276549Y-85849496D01*
X111276550Y-85849497D01*
X111274500Y-85857148D01*
X111274500Y-87037497D01*
X111255593Y-87095688D01*
X111235772Y-87116036D01*
X111231287Y-87119477D01*
X111231284Y-87119480D01*
X111119480Y-87231284D01*
X111040423Y-87368216D01*
X110999500Y-87520943D01*
X110999500Y-87679057D01*
X111040423Y-87831784D01*
X111119480Y-87968716D01*
X111231284Y-88080520D01*
X111368216Y-88159577D01*
X111520943Y-88200500D01*
X111520945Y-88200500D01*
X111679055Y-88200500D01*
X111679057Y-88200500D01*
X111831784Y-88159577D01*
X111968716Y-88080520D01*
X112080520Y-87968716D01*
X112159577Y-87831784D01*
X112200500Y-87679057D01*
X112200500Y-87520943D01*
X112159577Y-87368216D01*
X112080520Y-87231284D01*
X111968716Y-87119480D01*
X111968713Y-87119478D01*
X111968712Y-87119477D01*
X111964228Y-87116036D01*
X111929575Y-87065609D01*
X111925500Y-87037497D01*
X111925500Y-86481659D01*
X111944407Y-86423468D01*
X111993907Y-86387504D01*
X112055093Y-86387504D01*
X112104593Y-86423468D01*
X112120125Y-86456033D01*
X112140423Y-86531784D01*
X112219480Y-86668716D01*
X112331284Y-86780520D01*
X112468216Y-86859577D01*
X112620943Y-86900500D01*
X112620945Y-86900500D01*
X112779055Y-86900500D01*
X112779057Y-86900500D01*
X112931784Y-86859577D01*
X113068716Y-86780520D01*
X113180520Y-86668716D01*
X113259577Y-86531784D01*
X113300500Y-86379057D01*
X113300500Y-86220943D01*
X113259577Y-86068216D01*
X113236261Y-86027832D01*
X113223541Y-85967985D01*
X113248428Y-85912090D01*
X113251996Y-85908330D01*
X114205832Y-84954496D01*
X114260348Y-84926719D01*
X114275835Y-84925500D01*
X123001384Y-84925500D01*
X123059575Y-84944407D01*
X123095539Y-84993907D01*
X123095539Y-85055093D01*
X123059575Y-85104593D01*
X123050884Y-85110236D01*
X123000142Y-85139531D01*
X123000141Y-85139532D01*
X120767583Y-87372088D01*
X120713066Y-87399865D01*
X120684658Y-87400237D01*
X120679059Y-87399500D01*
X120679057Y-87399500D01*
X120520943Y-87399500D01*
X120368216Y-87440423D01*
X120231284Y-87519480D01*
X120119480Y-87631284D01*
X120040423Y-87768216D01*
X119999500Y-87920943D01*
X119999500Y-88079057D01*
X120040423Y-88231784D01*
X120119480Y-88368716D01*
X120231284Y-88480520D01*
X120247296Y-88489764D01*
X120288236Y-88535233D01*
X120294632Y-88596083D01*
X120264039Y-88649071D01*
X120208144Y-88673958D01*
X120197795Y-88674500D01*
X119050529Y-88674500D01*
X118992338Y-88655593D01*
X118980525Y-88645504D01*
X117554498Y-87219476D01*
X117526721Y-87164959D01*
X117525502Y-87149472D01*
X117525502Y-86762502D01*
X117544409Y-86704311D01*
X117564235Y-86683960D01*
X117568713Y-86680523D01*
X117568713Y-86680522D01*
X117568718Y-86680520D01*
X117680522Y-86568716D01*
X117759579Y-86431784D01*
X117800502Y-86279057D01*
X117800502Y-86120943D01*
X117759579Y-85968216D01*
X117680522Y-85831284D01*
X117568718Y-85719480D01*
X117431786Y-85640423D01*
X117279059Y-85599500D01*
X117120945Y-85599500D01*
X116968218Y-85640423D01*
X116831286Y-85719480D01*
X116719482Y-85831284D01*
X116640425Y-85968216D01*
X116599502Y-86120943D01*
X116599502Y-86279057D01*
X116640425Y-86431784D01*
X116719482Y-86568716D01*
X116831286Y-86680520D01*
X116831288Y-86680521D01*
X116831290Y-86680523D01*
X116835769Y-86683960D01*
X116870425Y-86734384D01*
X116874502Y-86762502D01*
X116874502Y-87282454D01*
X116874502Y-87368160D01*
X116882997Y-87399865D01*
X116896685Y-87450950D01*
X116939533Y-87525164D01*
X116939535Y-87525166D01*
X116939537Y-87525169D01*
X118614228Y-89199859D01*
X118614230Y-89199862D01*
X118674833Y-89260465D01*
X118731167Y-89292989D01*
X118749057Y-89303318D01*
X118831840Y-89325500D01*
X118831842Y-89325501D01*
X118831843Y-89325501D01*
X118923611Y-89325501D01*
X118923627Y-89325500D01*
X122770256Y-89325500D01*
X122828447Y-89344407D01*
X122840259Y-89354496D01*
X122898781Y-89413017D01*
X122898784Y-89413020D01*
X123035716Y-89492077D01*
X123188443Y-89533000D01*
X123188445Y-89533000D01*
X123346555Y-89533000D01*
X123346557Y-89533000D01*
X123499284Y-89492077D01*
X123636216Y-89413020D01*
X123748020Y-89301216D01*
X123827077Y-89164284D01*
X123868000Y-89011557D01*
X123868000Y-88853443D01*
X123827077Y-88700716D01*
X123748020Y-88563784D01*
X123636216Y-88451980D01*
X123499284Y-88372923D01*
X123346557Y-88332000D01*
X123188443Y-88332000D01*
X123035716Y-88372923D01*
X122898784Y-88451980D01*
X122786980Y-88563784D01*
X122751636Y-88625001D01*
X122706168Y-88665941D01*
X122665901Y-88674500D01*
X121002205Y-88674500D01*
X120944014Y-88655593D01*
X120908050Y-88606093D01*
X120908050Y-88544907D01*
X120944014Y-88495407D01*
X120952692Y-88489770D01*
X120968716Y-88480520D01*
X121080520Y-88368716D01*
X121159577Y-88231784D01*
X121200500Y-88079057D01*
X121200500Y-87920943D01*
X121200498Y-87920938D01*
X121199762Y-87915344D01*
X121210910Y-87855182D01*
X121227907Y-87832418D01*
X123305831Y-85754496D01*
X123360348Y-85726719D01*
X123375835Y-85725500D01*
X124542851Y-85725500D01*
X124542853Y-85725500D01*
X124625639Y-85703318D01*
X124625641Y-85703316D01*
X124625643Y-85703316D01*
X124699857Y-85660468D01*
X124699857Y-85660467D01*
X124699862Y-85660465D01*
X135112898Y-75247428D01*
X135167413Y-75219653D01*
X135227845Y-75229224D01*
X135271110Y-75272489D01*
X135280681Y-75332921D01*
X135262994Y-75375623D01*
X135248240Y-75395929D01*
X135248239Y-75395931D01*
X135162453Y-75564297D01*
X135104058Y-75744016D01*
X135074500Y-75930645D01*
X135074500Y-76119614D01*
X135104058Y-76306243D01*
X135147656Y-76440423D01*
X135162453Y-76485962D01*
X135248240Y-76654329D01*
X135359310Y-76807203D01*
X135492927Y-76940820D01*
X135645801Y-77051890D01*
X135814168Y-77137677D01*
X135993882Y-77196070D01*
X135993883Y-77196070D01*
X135993886Y-77196071D01*
X136180516Y-77225630D01*
X136180519Y-77225630D01*
X136369484Y-77225630D01*
X136556113Y-77196071D01*
X136556114Y-77196070D01*
X136556118Y-77196070D01*
X136735832Y-77137677D01*
X136904199Y-77051890D01*
X137057073Y-76940820D01*
X137190690Y-76807203D01*
X137301760Y-76654329D01*
X137387547Y-76485962D01*
X137445940Y-76306248D01*
X137445941Y-76306243D01*
X137447219Y-76298176D01*
X137474996Y-76243659D01*
X137529512Y-76215881D01*
X137589944Y-76225452D01*
X137633209Y-76268716D01*
X137642781Y-76298176D01*
X137644058Y-76306243D01*
X137687656Y-76440423D01*
X137702453Y-76485962D01*
X137788240Y-76654329D01*
X137899310Y-76807203D01*
X138032927Y-76940820D01*
X138185801Y-77051890D01*
X138354168Y-77137677D01*
X138533882Y-77196070D01*
X138533883Y-77196070D01*
X138533886Y-77196071D01*
X138720516Y-77225630D01*
X138720519Y-77225630D01*
X138909484Y-77225630D01*
X139096113Y-77196071D01*
X139096114Y-77196070D01*
X139096118Y-77196070D01*
X139275832Y-77137677D01*
X139444199Y-77051890D01*
X139597073Y-76940820D01*
X139730690Y-76807203D01*
X139841760Y-76654329D01*
X139927547Y-76485962D01*
X139985940Y-76306248D01*
X139985941Y-76306243D01*
X139987219Y-76298176D01*
X140014996Y-76243659D01*
X140069512Y-76215881D01*
X140129944Y-76225452D01*
X140173209Y-76268716D01*
X140182781Y-76298176D01*
X140184058Y-76306243D01*
X140227656Y-76440423D01*
X140242453Y-76485962D01*
X140328240Y-76654329D01*
X140439310Y-76807203D01*
X140572927Y-76940820D01*
X140725801Y-77051890D01*
X140894168Y-77137677D01*
X141073882Y-77196070D01*
X141073883Y-77196070D01*
X141073886Y-77196071D01*
X141260516Y-77225630D01*
X141260519Y-77225630D01*
X141449484Y-77225630D01*
X141636113Y-77196071D01*
X141636114Y-77196070D01*
X141636118Y-77196070D01*
X141815832Y-77137677D01*
X141984199Y-77051890D01*
X142137073Y-76940820D01*
X142270690Y-76807203D01*
X142381760Y-76654329D01*
X142467547Y-76485962D01*
X142525940Y-76306248D01*
X142525941Y-76306243D01*
X142527219Y-76298176D01*
X142554996Y-76243659D01*
X142609512Y-76215881D01*
X142669944Y-76225452D01*
X142713209Y-76268716D01*
X142722781Y-76298176D01*
X142724058Y-76306243D01*
X142767656Y-76440423D01*
X142782453Y-76485962D01*
X142868240Y-76654329D01*
X142979310Y-76807203D01*
X143112927Y-76940820D01*
X143265801Y-77051890D01*
X143434168Y-77137677D01*
X143613882Y-77196070D01*
X143613883Y-77196070D01*
X143613886Y-77196071D01*
X143800516Y-77225630D01*
X143800519Y-77225630D01*
X143989484Y-77225630D01*
X144176113Y-77196071D01*
X144176114Y-77196070D01*
X144176118Y-77196070D01*
X144355832Y-77137677D01*
X144524199Y-77051890D01*
X144677073Y-76940820D01*
X144810690Y-76807203D01*
X144921760Y-76654329D01*
X145007547Y-76485962D01*
X145065940Y-76306248D01*
X145065941Y-76306243D01*
X145067219Y-76298176D01*
X145094996Y-76243659D01*
X145149512Y-76215881D01*
X145209944Y-76225452D01*
X145253209Y-76268716D01*
X145262781Y-76298176D01*
X145264058Y-76306243D01*
X145307656Y-76440423D01*
X145322453Y-76485962D01*
X145408240Y-76654329D01*
X145519310Y-76807203D01*
X145652927Y-76940820D01*
X145805801Y-77051890D01*
X145974168Y-77137677D01*
X146153882Y-77196070D01*
X146153883Y-77196070D01*
X146153886Y-77196071D01*
X146340516Y-77225630D01*
X146340519Y-77225630D01*
X146529484Y-77225630D01*
X146716113Y-77196071D01*
X146716114Y-77196070D01*
X146716118Y-77196070D01*
X146895832Y-77137677D01*
X147064199Y-77051890D01*
X147217073Y-76940820D01*
X147350690Y-76807203D01*
X147461760Y-76654329D01*
X147547547Y-76485962D01*
X147605940Y-76306248D01*
X147605941Y-76306243D01*
X147607219Y-76298176D01*
X147634996Y-76243659D01*
X147689512Y-76215881D01*
X147749944Y-76225452D01*
X147793209Y-76268716D01*
X147802781Y-76298176D01*
X147804058Y-76306243D01*
X147847656Y-76440423D01*
X147862453Y-76485962D01*
X147948240Y-76654329D01*
X148059310Y-76807203D01*
X148192927Y-76940820D01*
X148345801Y-77051890D01*
X148514168Y-77137677D01*
X148693882Y-77196070D01*
X148693883Y-77196070D01*
X148693886Y-77196071D01*
X148880516Y-77225630D01*
X148880519Y-77225630D01*
X149069484Y-77225630D01*
X149256113Y-77196071D01*
X149256114Y-77196070D01*
X149256118Y-77196070D01*
X149435832Y-77137677D01*
X149604199Y-77051890D01*
X149757073Y-76940820D01*
X149890690Y-76807203D01*
X150001760Y-76654329D01*
X150087547Y-76485962D01*
X150145940Y-76306248D01*
X150145941Y-76306243D01*
X150175500Y-76119614D01*
X150175500Y-75930645D01*
X150145941Y-75744016D01*
X150145940Y-75744012D01*
X150087547Y-75564298D01*
X150001760Y-75395931D01*
X149890690Y-75243057D01*
X149757073Y-75109440D01*
X149604199Y-74998370D01*
X149604198Y-74998369D01*
X149604196Y-74998368D01*
X149435832Y-74912583D01*
X149256113Y-74854188D01*
X149069484Y-74824630D01*
X149069481Y-74824630D01*
X148880519Y-74824630D01*
X148880516Y-74824630D01*
X148693886Y-74854188D01*
X148514167Y-74912583D01*
X148345803Y-74998368D01*
X148192928Y-75109439D01*
X148059309Y-75243058D01*
X147948238Y-75395933D01*
X147862453Y-75564297D01*
X147804058Y-75744016D01*
X147802781Y-75752084D01*
X147775004Y-75806601D01*
X147720487Y-75834378D01*
X147660055Y-75824807D01*
X147616790Y-75781542D01*
X147607219Y-75752084D01*
X147605941Y-75744016D01*
X147605940Y-75744012D01*
X147547547Y-75564298D01*
X147461760Y-75395931D01*
X147350690Y-75243057D01*
X147217073Y-75109440D01*
X147064199Y-74998370D01*
X147064198Y-74998369D01*
X147064196Y-74998368D01*
X146895832Y-74912583D01*
X146716113Y-74854188D01*
X146529484Y-74824630D01*
X146529481Y-74824630D01*
X146340519Y-74824630D01*
X146340516Y-74824630D01*
X146153886Y-74854188D01*
X145974167Y-74912583D01*
X145805803Y-74998368D01*
X145652928Y-75109439D01*
X145519309Y-75243058D01*
X145408238Y-75395933D01*
X145322453Y-75564297D01*
X145264058Y-75744016D01*
X145262781Y-75752084D01*
X145235004Y-75806601D01*
X145180487Y-75834378D01*
X145120055Y-75824807D01*
X145076790Y-75781542D01*
X145067219Y-75752084D01*
X145065941Y-75744016D01*
X145065940Y-75744012D01*
X145007547Y-75564298D01*
X144921760Y-75395931D01*
X144810690Y-75243057D01*
X144677073Y-75109440D01*
X144524199Y-74998370D01*
X144524198Y-74998369D01*
X144524196Y-74998368D01*
X144355832Y-74912583D01*
X144176113Y-74854188D01*
X143989484Y-74824630D01*
X143989481Y-74824630D01*
X143800519Y-74824630D01*
X143800516Y-74824630D01*
X143613886Y-74854188D01*
X143434167Y-74912583D01*
X143265803Y-74998368D01*
X143112928Y-75109439D01*
X142979309Y-75243058D01*
X142868238Y-75395933D01*
X142782453Y-75564297D01*
X142724058Y-75744016D01*
X142722781Y-75752084D01*
X142695004Y-75806601D01*
X142640487Y-75834378D01*
X142580055Y-75824807D01*
X142536790Y-75781542D01*
X142527219Y-75752084D01*
X142525941Y-75744016D01*
X142525940Y-75744012D01*
X142467547Y-75564298D01*
X142381760Y-75395931D01*
X142270690Y-75243057D01*
X142137073Y-75109440D01*
X141984199Y-74998370D01*
X141984198Y-74998369D01*
X141984196Y-74998368D01*
X141815832Y-74912583D01*
X141636113Y-74854188D01*
X141449484Y-74824630D01*
X141449481Y-74824630D01*
X141260519Y-74824630D01*
X141260516Y-74824630D01*
X141073886Y-74854188D01*
X140894167Y-74912583D01*
X140725803Y-74998368D01*
X140572928Y-75109439D01*
X140439309Y-75243058D01*
X140328238Y-75395933D01*
X140242453Y-75564297D01*
X140184058Y-75744016D01*
X140182781Y-75752084D01*
X140155004Y-75806601D01*
X140100487Y-75834378D01*
X140040055Y-75824807D01*
X139996790Y-75781542D01*
X139987219Y-75752084D01*
X139985941Y-75744016D01*
X139985940Y-75744012D01*
X139927547Y-75564298D01*
X139841760Y-75395931D01*
X139730690Y-75243057D01*
X139597073Y-75109440D01*
X139444199Y-74998370D01*
X139444198Y-74998369D01*
X139444196Y-74998368D01*
X139275832Y-74912583D01*
X139096113Y-74854188D01*
X138909484Y-74824630D01*
X138909481Y-74824630D01*
X138720519Y-74824630D01*
X138720516Y-74824630D01*
X138533886Y-74854188D01*
X138354167Y-74912583D01*
X138185803Y-74998368D01*
X138032928Y-75109439D01*
X137899309Y-75243058D01*
X137788238Y-75395933D01*
X137702453Y-75564297D01*
X137644058Y-75744016D01*
X137642781Y-75752084D01*
X137615004Y-75806601D01*
X137560487Y-75834378D01*
X137500055Y-75824807D01*
X137456790Y-75781542D01*
X137447219Y-75752084D01*
X137445941Y-75744016D01*
X137445940Y-75744012D01*
X137387547Y-75564298D01*
X137301760Y-75395931D01*
X137190690Y-75243057D01*
X137057073Y-75109440D01*
X136904199Y-74998370D01*
X136904198Y-74998369D01*
X136904196Y-74998368D01*
X136735832Y-74912583D01*
X136556113Y-74854188D01*
X136369484Y-74824630D01*
X136369481Y-74824630D01*
X136180519Y-74824630D01*
X136180516Y-74824630D01*
X135993886Y-74854188D01*
X135814167Y-74912583D01*
X135645801Y-74998369D01*
X135645799Y-74998370D01*
X135625493Y-75013124D01*
X135567302Y-75032030D01*
X135509112Y-75013122D01*
X135473149Y-74963621D01*
X135473150Y-74902436D01*
X135497298Y-74863028D01*
X136205831Y-74154496D01*
X136260348Y-74126719D01*
X136275835Y-74125500D01*
X143642851Y-74125500D01*
X143642853Y-74125500D01*
X143725639Y-74103318D01*
X143725641Y-74103316D01*
X143725643Y-74103316D01*
X143799857Y-74060468D01*
X143799857Y-74060467D01*
X143799862Y-74060465D01*
X146232416Y-71627909D01*
X146286931Y-71600134D01*
X146315344Y-71599762D01*
X146320938Y-71600498D01*
X146320943Y-71600500D01*
X146320948Y-71600500D01*
X146479055Y-71600500D01*
X146479057Y-71600500D01*
X146631784Y-71559577D01*
X146768716Y-71480520D01*
X146880520Y-71368716D01*
X146959577Y-71231784D01*
X147000500Y-71079057D01*
X147000500Y-70920943D01*
X146959577Y-70768216D01*
X146890458Y-70648498D01*
X146877738Y-70588651D01*
X146902625Y-70532756D01*
X146955613Y-70502163D01*
X146976196Y-70500000D01*
X168401000Y-70500000D01*
X168459191Y-70518907D01*
X168495155Y-70568407D01*
X168500000Y-70599000D01*
X168500000Y-83175500D01*
X168481093Y-83233691D01*
X168431593Y-83269655D01*
X168401000Y-83274500D01*
X167374743Y-83274500D01*
X167316552Y-83255593D01*
X167304739Y-83245504D01*
X166020521Y-81961286D01*
X166020520Y-81961284D01*
X165908716Y-81849480D01*
X165821904Y-81799360D01*
X165821903Y-81799359D01*
X165771788Y-81770425D01*
X165771785Y-81770423D01*
X165619057Y-81729499D01*
X165460943Y-81729499D01*
X165454880Y-81729499D01*
X165454864Y-81729500D01*
X159029744Y-81729500D01*
X158971553Y-81710593D01*
X158959740Y-81700504D01*
X158360521Y-81101286D01*
X158360520Y-81101284D01*
X158248716Y-80989480D01*
X158248713Y-80989478D01*
X158147438Y-80931007D01*
X158147435Y-80931006D01*
X158111787Y-80910424D01*
X158111786Y-80910423D01*
X158111785Y-80910423D01*
X157959057Y-80869499D01*
X157800943Y-80869499D01*
X157794880Y-80869499D01*
X157794864Y-80869500D01*
X154789743Y-80869500D01*
X154731552Y-80850593D01*
X154719739Y-80840504D01*
X152110521Y-78231286D01*
X152110520Y-78231284D01*
X151998716Y-78119480D01*
X151911904Y-78069360D01*
X151911903Y-78069359D01*
X151861788Y-78040425D01*
X151861785Y-78040423D01*
X151709057Y-77999499D01*
X151550943Y-77999499D01*
X151544880Y-77999499D01*
X151544864Y-77999500D01*
X149779057Y-77999500D01*
X144279057Y-77999500D01*
X139679057Y-77999500D01*
X135920943Y-77999500D01*
X135768216Y-78040423D01*
X135631284Y-78119480D01*
X135519480Y-78231284D01*
X135440423Y-78368216D01*
X135399500Y-78520943D01*
X135399500Y-78679057D01*
X135440423Y-78831784D01*
X135519480Y-78968716D01*
X135631284Y-79080520D01*
X135768216Y-79159577D01*
X135920943Y-79200500D01*
X139520943Y-79200500D01*
X144120943Y-79200500D01*
X149620943Y-79200500D01*
X151340257Y-79200500D01*
X151398448Y-79219407D01*
X151410261Y-79229496D01*
X154019478Y-81838713D01*
X154019480Y-81838716D01*
X154131284Y-81950520D01*
X154131286Y-81950521D01*
X154131289Y-81950524D01*
X154131288Y-81950524D01*
X154218091Y-82000637D01*
X154218093Y-82000639D01*
X154218094Y-82000639D01*
X154247032Y-82017346D01*
X154268215Y-82029577D01*
X154420943Y-82070501D01*
X154420944Y-82070501D01*
X154585120Y-82070501D01*
X154585136Y-82070500D01*
X157590257Y-82070500D01*
X157648448Y-82089407D01*
X157660260Y-82099495D01*
X158371284Y-82810520D01*
X158508216Y-82889577D01*
X158508218Y-82889577D01*
X158508219Y-82889578D01*
X158584579Y-82910039D01*
X158660940Y-82930500D01*
X158660942Y-82930501D01*
X158660943Y-82930501D01*
X158825121Y-82930501D01*
X158825137Y-82930500D01*
X160880943Y-82930500D01*
X165250257Y-82930500D01*
X165308448Y-82949407D01*
X165320261Y-82959496D01*
X166604478Y-84243713D01*
X166604480Y-84243716D01*
X166716284Y-84355520D01*
X166716286Y-84355521D01*
X166716289Y-84355524D01*
X166716288Y-84355524D01*
X166803091Y-84405637D01*
X166803093Y-84405639D01*
X166803094Y-84405639D01*
X166832032Y-84422346D01*
X166853215Y-84434577D01*
X167005943Y-84475501D01*
X167005944Y-84475501D01*
X167170120Y-84475501D01*
X167170136Y-84475500D01*
X168401000Y-84475500D01*
X168459191Y-84494407D01*
X168495155Y-84543907D01*
X168500000Y-84574500D01*
X168500000Y-88510500D01*
X168481093Y-88568691D01*
X168431593Y-88604655D01*
X168401000Y-88609500D01*
X168266532Y-88609500D01*
X168063581Y-88649869D01*
X167872402Y-88729058D01*
X167700348Y-88844020D01*
X167554020Y-88990348D01*
X167439058Y-89162402D01*
X167359869Y-89353581D01*
X167319500Y-89556532D01*
X167319500Y-89763467D01*
X167359869Y-89966418D01*
X167439058Y-90157597D01*
X167439059Y-90157598D01*
X167554023Y-90329655D01*
X167700345Y-90475977D01*
X167872402Y-90590941D01*
X168063580Y-90670130D01*
X168266535Y-90710500D01*
X168266536Y-90710500D01*
X168401000Y-90710500D01*
X168459191Y-90729407D01*
X168495155Y-90778907D01*
X168500000Y-90809500D01*
X168500000Y-98000000D01*
X172471005Y-101971005D01*
X172498781Y-102025520D01*
X172500000Y-102041007D01*
X172500000Y-112814722D01*
X172481093Y-112872913D01*
X172431593Y-112908877D01*
X172381686Y-112911820D01*
X172319750Y-112899500D01*
X172319748Y-112899500D01*
X169880252Y-112899500D01*
X169880251Y-112899500D01*
X169880241Y-112899501D01*
X169821772Y-112911132D01*
X169821766Y-112911134D01*
X169755451Y-112955445D01*
X169755445Y-112955451D01*
X169711134Y-113021766D01*
X169711132Y-113021772D01*
X169699501Y-113080241D01*
X169699024Y-113085088D01*
X169696466Y-113084836D01*
X169680593Y-113133691D01*
X169631093Y-113169655D01*
X169600500Y-113174500D01*
X121516667Y-113174500D01*
X121458476Y-113155593D01*
X121426073Y-113110994D01*
X121424713Y-113111558D01*
X121422231Y-113105565D01*
X121407610Y-113080241D01*
X121343173Y-112968631D01*
X121231369Y-112856827D01*
X121094437Y-112777770D01*
X120941710Y-112736847D01*
X120783596Y-112736847D01*
X120707232Y-112757308D01*
X120630867Y-112777770D01*
X120573999Y-112810603D01*
X120514150Y-112823324D01*
X120458255Y-112798437D01*
X120427663Y-112745448D01*
X120425500Y-112724866D01*
X120425500Y-111407148D01*
X120425500Y-111407147D01*
X120425073Y-111405554D01*
X121300000Y-111405554D01*
X121300000Y-111594445D01*
X121329546Y-111780996D01*
X121387914Y-111960635D01*
X121473667Y-112128936D01*
X121473669Y-112128940D01*
X121581382Y-112277194D01*
X122009005Y-111849570D01*
X122019881Y-111868408D01*
X122131592Y-111980119D01*
X122150427Y-111990993D01*
X121722804Y-112418616D01*
X121871059Y-112526330D01*
X121871063Y-112526332D01*
X122039364Y-112612085D01*
X122219003Y-112670453D01*
X122405555Y-112700000D01*
X122594445Y-112700000D01*
X122780996Y-112670453D01*
X122960635Y-112612085D01*
X123128934Y-112526333D01*
X123277194Y-112418615D01*
X122849572Y-111990993D01*
X122868408Y-111980119D01*
X122980119Y-111868408D01*
X122990993Y-111849572D01*
X123418615Y-112277194D01*
X123526333Y-112128934D01*
X123612085Y-111960635D01*
X123670453Y-111780996D01*
X123700000Y-111594445D01*
X123700000Y-111405554D01*
X126300000Y-111405554D01*
X126300000Y-111594445D01*
X126329546Y-111780996D01*
X126387914Y-111960635D01*
X126473667Y-112128936D01*
X126473669Y-112128940D01*
X126581382Y-112277194D01*
X127009005Y-111849570D01*
X127019881Y-111868408D01*
X127131592Y-111980119D01*
X127150427Y-111990993D01*
X126722804Y-112418616D01*
X126871059Y-112526330D01*
X126871063Y-112526332D01*
X127039364Y-112612085D01*
X127219003Y-112670453D01*
X127405555Y-112700000D01*
X127594445Y-112700000D01*
X127780996Y-112670453D01*
X127960635Y-112612085D01*
X128128934Y-112526333D01*
X128277194Y-112418615D01*
X127849572Y-111990993D01*
X127868408Y-111980119D01*
X127980119Y-111868408D01*
X127990993Y-111849572D01*
X128418615Y-112277194D01*
X128526333Y-112128934D01*
X128612085Y-111960635D01*
X128670453Y-111780996D01*
X128700000Y-111594445D01*
X128700000Y-111405554D01*
X137300000Y-111405554D01*
X137300000Y-111594445D01*
X137329546Y-111780996D01*
X137387914Y-111960635D01*
X137473667Y-112128936D01*
X137473669Y-112128940D01*
X137581382Y-112277194D01*
X138009005Y-111849570D01*
X138019881Y-111868408D01*
X138131592Y-111980119D01*
X138150427Y-111990993D01*
X137722804Y-112418616D01*
X137871059Y-112526330D01*
X137871063Y-112526332D01*
X138039364Y-112612085D01*
X138219003Y-112670453D01*
X138405555Y-112700000D01*
X138594445Y-112700000D01*
X138780996Y-112670453D01*
X138960635Y-112612085D01*
X139128934Y-112526333D01*
X139277194Y-112418615D01*
X138849572Y-111990993D01*
X138868408Y-111980119D01*
X138980119Y-111868408D01*
X138990993Y-111849572D01*
X139418615Y-112277194D01*
X139526333Y-112128934D01*
X139612085Y-111960635D01*
X139670453Y-111780996D01*
X139700000Y-111594445D01*
X139700000Y-111405554D01*
X142300000Y-111405554D01*
X142300000Y-111594445D01*
X142329546Y-111780996D01*
X142387914Y-111960635D01*
X142473667Y-112128936D01*
X142473669Y-112128940D01*
X142581382Y-112277194D01*
X143009005Y-111849570D01*
X143019881Y-111868408D01*
X143131592Y-111980119D01*
X143150427Y-111990993D01*
X142722804Y-112418616D01*
X142871059Y-112526330D01*
X142871063Y-112526332D01*
X143039364Y-112612085D01*
X143219003Y-112670453D01*
X143405555Y-112700000D01*
X143594445Y-112700000D01*
X143780996Y-112670453D01*
X143960635Y-112612085D01*
X144128934Y-112526333D01*
X144277194Y-112418615D01*
X143849572Y-111990993D01*
X143868408Y-111980119D01*
X143980119Y-111868408D01*
X143990993Y-111849572D01*
X144418615Y-112277194D01*
X144526333Y-112128934D01*
X144612085Y-111960635D01*
X144670453Y-111780996D01*
X144700000Y-111594445D01*
X144700000Y-111405554D01*
X153300000Y-111405554D01*
X153300000Y-111594445D01*
X153329546Y-111780996D01*
X153387914Y-111960635D01*
X153473667Y-112128936D01*
X153473669Y-112128940D01*
X153581382Y-112277194D01*
X154009005Y-111849570D01*
X154019881Y-111868408D01*
X154131592Y-111980119D01*
X154150427Y-111990993D01*
X153722804Y-112418616D01*
X153871059Y-112526330D01*
X153871063Y-112526332D01*
X154039364Y-112612085D01*
X154219003Y-112670453D01*
X154405555Y-112700000D01*
X154594445Y-112700000D01*
X154780996Y-112670453D01*
X154960635Y-112612085D01*
X155128934Y-112526333D01*
X155277194Y-112418615D01*
X154849572Y-111990993D01*
X154868408Y-111980119D01*
X154980119Y-111868408D01*
X154990993Y-111849572D01*
X155418615Y-112277194D01*
X155526333Y-112128934D01*
X155612085Y-111960635D01*
X155670453Y-111780996D01*
X155700000Y-111594445D01*
X155700000Y-111405554D01*
X158300000Y-111405554D01*
X158300000Y-111594445D01*
X158329546Y-111780996D01*
X158387914Y-111960635D01*
X158473667Y-112128936D01*
X158473669Y-112128940D01*
X158581382Y-112277194D01*
X159009005Y-111849570D01*
X159019881Y-111868408D01*
X159131592Y-111980119D01*
X159150427Y-111990993D01*
X158722804Y-112418616D01*
X158871059Y-112526330D01*
X158871063Y-112526332D01*
X159039364Y-112612085D01*
X159219003Y-112670453D01*
X159405555Y-112700000D01*
X159594445Y-112700000D01*
X159780996Y-112670453D01*
X159960635Y-112612085D01*
X160128934Y-112526333D01*
X160277194Y-112418615D01*
X159849572Y-111990993D01*
X159868408Y-111980119D01*
X159980119Y-111868408D01*
X159990993Y-111849572D01*
X160418615Y-112277194D01*
X160526333Y-112128934D01*
X160612085Y-111960635D01*
X160670453Y-111780996D01*
X160700000Y-111594445D01*
X160700000Y-111405554D01*
X160670453Y-111219003D01*
X160612085Y-111039364D01*
X160526332Y-110871063D01*
X160526330Y-110871059D01*
X160418616Y-110722804D01*
X159990993Y-111150427D01*
X159980119Y-111131592D01*
X159868408Y-111019881D01*
X159849570Y-111009005D01*
X160277194Y-110581382D01*
X160128940Y-110473669D01*
X160128936Y-110473667D01*
X159960635Y-110387914D01*
X159780996Y-110329546D01*
X159594445Y-110300000D01*
X159405555Y-110300000D01*
X159219003Y-110329546D01*
X159039364Y-110387914D01*
X158871063Y-110473667D01*
X158871059Y-110473669D01*
X158722804Y-110581382D01*
X159150427Y-111009005D01*
X159131592Y-111019881D01*
X159019881Y-111131592D01*
X159009005Y-111150427D01*
X158581382Y-110722804D01*
X158473669Y-110871059D01*
X158473667Y-110871063D01*
X158387914Y-111039364D01*
X158329546Y-111219003D01*
X158300000Y-111405554D01*
X155700000Y-111405554D01*
X155670453Y-111219003D01*
X155612085Y-111039364D01*
X155526332Y-110871063D01*
X155526330Y-110871059D01*
X155418616Y-110722804D01*
X154990993Y-111150427D01*
X154980119Y-111131592D01*
X154868408Y-111019881D01*
X154849570Y-111009005D01*
X155277194Y-110581382D01*
X155128940Y-110473669D01*
X155128936Y-110473667D01*
X154960635Y-110387914D01*
X154780996Y-110329546D01*
X154594445Y-110300000D01*
X154405555Y-110300000D01*
X154219003Y-110329546D01*
X154039364Y-110387914D01*
X153871063Y-110473667D01*
X153871059Y-110473669D01*
X153722804Y-110581382D01*
X154150427Y-111009005D01*
X154131592Y-111019881D01*
X154019881Y-111131592D01*
X154009005Y-111150427D01*
X153581382Y-110722804D01*
X153473669Y-110871059D01*
X153473667Y-110871063D01*
X153387914Y-111039364D01*
X153329546Y-111219003D01*
X153300000Y-111405554D01*
X144700000Y-111405554D01*
X144670453Y-111219003D01*
X144612085Y-111039364D01*
X144526332Y-110871063D01*
X144526330Y-110871059D01*
X144418616Y-110722804D01*
X143990993Y-111150427D01*
X143980119Y-111131592D01*
X143868408Y-111019881D01*
X143849570Y-111009005D01*
X144277194Y-110581382D01*
X144128940Y-110473669D01*
X144128936Y-110473667D01*
X143960635Y-110387914D01*
X143780996Y-110329546D01*
X143594445Y-110300000D01*
X143405555Y-110300000D01*
X143219003Y-110329546D01*
X143039364Y-110387914D01*
X142871063Y-110473667D01*
X142871059Y-110473669D01*
X142722804Y-110581382D01*
X143150427Y-111009005D01*
X143131592Y-111019881D01*
X143019881Y-111131592D01*
X143009005Y-111150427D01*
X142581382Y-110722804D01*
X142473669Y-110871059D01*
X142473667Y-110871063D01*
X142387914Y-111039364D01*
X142329546Y-111219003D01*
X142300000Y-111405554D01*
X139700000Y-111405554D01*
X139670453Y-111219003D01*
X139612085Y-111039364D01*
X139526332Y-110871063D01*
X139526330Y-110871059D01*
X139418616Y-110722804D01*
X138990993Y-111150427D01*
X138980119Y-111131592D01*
X138868408Y-111019881D01*
X138849570Y-111009005D01*
X139277194Y-110581382D01*
X139128940Y-110473669D01*
X139128936Y-110473667D01*
X138960635Y-110387914D01*
X138780996Y-110329546D01*
X138594445Y-110300000D01*
X138405555Y-110300000D01*
X138219003Y-110329546D01*
X138039364Y-110387914D01*
X137871063Y-110473667D01*
X137871059Y-110473669D01*
X137722804Y-110581382D01*
X138150427Y-111009005D01*
X138131592Y-111019881D01*
X138019881Y-111131592D01*
X138009005Y-111150427D01*
X137581382Y-110722804D01*
X137473669Y-110871059D01*
X137473667Y-110871063D01*
X137387914Y-111039364D01*
X137329546Y-111219003D01*
X137300000Y-111405554D01*
X128700000Y-111405554D01*
X128670453Y-111219003D01*
X128612085Y-111039364D01*
X128526332Y-110871063D01*
X128526330Y-110871059D01*
X128418616Y-110722804D01*
X127990993Y-111150427D01*
X127980119Y-111131592D01*
X127868408Y-111019881D01*
X127849570Y-111009005D01*
X128277194Y-110581382D01*
X128128940Y-110473669D01*
X128128936Y-110473667D01*
X127960635Y-110387914D01*
X127780996Y-110329546D01*
X127594445Y-110300000D01*
X127405555Y-110300000D01*
X127219003Y-110329546D01*
X127039364Y-110387914D01*
X126871063Y-110473667D01*
X126871059Y-110473669D01*
X126722804Y-110581382D01*
X127150427Y-111009005D01*
X127131592Y-111019881D01*
X127019881Y-111131592D01*
X127009005Y-111150427D01*
X126581382Y-110722804D01*
X126473669Y-110871059D01*
X126473667Y-110871063D01*
X126387914Y-111039364D01*
X126329546Y-111219003D01*
X126300000Y-111405554D01*
X123700000Y-111405554D01*
X123670453Y-111219003D01*
X123612085Y-111039364D01*
X123526332Y-110871063D01*
X123526330Y-110871059D01*
X123418616Y-110722804D01*
X122990993Y-111150427D01*
X122980119Y-111131592D01*
X122868408Y-111019881D01*
X122849570Y-111009005D01*
X123277194Y-110581382D01*
X123128940Y-110473669D01*
X123128936Y-110473667D01*
X122960635Y-110387914D01*
X122780996Y-110329546D01*
X122594445Y-110300000D01*
X122405555Y-110300000D01*
X122219003Y-110329546D01*
X122039364Y-110387914D01*
X121871063Y-110473667D01*
X121871059Y-110473669D01*
X121722804Y-110581382D01*
X122150427Y-111009005D01*
X122131592Y-111019881D01*
X122019881Y-111131592D01*
X122009005Y-111150427D01*
X121581382Y-110722804D01*
X121473669Y-110871059D01*
X121473667Y-110871063D01*
X121387914Y-111039364D01*
X121329546Y-111219003D01*
X121300000Y-111405554D01*
X120425073Y-111405554D01*
X120403318Y-111324362D01*
X120403318Y-111324361D01*
X120403318Y-111324360D01*
X120360468Y-111250142D01*
X120360466Y-111250140D01*
X120360465Y-111250138D01*
X119249862Y-110139535D01*
X119249859Y-110139533D01*
X119249857Y-110139531D01*
X119175642Y-110096683D01*
X119175644Y-110096683D01*
X119130282Y-110084529D01*
X119092853Y-110074500D01*
X119092851Y-110074500D01*
X117199500Y-110074500D01*
X117141309Y-110055593D01*
X117105345Y-110006093D01*
X117100500Y-109975500D01*
X117100500Y-109920944D01*
X117100500Y-109920943D01*
X117059577Y-109768216D01*
X116980520Y-109631284D01*
X116868716Y-109519480D01*
X116731784Y-109440423D01*
X116579057Y-109399500D01*
X116420943Y-109399500D01*
X116268216Y-109440423D01*
X116131284Y-109519480D01*
X116020001Y-109630762D01*
X115965487Y-109658538D01*
X115905055Y-109648967D01*
X115879999Y-109630763D01*
X115768716Y-109519480D01*
X115631784Y-109440423D01*
X115479057Y-109399500D01*
X115320943Y-109399500D01*
X115168216Y-109440423D01*
X115031284Y-109519480D01*
X114919480Y-109631284D01*
X114840423Y-109768215D01*
X114813840Y-109867426D01*
X114780515Y-109918740D01*
X114723394Y-109940666D01*
X114664293Y-109924830D01*
X114648214Y-109911810D01*
X114593716Y-109857312D01*
X114456784Y-109778255D01*
X114304057Y-109737332D01*
X114145943Y-109737332D01*
X113993216Y-109778255D01*
X113856284Y-109857312D01*
X113744480Y-109969116D01*
X113665423Y-110106048D01*
X113624500Y-110258775D01*
X113624500Y-110416889D01*
X113665423Y-110569616D01*
X113744480Y-110706548D01*
X113856284Y-110818352D01*
X113856286Y-110818353D01*
X113856288Y-110818355D01*
X113860767Y-110821792D01*
X113895423Y-110872216D01*
X113899500Y-110900334D01*
X113899500Y-110922147D01*
X113899500Y-111007853D01*
X113902723Y-111019881D01*
X113921683Y-111090643D01*
X113964531Y-111164857D01*
X113964533Y-111164859D01*
X113964535Y-111164862D01*
X119045505Y-116245832D01*
X119073281Y-116300347D01*
X119074500Y-116315834D01*
X119074500Y-117617497D01*
X119055593Y-117675688D01*
X119035772Y-117696036D01*
X119031287Y-117699477D01*
X119031284Y-117699480D01*
X118919480Y-117811284D01*
X118840423Y-117948216D01*
X118799500Y-118100943D01*
X118799500Y-118259057D01*
X118840423Y-118411784D01*
X118919480Y-118548716D01*
X119001262Y-118630498D01*
X119029038Y-118685013D01*
X119019467Y-118745445D01*
X118976202Y-118788710D01*
X118931257Y-118799500D01*
X117031164Y-118799500D01*
X117023566Y-118797031D01*
X117015677Y-118798281D01*
X116995021Y-118787756D01*
X116972973Y-118780593D01*
X116961160Y-118770504D01*
X116860160Y-118669504D01*
X116832383Y-118614987D01*
X116841954Y-118554555D01*
X116885219Y-118511290D01*
X116930164Y-118500500D01*
X116979055Y-118500500D01*
X116979057Y-118500500D01*
X117131784Y-118459577D01*
X117268716Y-118380520D01*
X117380520Y-118268716D01*
X117459577Y-118131784D01*
X117500500Y-117979057D01*
X117500500Y-117820943D01*
X117459577Y-117668216D01*
X117380520Y-117531284D01*
X117268716Y-117419480D01*
X117131784Y-117340423D01*
X116979057Y-117299500D01*
X116820943Y-117299500D01*
X116820941Y-117299500D01*
X116815338Y-117300238D01*
X116755177Y-117289085D01*
X116732415Y-117272088D01*
X110454496Y-110994169D01*
X110426719Y-110939652D01*
X110425500Y-110924165D01*
X110425500Y-98875834D01*
X110444407Y-98817643D01*
X110454496Y-98805830D01*
X112405830Y-96854496D01*
X112460347Y-96826719D01*
X112475834Y-96825500D01*
X115737498Y-96825500D01*
X115795689Y-96844407D01*
X115816040Y-96864233D01*
X115819476Y-96868711D01*
X115819478Y-96868713D01*
X115819480Y-96868716D01*
X115931284Y-96980520D01*
X116068216Y-97059577D01*
X116220943Y-97100500D01*
X116220945Y-97100500D01*
X116379055Y-97100500D01*
X116379057Y-97100500D01*
X116531784Y-97059577D01*
X116668716Y-96980520D01*
X116780520Y-96868716D01*
X116859577Y-96731784D01*
X116900500Y-96579057D01*
X116900500Y-96420943D01*
X116859577Y-96268216D01*
X116780520Y-96131284D01*
X116668716Y-96019480D01*
X116531784Y-95940423D01*
X116379057Y-95899500D01*
X116220943Y-95899500D01*
X116073527Y-95939000D01*
X116068216Y-95940423D01*
X115931284Y-96019480D01*
X115819476Y-96131288D01*
X115816040Y-96135767D01*
X115765616Y-96170423D01*
X115737498Y-96174500D01*
X112342853Y-96174500D01*
X112257147Y-96174500D01*
X112174361Y-96196682D01*
X112174359Y-96196682D01*
X112174359Y-96196683D01*
X112159641Y-96205181D01*
X112159640Y-96205180D01*
X112100136Y-96239535D01*
X112039534Y-96300137D01*
X112039535Y-96300138D01*
X109869504Y-98470169D01*
X109814987Y-98497946D01*
X109754555Y-98488375D01*
X109711290Y-98445110D01*
X109700500Y-98400165D01*
X109700500Y-92720943D01*
X116099500Y-92720943D01*
X116099500Y-92879057D01*
X116140423Y-93031784D01*
X116219480Y-93168716D01*
X116331284Y-93280520D01*
X116468216Y-93359577D01*
X116620943Y-93400500D01*
X116620945Y-93400500D01*
X116779055Y-93400500D01*
X116779057Y-93400500D01*
X116931784Y-93359577D01*
X117068716Y-93280520D01*
X117180520Y-93168716D01*
X117180522Y-93168711D01*
X117180524Y-93168710D01*
X117182423Y-93166236D01*
X117184265Y-93164969D01*
X117185108Y-93164127D01*
X117185264Y-93164283D01*
X117232846Y-93131578D01*
X117260967Y-93127500D01*
X118707927Y-93127500D01*
X118766118Y-93146407D01*
X118802082Y-93195907D01*
X118802082Y-93257093D01*
X118793665Y-93275995D01*
X118740423Y-93368216D01*
X118699500Y-93520943D01*
X118699500Y-93679057D01*
X118740423Y-93831784D01*
X118819480Y-93968716D01*
X118931284Y-94080520D01*
X119068216Y-94159577D01*
X119220943Y-94200500D01*
X119220945Y-94200500D01*
X119379055Y-94200500D01*
X119379057Y-94200500D01*
X119531784Y-94159577D01*
X119668716Y-94080520D01*
X119780520Y-93968716D01*
X119780522Y-93968711D01*
X119780524Y-93968710D01*
X119782423Y-93966236D01*
X119784265Y-93964969D01*
X119785108Y-93964127D01*
X119785264Y-93964283D01*
X119832846Y-93931578D01*
X119860967Y-93927500D01*
X121197927Y-93927500D01*
X121256118Y-93946407D01*
X121292082Y-93995907D01*
X121292082Y-94057093D01*
X121283665Y-94075995D01*
X121230423Y-94168216D01*
X121189500Y-94320943D01*
X121189500Y-94479057D01*
X121230423Y-94631784D01*
X121309480Y-94768716D01*
X121421284Y-94880520D01*
X121558216Y-94959577D01*
X121710943Y-95000500D01*
X121710945Y-95000500D01*
X121869055Y-95000500D01*
X121869057Y-95000500D01*
X121869058Y-95000499D01*
X121872152Y-95000092D01*
X121874354Y-95000500D01*
X121875546Y-95000500D01*
X121875546Y-95000720D01*
X121932313Y-95011238D01*
X121955085Y-95028240D01*
X123088910Y-96162065D01*
X123136887Y-96189764D01*
X123177827Y-96235233D01*
X123184223Y-96296083D01*
X123153630Y-96349071D01*
X123097734Y-96373958D01*
X123087386Y-96374500D01*
X122042853Y-96374500D01*
X121957147Y-96374500D01*
X121906478Y-96388076D01*
X121874356Y-96396683D01*
X121800142Y-96439531D01*
X120184531Y-98055142D01*
X120141683Y-98129357D01*
X120141681Y-98129361D01*
X120132021Y-98165411D01*
X120132022Y-98165412D01*
X120119500Y-98212147D01*
X120119500Y-104937497D01*
X120100593Y-104995688D01*
X120080772Y-105016036D01*
X120076287Y-105019477D01*
X120076284Y-105019480D01*
X119964480Y-105131284D01*
X119885423Y-105268216D01*
X119844500Y-105420943D01*
X119844500Y-105579057D01*
X119885423Y-105731784D01*
X119964480Y-105868716D01*
X120076284Y-105980520D01*
X120213216Y-106059577D01*
X120365943Y-106100500D01*
X120365945Y-106100500D01*
X120524055Y-106100500D01*
X120524057Y-106100500D01*
X120676784Y-106059577D01*
X120813716Y-105980520D01*
X120925520Y-105868716D01*
X121004577Y-105731784D01*
X121045500Y-105579057D01*
X121045500Y-105420943D01*
X121004577Y-105268216D01*
X120925520Y-105131284D01*
X120813716Y-105019480D01*
X120813713Y-105019478D01*
X120813712Y-105019477D01*
X120809228Y-105016036D01*
X120774575Y-104965609D01*
X120770500Y-104937497D01*
X120770500Y-98430835D01*
X120789407Y-98372644D01*
X120799496Y-98360832D01*
X121224724Y-97935603D01*
X121279241Y-97907825D01*
X121339673Y-97917396D01*
X121382938Y-97960661D01*
X121392509Y-98021093D01*
X121390355Y-98031228D01*
X121387500Y-98041883D01*
X121387500Y-103739032D01*
X121368593Y-103797223D01*
X121348771Y-103817571D01*
X121346290Y-103819474D01*
X121346284Y-103819480D01*
X121234480Y-103931284D01*
X121155423Y-104068216D01*
X121114500Y-104220943D01*
X121114500Y-104379057D01*
X121155423Y-104531784D01*
X121234480Y-104668716D01*
X121346284Y-104780520D01*
X121483216Y-104859577D01*
X121635943Y-104900500D01*
X121635945Y-104900500D01*
X121794055Y-104900500D01*
X121794057Y-104900500D01*
X121946784Y-104859577D01*
X122083716Y-104780520D01*
X122195520Y-104668716D01*
X122274577Y-104531784D01*
X122315500Y-104379057D01*
X122315500Y-104220943D01*
X122274577Y-104068216D01*
X122195520Y-103931284D01*
X122083716Y-103819480D01*
X122083713Y-103819478D01*
X122083709Y-103819474D01*
X122081229Y-103817571D01*
X122079961Y-103815726D01*
X122079127Y-103814892D01*
X122079281Y-103814737D01*
X122046576Y-103767145D01*
X122042500Y-103739032D01*
X122042500Y-98261663D01*
X122061407Y-98203472D01*
X122071496Y-98191659D01*
X122406659Y-97856496D01*
X122461176Y-97828719D01*
X122476663Y-97827500D01*
X132107100Y-97827500D01*
X132165291Y-97846407D01*
X132201255Y-97895907D01*
X132201255Y-97957093D01*
X132177104Y-97996504D01*
X132174089Y-97999518D01*
X132174087Y-97999520D01*
X131812775Y-98360832D01*
X131603103Y-98570504D01*
X131548586Y-98598281D01*
X131533099Y-98599500D01*
X131460943Y-98599500D01*
X131308216Y-98640423D01*
X131171284Y-98719480D01*
X131059480Y-98831284D01*
X130980423Y-98968216D01*
X130939500Y-99120943D01*
X130939500Y-99279057D01*
X130980423Y-99431784D01*
X131059480Y-99568716D01*
X131171284Y-99680520D01*
X131308216Y-99759577D01*
X131460943Y-99800500D01*
X131460945Y-99800500D01*
X131619055Y-99800500D01*
X131619057Y-99800500D01*
X131771784Y-99759577D01*
X131908716Y-99680520D01*
X132020520Y-99568716D01*
X132039057Y-99536607D01*
X132084523Y-99495669D01*
X132145373Y-99489272D01*
X132198362Y-99519863D01*
X132210528Y-99536609D01*
X132269478Y-99638713D01*
X132269480Y-99638716D01*
X132365505Y-99734741D01*
X132393281Y-99789256D01*
X132394500Y-99804743D01*
X132394500Y-110027497D01*
X132375593Y-110085688D01*
X132355772Y-110106036D01*
X132351287Y-110109477D01*
X132351284Y-110109480D01*
X132239480Y-110221284D01*
X132160423Y-110358216D01*
X132119500Y-110510943D01*
X132119500Y-110669057D01*
X132160423Y-110821784D01*
X132239480Y-110958716D01*
X132351284Y-111070520D01*
X132488216Y-111149577D01*
X132640943Y-111190500D01*
X132640945Y-111190500D01*
X132799055Y-111190500D01*
X132799057Y-111190500D01*
X132951784Y-111149577D01*
X133088716Y-111070520D01*
X133200520Y-110958716D01*
X133279577Y-110821784D01*
X133320500Y-110669057D01*
X133320500Y-110510943D01*
X133279577Y-110358216D01*
X133200520Y-110221284D01*
X133088716Y-110109480D01*
X133088713Y-110109478D01*
X133088712Y-110109477D01*
X133084228Y-110106036D01*
X133049575Y-110055609D01*
X133045500Y-110027497D01*
X133045500Y-102726563D01*
X133064407Y-102668372D01*
X133113907Y-102632408D01*
X133175093Y-102632408D01*
X133224593Y-102668372D01*
X133230230Y-102677052D01*
X133301827Y-102801063D01*
X133413631Y-102912867D01*
X133550563Y-102991924D01*
X133703290Y-103032847D01*
X133703292Y-103032847D01*
X133861402Y-103032847D01*
X133861404Y-103032847D01*
X134014131Y-102991924D01*
X134151063Y-102912867D01*
X134262867Y-102801063D01*
X134262870Y-102801057D01*
X134266818Y-102795914D01*
X134268904Y-102797514D01*
X134306077Y-102764053D01*
X134346331Y-102755500D01*
X135377498Y-102755500D01*
X135435689Y-102774407D01*
X135456040Y-102794233D01*
X135459476Y-102798711D01*
X135459478Y-102798713D01*
X135459480Y-102798716D01*
X135571284Y-102910520D01*
X135708216Y-102989577D01*
X135860943Y-103030500D01*
X135860945Y-103030500D01*
X136019055Y-103030500D01*
X136019057Y-103030500D01*
X136171784Y-102989577D01*
X136308716Y-102910520D01*
X136420520Y-102798716D01*
X136499577Y-102661784D01*
X136540500Y-102509057D01*
X136540500Y-102350943D01*
X136499577Y-102198216D01*
X136420520Y-102061284D01*
X136308716Y-101949480D01*
X136171784Y-101870423D01*
X136019057Y-101829500D01*
X135860943Y-101829500D01*
X135708216Y-101870423D01*
X135571284Y-101949480D01*
X135459476Y-102061288D01*
X135456040Y-102065767D01*
X135405616Y-102100423D01*
X135377498Y-102104500D01*
X134343048Y-102104500D01*
X134284857Y-102085593D01*
X134264505Y-102065766D01*
X134262869Y-102063634D01*
X134262868Y-102063633D01*
X134262867Y-102063631D01*
X134151063Y-101951827D01*
X134014131Y-101872770D01*
X133861404Y-101831847D01*
X133703290Y-101831847D01*
X133550563Y-101872770D01*
X133413631Y-101951827D01*
X133301827Y-102063631D01*
X133244171Y-102163496D01*
X133230237Y-102187630D01*
X133184767Y-102228571D01*
X133123917Y-102234967D01*
X133070929Y-102204374D01*
X133046042Y-102148478D01*
X133045500Y-102138130D01*
X133045500Y-101827644D01*
X148030750Y-101827644D01*
X148030750Y-102032355D01*
X148062771Y-102234529D01*
X148126030Y-102429219D01*
X148218962Y-102611609D01*
X148218964Y-102611613D01*
X148339279Y-102777213D01*
X148339281Y-102777215D01*
X148339284Y-102777219D01*
X148484031Y-102921966D01*
X148484034Y-102921968D01*
X148484036Y-102921970D01*
X148544927Y-102966209D01*
X148577090Y-102989577D01*
X148578233Y-102990407D01*
X148614197Y-103039907D01*
X148614198Y-103101092D01*
X148578234Y-103150592D01*
X148520044Y-103169500D01*
X148426982Y-103169500D01*
X148396553Y-103172353D01*
X148268363Y-103217208D01*
X148159104Y-103297845D01*
X148159095Y-103297854D01*
X148078457Y-103407115D01*
X148033605Y-103535295D01*
X148033603Y-103535304D01*
X148030750Y-103565724D01*
X148030750Y-105374267D01*
X148033603Y-105404696D01*
X148033603Y-105404698D01*
X148033604Y-105404700D01*
X148039288Y-105420943D01*
X148078458Y-105532886D01*
X148159095Y-105642145D01*
X148159104Y-105642154D01*
X148268365Y-105722792D01*
X148268366Y-105722792D01*
X148268367Y-105722793D01*
X148396550Y-105767646D01*
X148426983Y-105770500D01*
X150235516Y-105770499D01*
X150235517Y-105770499D01*
X150241602Y-105769928D01*
X150265950Y-105767646D01*
X150394133Y-105722793D01*
X150503400Y-105642150D01*
X150584043Y-105532883D01*
X150628896Y-105404700D01*
X150631750Y-105374267D01*
X150631749Y-104391155D01*
X151070750Y-104391155D01*
X151070750Y-104548844D01*
X151101513Y-104703496D01*
X151101513Y-104703498D01*
X151161853Y-104849174D01*
X151161859Y-104849185D01*
X151214562Y-104928059D01*
X151249461Y-104980289D01*
X151360961Y-105091789D01*
X151439126Y-105144017D01*
X151492064Y-105179390D01*
X151492075Y-105179396D01*
X151545888Y-105201685D01*
X151637753Y-105239737D01*
X151792408Y-105270500D01*
X151792409Y-105270500D01*
X151950091Y-105270500D01*
X151950092Y-105270500D01*
X152104747Y-105239737D01*
X152250429Y-105179394D01*
X152381539Y-105091789D01*
X152493039Y-104980289D01*
X152580644Y-104849179D01*
X152640987Y-104703497D01*
X152671750Y-104548842D01*
X152671750Y-104391158D01*
X152640987Y-104236503D01*
X152580644Y-104090821D01*
X152580643Y-104090819D01*
X152580640Y-104090814D01*
X152545267Y-104037876D01*
X152493039Y-103959711D01*
X152381539Y-103848211D01*
X152329309Y-103813312D01*
X152250435Y-103760609D01*
X152250424Y-103760603D01*
X152104747Y-103700263D01*
X151950094Y-103669500D01*
X151950092Y-103669500D01*
X151792408Y-103669500D01*
X151792405Y-103669500D01*
X151637753Y-103700263D01*
X151637751Y-103700263D01*
X151492075Y-103760603D01*
X151492064Y-103760609D01*
X151360961Y-103848211D01*
X151360957Y-103848214D01*
X151249464Y-103959707D01*
X151249461Y-103959711D01*
X151161859Y-104090814D01*
X151161853Y-104090825D01*
X151101513Y-104236501D01*
X151101513Y-104236503D01*
X151070750Y-104391155D01*
X150631749Y-104391155D01*
X150631749Y-103565734D01*
X150628896Y-103535300D01*
X150584043Y-103407117D01*
X150584041Y-103407115D01*
X150584041Y-103407113D01*
X150503404Y-103297854D01*
X150503395Y-103297845D01*
X150394134Y-103217207D01*
X150265954Y-103172355D01*
X150265945Y-103172353D01*
X150235525Y-103169500D01*
X150235517Y-103169500D01*
X150142458Y-103169500D01*
X150084267Y-103150593D01*
X150048303Y-103101093D01*
X150048303Y-103039907D01*
X150084267Y-102990407D01*
X150084268Y-102990407D01*
X150178463Y-102921970D01*
X150178469Y-102921966D01*
X150323216Y-102777219D01*
X150407084Y-102661783D01*
X150443535Y-102611613D01*
X150443537Y-102611610D01*
X150536470Y-102429219D01*
X150599727Y-102234534D01*
X150599728Y-102234529D01*
X150631750Y-102032355D01*
X150631750Y-101851155D01*
X151070750Y-101851155D01*
X151070750Y-102008844D01*
X151101513Y-102163496D01*
X151101513Y-102163498D01*
X151161853Y-102309174D01*
X151161859Y-102309185D01*
X151191330Y-102353290D01*
X151249461Y-102440289D01*
X151360961Y-102551789D01*
X151439126Y-102604017D01*
X151492064Y-102639390D01*
X151492075Y-102639396D01*
X151545888Y-102661685D01*
X151637753Y-102699737D01*
X151792408Y-102730500D01*
X151792409Y-102730500D01*
X151950091Y-102730500D01*
X151950092Y-102730500D01*
X152104747Y-102699737D01*
X152250429Y-102639394D01*
X152381539Y-102551789D01*
X152493039Y-102440289D01*
X152580644Y-102309179D01*
X152640987Y-102163497D01*
X152671750Y-102008842D01*
X152671750Y-101851158D01*
X152640987Y-101696503D01*
X152580644Y-101550821D01*
X152580643Y-101550819D01*
X152580640Y-101550814D01*
X152545267Y-101497876D01*
X152493039Y-101419711D01*
X152381539Y-101308211D01*
X152292005Y-101248386D01*
X152250435Y-101220609D01*
X152250424Y-101220603D01*
X152104747Y-101160263D01*
X151950094Y-101129500D01*
X151950092Y-101129500D01*
X151792408Y-101129500D01*
X151792405Y-101129500D01*
X151637753Y-101160263D01*
X151637751Y-101160263D01*
X151492075Y-101220603D01*
X151492064Y-101220609D01*
X151360961Y-101308211D01*
X151360957Y-101308214D01*
X151249464Y-101419707D01*
X151249461Y-101419711D01*
X151161859Y-101550814D01*
X151161853Y-101550825D01*
X151101513Y-101696501D01*
X151101513Y-101696503D01*
X151070750Y-101851155D01*
X150631750Y-101851155D01*
X150631750Y-101827644D01*
X150599728Y-101625470D01*
X150599727Y-101625466D01*
X150536470Y-101430781D01*
X150443537Y-101248390D01*
X150443535Y-101248386D01*
X150323220Y-101082786D01*
X150323218Y-101082784D01*
X150323216Y-101082781D01*
X150178469Y-100938034D01*
X150178465Y-100938031D01*
X150178463Y-100938029D01*
X150012863Y-100817714D01*
X150012859Y-100817712D01*
X149830469Y-100724780D01*
X149635779Y-100661521D01*
X149433605Y-100629500D01*
X149433602Y-100629500D01*
X149228898Y-100629500D01*
X149228895Y-100629500D01*
X149026720Y-100661521D01*
X148832030Y-100724780D01*
X148649640Y-100817712D01*
X148649636Y-100817714D01*
X148484036Y-100938029D01*
X148339279Y-101082786D01*
X148218964Y-101248386D01*
X148218962Y-101248390D01*
X148126030Y-101430780D01*
X148062771Y-101625470D01*
X148030750Y-101827644D01*
X133045500Y-101827644D01*
X133045500Y-99849948D01*
X133064407Y-99791757D01*
X133094998Y-99764212D01*
X133118716Y-99750520D01*
X133230520Y-99638716D01*
X133309577Y-99501784D01*
X133350500Y-99349057D01*
X133350500Y-99190943D01*
X133309577Y-99038216D01*
X133230520Y-98901284D01*
X133218737Y-98889501D01*
X133190962Y-98834987D01*
X133200533Y-98774555D01*
X133243798Y-98731290D01*
X133288743Y-98720500D01*
X136960256Y-98720500D01*
X137018447Y-98739407D01*
X137030259Y-98749496D01*
X137070244Y-98789480D01*
X137081284Y-98800520D01*
X137218216Y-98879577D01*
X137370943Y-98920500D01*
X137370945Y-98920500D01*
X137529055Y-98920500D01*
X137529057Y-98920500D01*
X137681784Y-98879577D01*
X137818716Y-98800520D01*
X137930520Y-98688716D01*
X138009577Y-98551784D01*
X138050500Y-98399057D01*
X138050500Y-98240943D01*
X138009577Y-98088216D01*
X137944788Y-97975998D01*
X137932068Y-97916151D01*
X137956955Y-97860256D01*
X138009943Y-97829663D01*
X138030526Y-97827500D01*
X145843117Y-97827500D01*
X145843117Y-97827499D01*
X145926406Y-97805182D01*
X145926407Y-97805182D01*
X145926407Y-97805181D01*
X145926410Y-97805181D01*
X146001090Y-97762065D01*
X148402210Y-95360943D01*
X152689500Y-95360943D01*
X152689500Y-95519057D01*
X152730423Y-95671784D01*
X152809480Y-95808716D01*
X152921284Y-95920520D01*
X153058216Y-95999577D01*
X153210943Y-96040500D01*
X153210945Y-96040500D01*
X153368830Y-96040500D01*
X153427021Y-96059407D01*
X153462985Y-96108907D01*
X153464457Y-96165122D01*
X153449500Y-96220943D01*
X153449500Y-96379057D01*
X153490423Y-96531784D01*
X153569480Y-96668716D01*
X153681284Y-96780520D01*
X153818216Y-96859577D01*
X153970943Y-96900500D01*
X153970945Y-96900500D01*
X154129055Y-96900500D01*
X154129057Y-96900500D01*
X154281784Y-96859577D01*
X154418716Y-96780520D01*
X154478989Y-96720246D01*
X154533503Y-96692470D01*
X154593935Y-96702041D01*
X154637200Y-96745305D01*
X154646772Y-96805737D01*
X154640460Y-96828125D01*
X154640425Y-96828207D01*
X154633381Y-96854496D01*
X154599500Y-96980943D01*
X154599500Y-97139057D01*
X154640423Y-97291784D01*
X154719480Y-97428716D01*
X154831284Y-97540520D01*
X154968216Y-97619577D01*
X155120943Y-97660500D01*
X155120945Y-97660500D01*
X155279055Y-97660500D01*
X155279057Y-97660500D01*
X155431784Y-97619577D01*
X155568716Y-97540520D01*
X155669741Y-97439494D01*
X155724256Y-97411719D01*
X155739743Y-97410500D01*
X158476142Y-97410500D01*
X158476144Y-97410500D01*
X158565288Y-97386614D01*
X158587843Y-97373591D01*
X158587845Y-97373591D01*
X158603216Y-97364716D01*
X158645212Y-97340470D01*
X160639741Y-95345940D01*
X162649500Y-95345940D01*
X162649500Y-95654060D01*
X162685997Y-95931284D01*
X162689717Y-95959536D01*
X162689717Y-95959541D01*
X162769464Y-96257163D01*
X162887375Y-96541825D01*
X162887378Y-96541830D01*
X162983478Y-96708281D01*
X163041440Y-96808673D01*
X163229003Y-97053110D01*
X163229005Y-97053112D01*
X163229009Y-97053117D01*
X163446883Y-97270991D01*
X163446887Y-97270994D01*
X163446889Y-97270996D01*
X163628694Y-97410500D01*
X163691330Y-97458562D01*
X163958170Y-97612622D01*
X163958171Y-97612622D01*
X163958174Y-97612624D01*
X164073757Y-97660500D01*
X164242836Y-97730535D01*
X164540456Y-97810282D01*
X164845940Y-97850500D01*
X164845941Y-97850500D01*
X165154059Y-97850500D01*
X165154060Y-97850500D01*
X165459544Y-97810282D01*
X165757164Y-97730535D01*
X166041830Y-97612622D01*
X166308670Y-97458562D01*
X166553117Y-97270991D01*
X166770991Y-97053117D01*
X166958562Y-96808670D01*
X167112622Y-96541830D01*
X167230535Y-96257164D01*
X167310282Y-95959544D01*
X167350500Y-95654060D01*
X167350500Y-95345940D01*
X167310282Y-95040456D01*
X167230535Y-94742836D01*
X167155657Y-94562065D01*
X167112624Y-94458174D01*
X167103473Y-94442324D01*
X166958562Y-94191330D01*
X166934196Y-94159576D01*
X166770996Y-93946889D01*
X166770994Y-93946887D01*
X166770991Y-93946883D01*
X166553117Y-93729009D01*
X166553112Y-93729005D01*
X166553110Y-93729003D01*
X166308673Y-93541440D01*
X166289717Y-93530496D01*
X166041830Y-93387378D01*
X166041825Y-93387375D01*
X165757163Y-93269464D01*
X165553881Y-93214995D01*
X165459544Y-93189718D01*
X165459541Y-93189717D01*
X165459539Y-93189717D01*
X165154060Y-93149500D01*
X164845940Y-93149500D01*
X164845939Y-93149500D01*
X164540463Y-93189717D01*
X164540458Y-93189717D01*
X164242836Y-93269464D01*
X163958174Y-93387375D01*
X163691326Y-93541440D01*
X163446889Y-93729003D01*
X163229003Y-93946889D01*
X163041440Y-94191326D01*
X162887375Y-94458174D01*
X162769464Y-94742836D01*
X162689717Y-95040458D01*
X162689717Y-95040463D01*
X162649500Y-95345940D01*
X160639741Y-95345940D01*
X165329708Y-90655971D01*
X165384223Y-90628196D01*
X165437592Y-90634512D01*
X165523580Y-90670130D01*
X165726535Y-90710500D01*
X165726536Y-90710500D01*
X165933464Y-90710500D01*
X165933465Y-90710500D01*
X166136420Y-90670130D01*
X166327598Y-90590941D01*
X166499655Y-90475977D01*
X166645977Y-90329655D01*
X166760941Y-90157598D01*
X166840130Y-89966420D01*
X166880500Y-89763465D01*
X166880500Y-89556535D01*
X166840130Y-89353580D01*
X166760941Y-89162402D01*
X166645977Y-88990345D01*
X166499655Y-88844023D01*
X166472568Y-88825924D01*
X166327597Y-88729058D01*
X166136418Y-88649869D01*
X165933467Y-88609500D01*
X165933465Y-88609500D01*
X165726535Y-88609500D01*
X165726532Y-88609500D01*
X165523581Y-88649869D01*
X165332402Y-88729058D01*
X165160348Y-88844020D01*
X165014020Y-88990348D01*
X164899058Y-89162402D01*
X164819869Y-89353581D01*
X164779500Y-89556532D01*
X164779500Y-89763467D01*
X164819870Y-89966419D01*
X164819870Y-89966421D01*
X164855485Y-90052403D01*
X164860286Y-90113399D01*
X164834025Y-90160292D01*
X158313814Y-96680504D01*
X158259297Y-96708281D01*
X158243810Y-96709500D01*
X157684327Y-96709500D01*
X157626136Y-96690593D01*
X157590172Y-96641093D01*
X157590172Y-96579907D01*
X157598587Y-96561005D01*
X157649908Y-96472115D01*
X157690831Y-96319388D01*
X157690831Y-96205858D01*
X157709738Y-96147667D01*
X157719821Y-96135860D01*
X163116185Y-90739495D01*
X163170702Y-90711719D01*
X163186189Y-90710500D01*
X163393464Y-90710500D01*
X163393465Y-90710500D01*
X163596420Y-90670130D01*
X163787598Y-90590941D01*
X163959655Y-90475977D01*
X164105977Y-90329655D01*
X164220941Y-90157598D01*
X164300130Y-89966420D01*
X164340500Y-89763465D01*
X164340500Y-89556535D01*
X164300130Y-89353580D01*
X164220941Y-89162402D01*
X164105977Y-88990345D01*
X163959655Y-88844023D01*
X163932568Y-88825924D01*
X163787597Y-88729058D01*
X163596418Y-88649869D01*
X163393467Y-88609500D01*
X163393465Y-88609500D01*
X163186535Y-88609500D01*
X163186532Y-88609500D01*
X162983581Y-88649869D01*
X162792402Y-88729058D01*
X162620348Y-88844020D01*
X162474020Y-88990348D01*
X162359058Y-89162402D01*
X162279869Y-89353581D01*
X162239500Y-89556532D01*
X162239500Y-89763467D01*
X162279869Y-89966418D01*
X162359058Y-90157597D01*
X162453173Y-90298451D01*
X162469781Y-90357339D01*
X162448603Y-90414743D01*
X162440861Y-90423456D01*
X157252597Y-95611719D01*
X157198080Y-95639496D01*
X157175876Y-95639787D01*
X157175876Y-95639831D01*
X157172569Y-95639831D01*
X157169675Y-95639869D01*
X157169389Y-95639831D01*
X157169388Y-95639831D01*
X157011274Y-95639831D01*
X156858547Y-95680754D01*
X156721615Y-95759811D01*
X156609811Y-95871615D01*
X156530754Y-96008547D01*
X156489831Y-96161274D01*
X156489831Y-96319388D01*
X156530754Y-96472115D01*
X156582072Y-96561001D01*
X156594793Y-96620849D01*
X156569906Y-96676744D01*
X156516918Y-96707337D01*
X156496335Y-96709500D01*
X155739743Y-96709500D01*
X155681552Y-96690593D01*
X155669745Y-96680509D01*
X155568716Y-96579480D01*
X155431784Y-96500423D01*
X155279057Y-96459500D01*
X155120943Y-96459500D01*
X154968216Y-96500423D01*
X154832021Y-96579055D01*
X154831281Y-96579482D01*
X154771011Y-96639752D01*
X154716494Y-96667529D01*
X154656062Y-96657957D01*
X154612798Y-96614692D01*
X154603227Y-96554260D01*
X154609546Y-96531856D01*
X154609570Y-96531795D01*
X154609577Y-96531784D01*
X154650500Y-96379057D01*
X154650500Y-96220943D01*
X154609577Y-96068216D01*
X154534973Y-95938997D01*
X154522253Y-95879151D01*
X154547140Y-95823256D01*
X154600128Y-95792663D01*
X154620711Y-95790500D01*
X155016142Y-95790500D01*
X155016144Y-95790500D01*
X155105288Y-95766614D01*
X155117068Y-95759812D01*
X155117070Y-95759812D01*
X155135328Y-95749270D01*
X155185212Y-95720470D01*
X160249708Y-90655971D01*
X160304223Y-90628196D01*
X160357592Y-90634512D01*
X160443580Y-90670130D01*
X160646535Y-90710500D01*
X160646536Y-90710500D01*
X160853464Y-90710500D01*
X160853465Y-90710500D01*
X161056420Y-90670130D01*
X161247598Y-90590941D01*
X161419655Y-90475977D01*
X161565977Y-90329655D01*
X161680941Y-90157598D01*
X161760130Y-89966420D01*
X161800500Y-89763465D01*
X161800500Y-89556535D01*
X161760130Y-89353580D01*
X161680941Y-89162402D01*
X161565977Y-88990345D01*
X161419655Y-88844023D01*
X161392568Y-88825924D01*
X161247597Y-88729058D01*
X161056418Y-88649869D01*
X160853467Y-88609500D01*
X160853465Y-88609500D01*
X160646535Y-88609500D01*
X160646532Y-88609500D01*
X160443581Y-88649869D01*
X160252402Y-88729058D01*
X160080348Y-88844020D01*
X159934020Y-88990348D01*
X159819058Y-89162402D01*
X159739869Y-89353581D01*
X159699500Y-89556532D01*
X159699500Y-89763467D01*
X159739870Y-89966419D01*
X159739870Y-89966421D01*
X159775485Y-90052403D01*
X159780286Y-90113399D01*
X159754025Y-90160292D01*
X154853814Y-95060504D01*
X154799297Y-95088281D01*
X154783810Y-95089500D01*
X153829743Y-95089500D01*
X153771552Y-95070593D01*
X153759745Y-95060509D01*
X153658716Y-94959480D01*
X153521784Y-94880423D01*
X153369057Y-94839500D01*
X153210943Y-94839500D01*
X153058216Y-94880423D01*
X152921284Y-94959480D01*
X152809480Y-95071284D01*
X152730423Y-95208216D01*
X152689500Y-95360943D01*
X148402210Y-95360943D01*
X148834915Y-94928238D01*
X148889430Y-94900463D01*
X148917843Y-94900092D01*
X148920941Y-94900500D01*
X148920943Y-94900500D01*
X149079055Y-94900500D01*
X149079057Y-94900500D01*
X149231784Y-94859577D01*
X149368716Y-94780520D01*
X149480520Y-94668716D01*
X149559577Y-94531784D01*
X149600500Y-94379057D01*
X149600500Y-94220943D01*
X149559577Y-94068216D01*
X149480520Y-93931284D01*
X149368716Y-93819480D01*
X149231784Y-93740423D01*
X149079057Y-93699500D01*
X148999833Y-93699500D01*
X148941642Y-93680593D01*
X148905678Y-93631093D01*
X148905678Y-93569907D01*
X148929829Y-93530496D01*
X149739382Y-92720943D01*
X150699859Y-91760466D01*
X150699862Y-91760465D01*
X150760465Y-91699862D01*
X150803318Y-91625638D01*
X150825501Y-91542852D01*
X150825501Y-91457147D01*
X150825501Y-91451085D01*
X150825500Y-91451067D01*
X150825500Y-88790253D01*
X154619500Y-88790253D01*
X154619500Y-90529746D01*
X154619501Y-90529758D01*
X154631132Y-90588227D01*
X154631134Y-90588233D01*
X154657837Y-90628196D01*
X154675448Y-90654552D01*
X154741769Y-90698867D01*
X154786231Y-90707711D01*
X154800241Y-90710498D01*
X154800246Y-90710498D01*
X154800252Y-90710500D01*
X154800253Y-90710500D01*
X156539747Y-90710500D01*
X156539748Y-90710500D01*
X156598231Y-90698867D01*
X156664552Y-90654552D01*
X156708867Y-90588231D01*
X156720500Y-90529748D01*
X156720500Y-89556532D01*
X157159500Y-89556532D01*
X157159500Y-89763467D01*
X157199869Y-89966418D01*
X157279058Y-90157597D01*
X157279059Y-90157598D01*
X157394023Y-90329655D01*
X157540345Y-90475977D01*
X157712402Y-90590941D01*
X157903580Y-90670130D01*
X158106535Y-90710500D01*
X158106536Y-90710500D01*
X158313464Y-90710500D01*
X158313465Y-90710500D01*
X158516420Y-90670130D01*
X158707598Y-90590941D01*
X158879655Y-90475977D01*
X159025977Y-90329655D01*
X159140941Y-90157598D01*
X159220130Y-89966420D01*
X159260500Y-89763465D01*
X159260500Y-89556535D01*
X159220130Y-89353580D01*
X159140941Y-89162402D01*
X159025977Y-88990345D01*
X158879655Y-88844023D01*
X158852568Y-88825924D01*
X158707597Y-88729058D01*
X158516418Y-88649869D01*
X158313467Y-88609500D01*
X158313465Y-88609500D01*
X158106535Y-88609500D01*
X158106532Y-88609500D01*
X157903581Y-88649869D01*
X157712402Y-88729058D01*
X157540348Y-88844020D01*
X157394020Y-88990348D01*
X157279058Y-89162402D01*
X157199869Y-89353581D01*
X157159500Y-89556532D01*
X156720500Y-89556532D01*
X156720500Y-88790252D01*
X156708867Y-88731769D01*
X156664552Y-88665448D01*
X156664548Y-88665445D01*
X156598233Y-88621134D01*
X156598231Y-88621133D01*
X156598228Y-88621132D01*
X156598227Y-88621132D01*
X156539758Y-88609501D01*
X156539748Y-88609500D01*
X154800252Y-88609500D01*
X154800251Y-88609500D01*
X154800241Y-88609501D01*
X154741772Y-88621132D01*
X154741766Y-88621134D01*
X154675451Y-88665445D01*
X154675445Y-88665451D01*
X154631134Y-88731766D01*
X154631132Y-88731772D01*
X154619501Y-88790241D01*
X154619500Y-88790253D01*
X150825500Y-88790253D01*
X150825500Y-86262502D01*
X150844407Y-86204311D01*
X150864233Y-86183960D01*
X150868711Y-86180523D01*
X150868711Y-86180522D01*
X150868716Y-86180520D01*
X150980520Y-86068716D01*
X151059577Y-85931784D01*
X151100500Y-85779057D01*
X151100500Y-85620943D01*
X151059577Y-85468216D01*
X150980520Y-85331284D01*
X150868716Y-85219480D01*
X150731784Y-85140423D01*
X150579057Y-85099500D01*
X150420943Y-85099500D01*
X150268216Y-85140423D01*
X150131284Y-85219480D01*
X150019480Y-85331284D01*
X149940423Y-85468216D01*
X149899500Y-85620943D01*
X149899500Y-85779057D01*
X149940423Y-85931784D01*
X150019480Y-86068716D01*
X150131284Y-86180520D01*
X150131286Y-86180521D01*
X150131288Y-86180523D01*
X150135767Y-86183960D01*
X150170423Y-86234384D01*
X150174500Y-86262502D01*
X150174500Y-88028996D01*
X150155593Y-88087187D01*
X150106093Y-88123151D01*
X150044907Y-88123151D01*
X149995408Y-88087187D01*
X149890694Y-87943062D01*
X149890692Y-87943060D01*
X149890690Y-87943057D01*
X149757073Y-87809440D01*
X149604199Y-87698370D01*
X149604198Y-87698369D01*
X149604196Y-87698368D01*
X149435832Y-87612583D01*
X149256113Y-87554188D01*
X149069484Y-87524630D01*
X149069481Y-87524630D01*
X148880519Y-87524630D01*
X148880516Y-87524630D01*
X148693886Y-87554188D01*
X148514167Y-87612583D01*
X148345803Y-87698368D01*
X148192928Y-87809439D01*
X148059309Y-87943058D01*
X147948238Y-88095933D01*
X147862453Y-88264297D01*
X147804058Y-88444016D01*
X147802781Y-88452084D01*
X147775004Y-88506601D01*
X147720487Y-88534378D01*
X147660055Y-88524807D01*
X147616790Y-88481542D01*
X147607219Y-88452084D01*
X147605941Y-88444016D01*
X147605940Y-88444012D01*
X147547547Y-88264298D01*
X147461760Y-88095931D01*
X147350690Y-87943057D01*
X147217073Y-87809440D01*
X147064199Y-87698370D01*
X147064198Y-87698369D01*
X147064196Y-87698368D01*
X146895832Y-87612583D01*
X146716113Y-87554188D01*
X146529484Y-87524630D01*
X146529481Y-87524630D01*
X146340519Y-87524630D01*
X146340516Y-87524630D01*
X146153886Y-87554188D01*
X145974167Y-87612583D01*
X145805803Y-87698368D01*
X145652928Y-87809439D01*
X145519309Y-87943058D01*
X145408238Y-88095933D01*
X145322453Y-88264297D01*
X145264058Y-88444016D01*
X145262781Y-88452084D01*
X145235004Y-88506601D01*
X145180487Y-88534378D01*
X145120055Y-88524807D01*
X145076790Y-88481542D01*
X145067219Y-88452084D01*
X145065941Y-88444016D01*
X145065940Y-88444012D01*
X145007547Y-88264298D01*
X144921760Y-88095931D01*
X144810690Y-87943057D01*
X144677073Y-87809440D01*
X144524199Y-87698370D01*
X144524198Y-87698369D01*
X144524196Y-87698368D01*
X144355832Y-87612583D01*
X144176113Y-87554188D01*
X143989484Y-87524630D01*
X143989481Y-87524630D01*
X143800519Y-87524630D01*
X143800516Y-87524630D01*
X143613886Y-87554188D01*
X143434167Y-87612583D01*
X143265803Y-87698368D01*
X143112928Y-87809439D01*
X142979309Y-87943058D01*
X142868238Y-88095933D01*
X142782453Y-88264297D01*
X142724058Y-88444016D01*
X142722781Y-88452084D01*
X142695004Y-88506601D01*
X142640487Y-88534378D01*
X142580055Y-88524807D01*
X142536790Y-88481542D01*
X142527219Y-88452084D01*
X142525941Y-88444016D01*
X142525940Y-88444012D01*
X142467547Y-88264298D01*
X142381760Y-88095931D01*
X142270690Y-87943057D01*
X142137073Y-87809440D01*
X141984199Y-87698370D01*
X141984198Y-87698369D01*
X141984196Y-87698368D01*
X141815832Y-87612583D01*
X141636113Y-87554188D01*
X141449484Y-87524630D01*
X141449481Y-87524630D01*
X141260519Y-87524630D01*
X141260516Y-87524630D01*
X141073886Y-87554188D01*
X140894167Y-87612583D01*
X140725803Y-87698368D01*
X140572928Y-87809439D01*
X140439309Y-87943058D01*
X140328238Y-88095933D01*
X140242453Y-88264297D01*
X140184058Y-88444016D01*
X140182781Y-88452084D01*
X140155004Y-88506601D01*
X140100487Y-88534378D01*
X140040055Y-88524807D01*
X139996790Y-88481542D01*
X139987219Y-88452084D01*
X139985941Y-88444016D01*
X139985940Y-88444012D01*
X139927547Y-88264298D01*
X139841760Y-88095931D01*
X139730690Y-87943057D01*
X139597073Y-87809440D01*
X139444199Y-87698370D01*
X139444198Y-87698369D01*
X139444196Y-87698368D01*
X139275832Y-87612583D01*
X139096113Y-87554188D01*
X138909484Y-87524630D01*
X138909481Y-87524630D01*
X138720519Y-87524630D01*
X138720516Y-87524630D01*
X138533886Y-87554188D01*
X138354167Y-87612583D01*
X138185803Y-87698368D01*
X138032928Y-87809439D01*
X137899309Y-87943058D01*
X137788238Y-88095933D01*
X137702453Y-88264297D01*
X137644058Y-88444016D01*
X137642781Y-88452084D01*
X137615004Y-88506601D01*
X137560487Y-88534378D01*
X137500055Y-88524807D01*
X137456790Y-88481542D01*
X137447219Y-88452084D01*
X137445941Y-88444016D01*
X137445940Y-88444012D01*
X137387547Y-88264298D01*
X137301760Y-88095931D01*
X137190690Y-87943057D01*
X137057073Y-87809440D01*
X136904199Y-87698370D01*
X136904198Y-87698369D01*
X136904196Y-87698368D01*
X136735832Y-87612583D01*
X136556113Y-87554188D01*
X136369484Y-87524630D01*
X136369481Y-87524630D01*
X136180519Y-87524630D01*
X136180516Y-87524630D01*
X135993886Y-87554188D01*
X135814167Y-87612583D01*
X135645803Y-87698368D01*
X135492928Y-87809439D01*
X135359309Y-87943058D01*
X135248238Y-88095933D01*
X135162453Y-88264297D01*
X135104058Y-88444016D01*
X135074500Y-88630645D01*
X135074500Y-88819614D01*
X135104058Y-89006243D01*
X135162453Y-89185962D01*
X135247858Y-89353581D01*
X135248240Y-89354329D01*
X135359310Y-89507203D01*
X135492927Y-89640820D01*
X135645801Y-89751890D01*
X135814168Y-89837677D01*
X135993882Y-89896070D01*
X135993883Y-89896070D01*
X135993886Y-89896071D01*
X136180516Y-89925630D01*
X136180519Y-89925630D01*
X136369484Y-89925630D01*
X136556113Y-89896071D01*
X136556114Y-89896070D01*
X136556118Y-89896070D01*
X136735832Y-89837677D01*
X136904199Y-89751890D01*
X137057073Y-89640820D01*
X137190690Y-89507203D01*
X137301760Y-89354329D01*
X137387547Y-89185962D01*
X137445940Y-89006248D01*
X137445941Y-89006243D01*
X137447219Y-88998176D01*
X137474996Y-88943659D01*
X137529512Y-88915881D01*
X137589944Y-88925452D01*
X137633209Y-88968716D01*
X137642781Y-88998176D01*
X137644058Y-89006243D01*
X137702453Y-89185962D01*
X137787858Y-89353581D01*
X137788240Y-89354329D01*
X137899310Y-89507203D01*
X138032927Y-89640820D01*
X138185801Y-89751890D01*
X138354168Y-89837677D01*
X138533882Y-89896070D01*
X138533883Y-89896070D01*
X138533886Y-89896071D01*
X138720516Y-89925630D01*
X138720519Y-89925630D01*
X138909484Y-89925630D01*
X139096113Y-89896071D01*
X139096114Y-89896070D01*
X139096118Y-89896070D01*
X139275832Y-89837677D01*
X139444199Y-89751890D01*
X139597073Y-89640820D01*
X139730690Y-89507203D01*
X139841760Y-89354329D01*
X139927547Y-89185962D01*
X139985940Y-89006248D01*
X139985941Y-89006243D01*
X139987219Y-88998176D01*
X140014996Y-88943659D01*
X140069512Y-88915881D01*
X140129944Y-88925452D01*
X140173209Y-88968716D01*
X140182781Y-88998176D01*
X140184058Y-89006243D01*
X140242453Y-89185962D01*
X140327858Y-89353581D01*
X140328240Y-89354329D01*
X140439310Y-89507203D01*
X140572927Y-89640820D01*
X140725801Y-89751890D01*
X140894168Y-89837677D01*
X141073882Y-89896070D01*
X141073883Y-89896070D01*
X141073886Y-89896071D01*
X141260516Y-89925630D01*
X141260519Y-89925630D01*
X141449484Y-89925630D01*
X141636113Y-89896071D01*
X141636114Y-89896070D01*
X141636118Y-89896070D01*
X141815832Y-89837677D01*
X141984199Y-89751890D01*
X142137073Y-89640820D01*
X142270690Y-89507203D01*
X142381760Y-89354329D01*
X142467547Y-89185962D01*
X142525940Y-89006248D01*
X142525941Y-89006243D01*
X142527219Y-88998176D01*
X142554996Y-88943659D01*
X142609512Y-88915881D01*
X142669944Y-88925452D01*
X142713209Y-88968716D01*
X142722781Y-88998176D01*
X142724058Y-89006243D01*
X142782453Y-89185962D01*
X142867858Y-89353581D01*
X142868240Y-89354329D01*
X142979310Y-89507203D01*
X143112927Y-89640820D01*
X143265801Y-89751890D01*
X143434168Y-89837677D01*
X143613882Y-89896070D01*
X143613883Y-89896070D01*
X143613886Y-89896071D01*
X143800516Y-89925630D01*
X143800519Y-89925630D01*
X143989484Y-89925630D01*
X144176113Y-89896071D01*
X144176114Y-89896070D01*
X144176118Y-89896070D01*
X144355832Y-89837677D01*
X144524199Y-89751890D01*
X144677073Y-89640820D01*
X144810690Y-89507203D01*
X144921760Y-89354329D01*
X145007547Y-89185962D01*
X145065940Y-89006248D01*
X145065941Y-89006243D01*
X145067219Y-88998176D01*
X145094996Y-88943659D01*
X145149512Y-88915881D01*
X145209944Y-88925452D01*
X145253209Y-88968716D01*
X145262781Y-88998176D01*
X145264058Y-89006243D01*
X145322453Y-89185962D01*
X145407858Y-89353581D01*
X145408240Y-89354329D01*
X145519310Y-89507203D01*
X145652927Y-89640820D01*
X145805801Y-89751890D01*
X145974168Y-89837677D01*
X146153882Y-89896070D01*
X146153883Y-89896070D01*
X146153886Y-89896071D01*
X146340516Y-89925630D01*
X146340519Y-89925630D01*
X146529484Y-89925630D01*
X146716113Y-89896071D01*
X146716114Y-89896070D01*
X146716118Y-89896070D01*
X146895832Y-89837677D01*
X147064199Y-89751890D01*
X147217073Y-89640820D01*
X147350690Y-89507203D01*
X147461760Y-89354329D01*
X147547547Y-89185962D01*
X147605940Y-89006248D01*
X147605941Y-89006243D01*
X147607219Y-88998176D01*
X147634996Y-88943659D01*
X147689512Y-88915881D01*
X147749944Y-88925452D01*
X147793209Y-88968716D01*
X147802781Y-88998176D01*
X147804058Y-89006243D01*
X147862453Y-89185962D01*
X147947858Y-89353581D01*
X147948240Y-89354329D01*
X148059310Y-89507203D01*
X148192927Y-89640820D01*
X148345801Y-89751890D01*
X148514168Y-89837677D01*
X148693882Y-89896070D01*
X148693883Y-89896070D01*
X148693886Y-89896071D01*
X148880516Y-89925630D01*
X148880519Y-89925630D01*
X149069484Y-89925630D01*
X149256113Y-89896071D01*
X149256114Y-89896070D01*
X149256118Y-89896070D01*
X149435832Y-89837677D01*
X149604199Y-89751890D01*
X149757073Y-89640820D01*
X149890690Y-89507203D01*
X149995408Y-89363070D01*
X150044907Y-89327108D01*
X150106093Y-89327108D01*
X150155593Y-89363072D01*
X150174500Y-89421263D01*
X150174500Y-91324164D01*
X150155593Y-91382355D01*
X150145504Y-91394168D01*
X147267841Y-94271830D01*
X147213324Y-94299607D01*
X147152892Y-94290036D01*
X147109627Y-94246771D01*
X147103461Y-94226867D01*
X147102179Y-94227211D01*
X147100500Y-94220944D01*
X147100500Y-94220943D01*
X147059577Y-94068216D01*
X146980520Y-93931284D01*
X146868716Y-93819480D01*
X146731784Y-93740423D01*
X146579057Y-93699500D01*
X146420943Y-93699500D01*
X146268216Y-93740423D01*
X146131284Y-93819480D01*
X146019480Y-93931284D01*
X145940423Y-94068216D01*
X145901998Y-94211623D01*
X145899500Y-94220944D01*
X145899500Y-94379061D01*
X145899908Y-94382161D01*
X145899500Y-94384361D01*
X145899500Y-94385545D01*
X145899281Y-94385545D01*
X145888756Y-94442321D01*
X145871759Y-94465084D01*
X144793341Y-95543504D01*
X144738824Y-95571281D01*
X144723337Y-95572500D01*
X143306078Y-95572500D01*
X143247887Y-95553593D01*
X143211923Y-95504093D01*
X143211923Y-95442907D01*
X143247887Y-95393407D01*
X143256568Y-95387769D01*
X143301090Y-95362065D01*
X143734914Y-94928239D01*
X143789429Y-94900463D01*
X143817841Y-94900091D01*
X143820939Y-94900498D01*
X143820943Y-94900500D01*
X143820947Y-94900500D01*
X143979055Y-94900500D01*
X143979057Y-94900500D01*
X144131784Y-94859577D01*
X144268716Y-94780520D01*
X144380520Y-94668716D01*
X144459577Y-94531784D01*
X144500500Y-94379057D01*
X144500500Y-94220943D01*
X144459577Y-94068216D01*
X144380520Y-93931284D01*
X144268716Y-93819480D01*
X144131784Y-93740423D01*
X143979057Y-93699500D01*
X143820943Y-93699500D01*
X143668216Y-93740423D01*
X143531284Y-93819480D01*
X143419480Y-93931284D01*
X143340423Y-94068216D01*
X143301998Y-94211623D01*
X143299500Y-94220944D01*
X143299500Y-94379055D01*
X143299909Y-94382163D01*
X143299500Y-94384369D01*
X143299500Y-94385545D01*
X143299282Y-94385545D01*
X143288756Y-94442324D01*
X143271759Y-94465084D01*
X142993342Y-94743503D01*
X142938825Y-94771281D01*
X142923338Y-94772500D01*
X141992073Y-94772500D01*
X141933882Y-94753593D01*
X141897918Y-94704093D01*
X141897918Y-94642907D01*
X141906334Y-94624004D01*
X141959577Y-94531784D01*
X142000500Y-94379057D01*
X142000500Y-94220943D01*
X141959577Y-94068216D01*
X141880520Y-93931284D01*
X141768716Y-93819480D01*
X141631784Y-93740423D01*
X141479057Y-93699500D01*
X141320943Y-93699500D01*
X141210814Y-93729009D01*
X141168216Y-93740423D01*
X141031284Y-93819480D01*
X140919475Y-93931289D01*
X140917577Y-93933764D01*
X140915734Y-93935030D01*
X140914892Y-93935873D01*
X140914735Y-93935716D01*
X140867154Y-93968422D01*
X140839033Y-93972500D01*
X124226663Y-93972500D01*
X124168472Y-93953593D01*
X124156659Y-93943504D01*
X123470248Y-93257093D01*
X122751090Y-92537935D01*
X122676410Y-92494819D01*
X122676409Y-92494818D01*
X122676406Y-92494817D01*
X122593118Y-92472500D01*
X122593116Y-92472500D01*
X117260967Y-92472500D01*
X117202776Y-92453593D01*
X117182423Y-92433764D01*
X117180524Y-92431289D01*
X117180521Y-92431286D01*
X117180520Y-92431284D01*
X117068716Y-92319480D01*
X116931784Y-92240423D01*
X116779057Y-92199500D01*
X116620943Y-92199500D01*
X116468216Y-92240423D01*
X116331284Y-92319480D01*
X116219480Y-92431284D01*
X116140423Y-92568216D01*
X116099500Y-92720943D01*
X109700500Y-92720943D01*
X109700500Y-81799500D01*
X109719407Y-81741309D01*
X109768907Y-81705345D01*
X109799500Y-81700500D01*
X124268992Y-81700500D01*
X124268993Y-81700500D01*
X124404328Y-81673580D01*
X124531811Y-81620775D01*
X124646542Y-81544114D01*
X124744114Y-81446542D01*
X124820775Y-81331811D01*
X124873580Y-81204328D01*
X124900500Y-81068993D01*
X124900500Y-79431007D01*
X124873580Y-79295672D01*
X124820775Y-79168189D01*
X124820774Y-79168187D01*
X124820771Y-79168182D01*
X124744114Y-79053458D01*
X124646541Y-78955885D01*
X124531817Y-78879228D01*
X124531806Y-78879222D01*
X124404328Y-78826420D01*
X124268995Y-78799500D01*
X124268993Y-78799500D01*
X124131007Y-78799500D01*
X124131004Y-78799500D01*
X123995672Y-78826420D01*
X123995670Y-78826420D01*
X123868193Y-78879222D01*
X123868182Y-78879228D01*
X123753458Y-78955885D01*
X123655885Y-79053458D01*
X123579228Y-79168182D01*
X123579222Y-79168193D01*
X123526420Y-79295670D01*
X123526420Y-79295672D01*
X123499500Y-79431004D01*
X123499500Y-80200500D01*
X123480593Y-80258691D01*
X123431093Y-80294655D01*
X123400500Y-80299500D01*
X109799500Y-80299500D01*
X109741309Y-80280593D01*
X109705345Y-80231093D01*
X109700500Y-80200500D01*
X109700500Y-77431013D01*
X109700500Y-77431007D01*
X109688109Y-77368716D01*
X109673580Y-77295672D01*
X109653805Y-77247930D01*
X120799500Y-77247930D01*
X120799500Y-79287423D01*
X120799501Y-79287435D01*
X120801140Y-79295672D01*
X120811133Y-79345908D01*
X120855448Y-79412229D01*
X120921769Y-79456544D01*
X120966231Y-79465388D01*
X120980241Y-79468175D01*
X120980246Y-79468175D01*
X120980252Y-79468177D01*
X120980253Y-79468177D01*
X123019747Y-79468177D01*
X123019748Y-79468177D01*
X123078231Y-79456544D01*
X123144552Y-79412229D01*
X123188867Y-79345908D01*
X123200500Y-79287425D01*
X123200500Y-77247929D01*
X123188867Y-77189446D01*
X123144552Y-77123125D01*
X123078598Y-77079055D01*
X123078233Y-77078811D01*
X123078231Y-77078810D01*
X123078228Y-77078809D01*
X123078227Y-77078809D01*
X123019758Y-77067178D01*
X123019748Y-77067177D01*
X120980252Y-77067177D01*
X120980251Y-77067177D01*
X120980241Y-77067178D01*
X120921772Y-77078809D01*
X120921766Y-77078811D01*
X120855451Y-77123122D01*
X120855445Y-77123128D01*
X120811134Y-77189443D01*
X120811132Y-77189449D01*
X120799501Y-77247918D01*
X120799500Y-77247930D01*
X109653805Y-77247930D01*
X109620775Y-77168189D01*
X109544114Y-77053457D01*
X107785161Y-75294504D01*
X107757384Y-75239987D01*
X107766955Y-75179555D01*
X107810220Y-75136290D01*
X107855165Y-75125500D01*
X109544747Y-75125500D01*
X109544748Y-75125500D01*
X109603231Y-75113867D01*
X109669552Y-75069552D01*
X109713867Y-75003231D01*
X109725500Y-74944748D01*
X109725500Y-73971532D01*
X110164500Y-73971532D01*
X110164500Y-74178467D01*
X110204869Y-74381418D01*
X110284058Y-74572597D01*
X110284059Y-74572598D01*
X110399023Y-74744655D01*
X110545345Y-74890977D01*
X110717402Y-75005941D01*
X110908580Y-75085130D01*
X111111535Y-75125500D01*
X111111536Y-75125500D01*
X111318464Y-75125500D01*
X111318465Y-75125500D01*
X111521420Y-75085130D01*
X111712598Y-75005941D01*
X111884655Y-74890977D01*
X112030977Y-74744655D01*
X112145941Y-74572598D01*
X112225130Y-74381420D01*
X112265500Y-74178465D01*
X112265500Y-73971535D01*
X112265499Y-73971532D01*
X112704500Y-73971532D01*
X112704500Y-74178467D01*
X112744869Y-74381418D01*
X112824058Y-74572597D01*
X112824059Y-74572598D01*
X112939023Y-74744655D01*
X113085345Y-74890977D01*
X113257402Y-75005941D01*
X113448580Y-75085130D01*
X113651535Y-75125500D01*
X113651536Y-75125500D01*
X113858464Y-75125500D01*
X113858465Y-75125500D01*
X114061420Y-75085130D01*
X114252598Y-75005941D01*
X114424655Y-74890977D01*
X114570977Y-74744655D01*
X114685941Y-74572598D01*
X114765130Y-74381420D01*
X114805500Y-74178465D01*
X114805500Y-73971535D01*
X114765130Y-73768580D01*
X114685941Y-73577402D01*
X114570977Y-73405345D01*
X114424655Y-73259023D01*
X114344182Y-73205253D01*
X114296258Y-73173231D01*
X120800000Y-73173231D01*
X120800000Y-73362122D01*
X120829546Y-73548673D01*
X120887914Y-73728312D01*
X120973667Y-73896613D01*
X120973669Y-73896617D01*
X121081382Y-74044871D01*
X121582210Y-73544042D01*
X121599901Y-73574684D01*
X121692993Y-73667776D01*
X121723632Y-73685465D01*
X121222804Y-74186293D01*
X121371059Y-74294007D01*
X121371063Y-74294009D01*
X121539364Y-74379762D01*
X121719003Y-74438130D01*
X121905555Y-74467677D01*
X122094445Y-74467677D01*
X122280996Y-74438130D01*
X122460635Y-74379762D01*
X122628934Y-74294010D01*
X122777194Y-74186292D01*
X122276367Y-73685465D01*
X122307007Y-73667776D01*
X122400099Y-73574684D01*
X122417788Y-73544044D01*
X122918615Y-74044871D01*
X123026333Y-73896611D01*
X123112085Y-73728312D01*
X123170453Y-73548673D01*
X123200000Y-73362122D01*
X123200000Y-73173231D01*
X123170453Y-72986680D01*
X123112085Y-72807041D01*
X123026332Y-72638740D01*
X123026330Y-72638736D01*
X122918616Y-72490481D01*
X122417788Y-72991309D01*
X122400099Y-72960670D01*
X122307007Y-72867578D01*
X122276365Y-72849887D01*
X122777194Y-72349059D01*
X122628940Y-72241346D01*
X122628936Y-72241344D01*
X122460635Y-72155591D01*
X122280996Y-72097223D01*
X122094445Y-72067677D01*
X121905555Y-72067677D01*
X121719003Y-72097223D01*
X121539364Y-72155591D01*
X121371063Y-72241344D01*
X121371059Y-72241346D01*
X121222804Y-72349059D01*
X121723632Y-72849887D01*
X121692993Y-72867578D01*
X121599901Y-72960670D01*
X121582210Y-72991309D01*
X121081382Y-72490481D01*
X120973669Y-72638736D01*
X120973667Y-72638740D01*
X120887914Y-72807041D01*
X120829546Y-72986680D01*
X120800000Y-73173231D01*
X114296258Y-73173231D01*
X114252597Y-73144058D01*
X114061418Y-73064869D01*
X113858467Y-73024500D01*
X113858465Y-73024500D01*
X113651535Y-73024500D01*
X113651532Y-73024500D01*
X113448581Y-73064869D01*
X113257402Y-73144058D01*
X113085348Y-73259020D01*
X112939020Y-73405348D01*
X112824058Y-73577402D01*
X112744869Y-73768581D01*
X112704500Y-73971532D01*
X112265499Y-73971532D01*
X112225130Y-73768580D01*
X112145941Y-73577402D01*
X112030977Y-73405345D01*
X111884655Y-73259023D01*
X111873637Y-73251661D01*
X111712597Y-73144058D01*
X111521418Y-73064869D01*
X111318467Y-73024500D01*
X111318465Y-73024500D01*
X111111535Y-73024500D01*
X111111532Y-73024500D01*
X110908581Y-73064869D01*
X110717402Y-73144058D01*
X110545348Y-73259020D01*
X110399020Y-73405348D01*
X110284058Y-73577402D01*
X110204869Y-73768581D01*
X110164500Y-73971532D01*
X109725500Y-73971532D01*
X109725500Y-73205252D01*
X109724823Y-73201851D01*
X109722711Y-73191231D01*
X109713867Y-73146769D01*
X109669552Y-73080448D01*
X109660926Y-73074684D01*
X109603233Y-73036134D01*
X109603231Y-73036133D01*
X109603228Y-73036132D01*
X109603227Y-73036132D01*
X109544758Y-73024501D01*
X109544748Y-73024500D01*
X107805252Y-73024500D01*
X107805251Y-73024500D01*
X107805241Y-73024501D01*
X107746772Y-73036132D01*
X107746766Y-73036134D01*
X107680451Y-73080445D01*
X107680445Y-73080451D01*
X107636134Y-73146766D01*
X107636132Y-73146772D01*
X107624501Y-73205241D01*
X107624500Y-73205253D01*
X107624500Y-74894835D01*
X107617336Y-74916882D01*
X107613710Y-74939780D01*
X107608061Y-74945428D01*
X107605593Y-74953026D01*
X107586836Y-74966653D01*
X107570445Y-74983045D01*
X107562555Y-74984294D01*
X107556093Y-74988990D01*
X107532908Y-74988990D01*
X107510013Y-74992616D01*
X107502896Y-74988990D01*
X107494907Y-74988990D01*
X107455496Y-74964839D01*
X107329496Y-74838839D01*
X107301719Y-74784322D01*
X107300500Y-74768835D01*
X107300500Y-72731165D01*
X107319407Y-72672974D01*
X107329496Y-72661161D01*
X107726161Y-72264496D01*
X107780678Y-72236719D01*
X107796165Y-72235500D01*
X107848860Y-72235500D01*
X107907051Y-72254407D01*
X107918863Y-72264496D01*
X107971155Y-72316787D01*
X108005345Y-72350977D01*
X108177402Y-72465941D01*
X108368580Y-72545130D01*
X108571535Y-72585500D01*
X108571536Y-72585500D01*
X108778464Y-72585500D01*
X108778465Y-72585500D01*
X108981420Y-72545130D01*
X109172598Y-72465941D01*
X109344655Y-72350977D01*
X109490977Y-72204655D01*
X109605941Y-72032598D01*
X109685130Y-71841420D01*
X109725500Y-71638465D01*
X109725500Y-71431535D01*
X109685130Y-71228580D01*
X109605941Y-71037402D01*
X109490977Y-70865345D01*
X109344655Y-70719023D01*
X109288221Y-70681315D01*
X109250342Y-70633266D01*
X109247940Y-70572128D01*
X109281932Y-70521254D01*
X109339336Y-70500076D01*
X109343223Y-70500000D01*
X110547676Y-70500000D01*
X110605867Y-70518907D01*
G37*
%TD.AperFunction*%
%TD*%
M02*
