%TF.GenerationSoftware,KiCad,Pcbnew,10.0.4*%
%TF.CreationDate,2026-08-24T14:50:38-07:00*%
%TF.ProjectId,reflow946,7265666c-6f77-4393-9436-2e6b69636164,rev?*%
%TF.SameCoordinates,Original*%
%TF.FileFunction,Soldermask,Top*%
%TF.FilePolarity,Negative*%
%FSLAX46Y46*%
G04 Gerber Fmt 4.6, Leading zero omitted, Abs format (unit mm)*
G04 Created by KiCad (PCBNEW 10.0.4) date 2026-08-24 14:50:38*
%MOMM*%
%LPD*%
G01*
G04 APERTURE LIST*
G04 Aperture macros list*
%AMRoundRect*
0 Rectangle with rounded corners*
0 $1 Rounding radius*
0 $2 $3 $4 $5 $6 $7 $8 $9 X,Y pos of 4 corners*
0 Add a 4 corners polygon primitive as box body*
4,1,4,$2,$3,$4,$5,$6,$7,$8,$9,$2,$3,0*
0 Add four circle primitives for the rounded corners*
1,1,$1+$1,$2,$3*
1,1,$1+$1,$4,$5*
1,1,$1+$1,$6,$7*
1,1,$1+$1,$8,$9*
0 Add four rect primitives between the rounded corners*
20,1,$1+$1,$2,$3,$4,$5,0*
20,1,$1+$1,$4,$5,$6,$7,0*
20,1,$1+$1,$6,$7,$8,$9,0*
20,1,$1+$1,$8,$9,$2,$3,0*%
%AMHorizOval*
0 Thick line with rounded ends*
0 $1 width*
0 $2 $3 position (X,Y) of the first rounded end (center of the circle)*
0 $4 $5 position (X,Y) of the second rounded end (center of the circle)*
0 Add line between two ends*
20,1,$1,$2,$3,$4,$5,0*
0 Add two circle primitives to create the rounded ends*
1,1,$1,$2,$3*
1,1,$1,$4,$5*%
G04 Aperture macros list end*
%ADD10R,1.700000X1.700000*%
%ADD11O,1.700000X1.700000*%
%ADD12R,1.500000X0.900000*%
%ADD13R,0.900000X2.000000*%
%ADD14R,2.000000X0.900000*%
%ADD15R,5.000000X5.000000*%
%ADD16O,6.000000X4.500000*%
%ADD17RoundRect,0.237500X0.237500X-0.250000X0.237500X0.250000X-0.237500X0.250000X-0.237500X-0.250000X0*%
%ADD18RoundRect,0.250000X0.475000X-0.337500X0.475000X0.337500X-0.475000X0.337500X-0.475000X-0.337500X0*%
%ADD19RoundRect,0.250000X-0.337500X-0.475000X0.337500X-0.475000X0.337500X0.475000X-0.337500X0.475000X0*%
%ADD20RoundRect,0.237500X-0.237500X0.250000X-0.237500X-0.250000X0.237500X-0.250000X0.237500X0.250000X0*%
%ADD21C,4.200000*%
%ADD22RoundRect,0.237500X0.250000X0.237500X-0.250000X0.237500X-0.250000X-0.237500X0.250000X-0.237500X0*%
%ADD23C,2.000000*%
%ADD24RoundRect,0.237500X-0.250000X-0.237500X0.250000X-0.237500X0.250000X0.237500X-0.250000X0.237500X0*%
%ADD25R,2.000000X2.000000*%
%ADD26RoundRect,0.250001X-1.099999X1.099999X-1.099999X-1.099999X1.099999X-1.099999X1.099999X1.099999X0*%
%ADD27C,2.700000*%
%ADD28R,1.500000X2.000000*%
%ADD29R,3.800000X2.000000*%
%ADD30C,1.100000*%
%ADD31RoundRect,0.249999X0.850001X-0.850001X0.850001X0.850001X-0.850001X0.850001X-0.850001X-0.850001X0*%
%ADD32C,2.200000*%
%ADD33C,2.400000*%
%ADD34HorizOval,2.400000X0.000000X0.000000X0.000000X0.000000X0*%
%ADD35RoundRect,0.250000X0.337500X0.475000X-0.337500X0.475000X-0.337500X-0.475000X0.337500X-0.475000X0*%
%ADD36C,1.700000*%
%ADD37RoundRect,0.250000X-0.475000X0.337500X-0.475000X-0.337500X0.475000X-0.337500X0.475000X0.337500X0*%
%ADD38RoundRect,0.150000X0.150000X-0.825000X0.150000X0.825000X-0.150000X0.825000X-0.150000X-0.825000X0*%
%ADD39RoundRect,0.150000X0.587500X0.150000X-0.587500X0.150000X-0.587500X-0.150000X0.587500X-0.150000X0*%
%ADD40R,1.300000X0.300000*%
%ADD41R,2.200000X1.800000*%
%ADD42R,2.400000X1.600000*%
%ADD43O,2.400000X1.600000*%
%ADD44C,1.600000*%
%ADD45O,1.600000X1.600000*%
%ADD46RoundRect,0.250001X1.099999X-1.099999X1.099999X1.099999X-1.099999X1.099999X-1.099999X-1.099999X0*%
%ADD47HorizOval,1.600000X0.000000X0.000000X0.000000X0.000000X0*%
%ADD48RoundRect,0.250000X-0.325000X-0.450000X0.325000X-0.450000X0.325000X0.450000X-0.325000X0.450000X0*%
%ADD49O,3.500000X3.500000*%
%ADD50R,1.905000X2.000000*%
%ADD51O,1.905000X2.000000*%
%ADD52RoundRect,0.150000X-0.150000X0.825000X-0.150000X-0.825000X0.150000X-0.825000X0.150000X0.825000X0*%
G04 APERTURE END LIST*
D10*
%TO.C,J5*%
X108675000Y-74075000D03*
D11*
X108675000Y-71535000D03*
X111215000Y-74075000D03*
X111215000Y-71535000D03*
X113755000Y-74075000D03*
X113755000Y-71535000D03*
%TD*%
D12*
%TO.C,D1*%
X112700000Y-82150000D03*
X112700000Y-84650000D03*
X118900000Y-84650000D03*
X118900000Y-82150000D03*
%TD*%
D13*
%TO.C,U2*%
X107745000Y-108300000D03*
X109015000Y-108300000D03*
X110285000Y-108300000D03*
X111555000Y-108300000D03*
X112825000Y-108300000D03*
X114095000Y-108300000D03*
X115365000Y-108300000D03*
X116635000Y-108300000D03*
X117905000Y-108300000D03*
X119175000Y-108300000D03*
X120445000Y-108300000D03*
X121715000Y-108300000D03*
X122985000Y-108300000D03*
X124255000Y-108300000D03*
D14*
X125255000Y-105515000D03*
X125255000Y-104245000D03*
X125255000Y-102975000D03*
X125255000Y-101705000D03*
X125255000Y-100435000D03*
X125255000Y-99165000D03*
X125255000Y-97895000D03*
X125255000Y-96625000D03*
X125255000Y-95355000D03*
X125255000Y-94085000D03*
D13*
X124255000Y-91300000D03*
X122985000Y-91300000D03*
X121715000Y-91300000D03*
X120445000Y-91300000D03*
X119175000Y-91300000D03*
X117905000Y-91300000D03*
X116635000Y-91300000D03*
X115365000Y-91300000D03*
X114095000Y-91300000D03*
X112825000Y-91300000D03*
X111555000Y-91300000D03*
X110285000Y-91300000D03*
X109015000Y-91300000D03*
X107745000Y-91300000D03*
D15*
X115245000Y-100800000D03*
%TD*%
D16*
%TO.C,REF\u002A\u002A*%
X103700000Y-126400000D03*
%TD*%
D17*
%TO.C,R12*%
X143900000Y-93112500D03*
X143900000Y-91287500D03*
%TD*%
D18*
%TO.C,C6*%
X112900000Y-112737500D03*
X112900000Y-110662500D03*
%TD*%
D19*
%TO.C,C3*%
X132362500Y-72900000D03*
X134437500Y-72900000D03*
%TD*%
D20*
%TO.C,R9*%
X154500000Y-119087500D03*
X154500000Y-120912500D03*
%TD*%
D18*
%TO.C,C5*%
X107700000Y-112737500D03*
X107700000Y-110662500D03*
%TD*%
D21*
%TO.C,REF\u002A\u002A*%
X165000000Y-95500000D03*
%TD*%
D22*
%TO.C,FB1*%
X108989500Y-116200000D03*
X107164500Y-116200000D03*
%TD*%
%TO.C,FB2*%
X108989500Y-118600000D03*
X107164500Y-118600000D03*
%TD*%
D20*
%TO.C,R1*%
X117700000Y-110987500D03*
X117700000Y-112812500D03*
%TD*%
%TO.C,R17*%
X146400000Y-71987500D03*
X146400000Y-73812500D03*
%TD*%
D23*
%TO.C,J4*%
X102750000Y-116180000D03*
X102750000Y-118680000D03*
%TD*%
D20*
%TO.C,R16*%
X143900000Y-71987500D03*
X143900000Y-73812500D03*
%TD*%
D24*
%TO.C,FB4*%
X142878750Y-102060000D03*
X144703750Y-102060000D03*
%TD*%
D25*
%TO.C,C1*%
X122000000Y-78267677D03*
D23*
X122000000Y-73267677D03*
%TD*%
D17*
%TO.C,R13*%
X141400000Y-93112500D03*
X141400000Y-91287500D03*
%TD*%
D26*
%TO.C,J2*%
X199900000Y-94650000D03*
D27*
X199900000Y-102570000D03*
%TD*%
D28*
%TO.C,U4*%
X133500000Y-76150000D03*
X131200000Y-76150000D03*
D29*
X131200000Y-82450000D03*
D28*
X128900000Y-76150000D03*
%TD*%
D26*
%TO.C,J3*%
X199900000Y-81651680D03*
D27*
X199900000Y-89570000D03*
%TD*%
D30*
%TO.C,J8*%
X151871250Y-104470000D03*
X151871250Y-101930000D03*
D31*
X149331250Y-104470000D03*
D32*
X149331250Y-101930000D03*
%TD*%
D33*
%TO.C,R5*%
X190906194Y-118460458D03*
D34*
X185693807Y-104139542D03*
%TD*%
D35*
%TO.C,C2*%
X130137500Y-72900000D03*
X128062500Y-72900000D03*
%TD*%
D10*
%TO.C,J9*%
X155670000Y-89660000D03*
D36*
X158210000Y-89660000D03*
X160750000Y-89660000D03*
X163290000Y-89660000D03*
X165830000Y-89660000D03*
X168370000Y-89660000D03*
X170910000Y-89660000D03*
X173450000Y-89660000D03*
%TD*%
D37*
%TO.C,C4*%
X110871000Y-116362500D03*
X110871000Y-118437500D03*
%TD*%
D38*
%TO.C,U6*%
X133755000Y-105675000D03*
X135025000Y-105675000D03*
X136295000Y-105675000D03*
X137565000Y-105675000D03*
X137565000Y-100725000D03*
X136295000Y-100725000D03*
X135025000Y-100725000D03*
X133755000Y-100725000D03*
%TD*%
D18*
%TO.C,C7*%
X140851250Y-104237500D03*
X140851250Y-102162500D03*
%TD*%
D39*
%TO.C,Q3*%
X144137500Y-81918344D03*
X144137500Y-80018344D03*
X142262500Y-80968344D03*
%TD*%
D21*
%TO.C,REF\u002A\u002A*%
X120000000Y-123500000D03*
%TD*%
D40*
%TO.C,J6*%
X169750000Y-80625000D03*
X169750000Y-81125000D03*
X169750000Y-81625000D03*
X169750000Y-82125000D03*
X169750000Y-82625000D03*
X169750000Y-83125000D03*
X169750000Y-83625000D03*
X169750000Y-84125000D03*
D41*
X166500000Y-78725000D03*
X166500000Y-86025000D03*
%TD*%
D22*
%TO.C,R18*%
X149112500Y-85683858D03*
X147287500Y-85683858D03*
%TD*%
D42*
%TO.C,U1*%
X171100000Y-113900000D03*
D43*
X171100000Y-116440000D03*
X171100000Y-118980000D03*
X178720000Y-118980000D03*
X178720000Y-116440000D03*
X178720000Y-113900000D03*
%TD*%
D44*
%TO.C,R4*%
X178150000Y-99700000D03*
D45*
X190850000Y-99700000D03*
%TD*%
D24*
%TO.C,R19*%
X142287500Y-85683858D03*
X144112500Y-85683858D03*
%TD*%
D20*
%TO.C,R15*%
X138900000Y-71987500D03*
X138900000Y-73812500D03*
%TD*%
D10*
%TO.C,J7*%
X109010000Y-127680000D03*
D36*
X111550000Y-127680000D03*
X114090000Y-127680000D03*
X116630000Y-127680000D03*
X119170000Y-127680000D03*
X121710000Y-127680000D03*
%TD*%
D39*
%TO.C,Q4*%
X139037500Y-81918344D03*
X139037500Y-80018344D03*
X137162500Y-80968344D03*
%TD*%
D21*
%TO.C,REF\u002A\u002A*%
X194600000Y-73300000D03*
%TD*%
D17*
%TO.C,R14*%
X138800000Y-93112500D03*
X138800000Y-91287500D03*
%TD*%
D46*
%TO.C,J1*%
X104100000Y-84000000D03*
D27*
X104090050Y-80040040D03*
%TD*%
D16*
%TO.C,REF\u002A\u002A*%
X194600000Y-126400000D03*
%TD*%
D44*
%TO.C,R3*%
X183500000Y-118900000D03*
D47*
X181294668Y-106392942D03*
%TD*%
D39*
%TO.C,Q2*%
X148937500Y-81918344D03*
X148937500Y-80018344D03*
X147062500Y-80968344D03*
%TD*%
D21*
%TO.C,REF\u002A\u002A*%
X165000000Y-123500000D03*
%TD*%
D48*
%TO.C,F1*%
X110675000Y-80000000D03*
X112725000Y-80000000D03*
%TD*%
D24*
%TO.C,FB3*%
X142878750Y-104460000D03*
X144703750Y-104460000D03*
%TD*%
D20*
%TO.C,R7*%
X127500000Y-119087500D03*
X127500000Y-120912500D03*
%TD*%
D24*
%TO.C,R20*%
X137287500Y-85683858D03*
X139112500Y-85683858D03*
%TD*%
D49*
%TO.C,Q1*%
X180660000Y-77395000D03*
D50*
X183200000Y-94055000D03*
D51*
X180660000Y-94055000D03*
X178120000Y-94055000D03*
%TD*%
D52*
%TO.C,U3*%
X116805000Y-115125000D03*
X115535000Y-115125000D03*
X114265000Y-115125000D03*
X112995000Y-115125000D03*
X112995000Y-120075000D03*
X114265000Y-120075000D03*
X115535000Y-120075000D03*
X116805000Y-120075000D03*
%TD*%
D17*
%TO.C,R11*%
X146500000Y-93112500D03*
X146500000Y-91287500D03*
%TD*%
D20*
%TO.C,R8*%
X138500000Y-119087500D03*
X138500000Y-120912500D03*
%TD*%
D17*
%TO.C,R10*%
X149000000Y-93112500D03*
X149000000Y-91287500D03*
%TD*%
D21*
%TO.C,REF\u002A\u002A*%
X103600000Y-73300000D03*
%TD*%
D20*
%TO.C,R6*%
X110300000Y-110987500D03*
X110300000Y-112812500D03*
%TD*%
D23*
%TO.C,CCBB1*%
X197800000Y-118500000D03*
X197800000Y-108500000D03*
%TD*%
%TO.C,DS1*%
X148975000Y-88725130D03*
X146435000Y-88725130D03*
X143895000Y-88725130D03*
X141355000Y-88725130D03*
X138815000Y-88725130D03*
X136275000Y-88725130D03*
X136275000Y-76025130D03*
X138815000Y-76025130D03*
X141355000Y-76025130D03*
X143895000Y-76025130D03*
X146435000Y-76025130D03*
X148975000Y-76025130D03*
%TD*%
%TO.C,SW3*%
X127500000Y-116500000D03*
X122500000Y-116500000D03*
X127500000Y-111500000D03*
X122500000Y-111500000D03*
%TD*%
%TO.C,SW2*%
X143500000Y-116500000D03*
X138500000Y-116500000D03*
X143500000Y-111500000D03*
X138500000Y-111500000D03*
%TD*%
%TO.C,SW1*%
X159500000Y-116500000D03*
X154500000Y-116500000D03*
X159500000Y-111500000D03*
X154500000Y-111500000D03*
%TD*%
M02*
